<?xml version="1.0" standalone="no"?>
<!DOCTYPE svg PUBLIC "-//W3C//DTD SVG 1.1//EN" "http://www.w3.org/Graphics/SVG/1.1/DTD/svg11.dtd">
<svg xmlns="http://www.w3.org/2000/svg">
<defs >
<font id="Alegreya" horiz-adv-x="527" ><font-face
    font-family="Alegreya Black"
    units-per-em="1000"
    panose-1="0 0 0 0 0 0 0 0 0 0"
    ascent="1016"
    descent="-345"
    alphabetic="0" />
<glyph unicode=" " horiz-adv-x="127" />
<glyph unicode="!" horiz-adv-x="275" d="M99 -9Q59 -9 38 12T16 71Q16 125 47 157T131 190Q170 190 191 169T213 109Q213 56 182 24T99 -9ZM93 667L114 691L305 717L327 691L202 261L96 245L78 265L93 667Z" />
<glyph unicode="&quot;" horiz-adv-x="341" d="M215 647Q209 624 199 588T175 509T147 426L70 401L52 407Q58 451 62 496T69 580T73 645L208 659L215 647ZM385 647Q379 624 369 588T345 509T317 426L240 401L222 407Q228 451 232 496T239 580T243 645L378 659L385 647Z" />
<glyph unicode="#" horiz-adv-x="543" d="M51 352L77 457L164 456L194 573L304 582L317 575L281 456H320H358L388 573L497 582L510 575L475 459L557 462L562 447L541 341L441 340L437 324L420 264L503 267L508 252L487 146L389 145L363 45L255 31L243 40L273 145H235H195L170
45L62 31L50 40L79 144H4L-3 157L23 262L113 261L125 306L133 339H58L51 352ZM244 324L227 261H261H306L318 306L327 340H282H247L244 324V324Z" />
<glyph unicode="$" horiz-adv-x="469" d="M239 44L191 -151L74 -164L67 -158L114 33L239 44ZM114 33L220 462L345 472L239 44L114 33ZM220 462L264 644L383 658L388 649L345 472L220 462ZM178 -9Q129 -9 89 -1T24 16T0 25L-9 40Q-9 40 -2 62T13 114T26 167L140
175Q138 156 144 140T163 115T196 105Q217 105 229 112T242 130Q242 149 217 161T158 187Q129 200 100 217T52 260T33 327Q33 384 64 425T155 490T298 513Q344 513 383 508T447 497T472 491L481 472Q481 472 475 453T459 402T442 336L336 329L326 336Q326 336 327
343T328 352Q328 373 315 384T280 395Q260 395 248 387T235 364Q235 349 251 339T291 318Q314 309 340 298T390 270T429 230T444 170Q444 114 414 74T324 12T178 -9Z" />
<glyph unicode="%" horiz-adv-x="740" d="M151 290Q93 290 59 325T24 434Q24 507 48 557T115 633T212 659Q251 659 279 644T322 596T337 516Q337 443 313 393T247 316T151 290ZM550 -12Q492 -12 458 23T423 132Q423 205 447 255T514 331T611 357Q650 357 678 341T721
294T736 214Q736 141 712 91T646 14T550 -12ZM577 126Q605 126 621 131T645 147T652 174Q652 196 635 205T580 215Q539 215 522 204T505 167Q505 146 522 136T577 126ZM178 428Q206 428 222 433T246 449T253 476Q253 498 236 507T181 517Q140 517 123 506T106 469Q106
448 123 438T178 428ZM633 623Q633 623 614 594T564 517T497 413T426 303T363 207Q336 164 309 122T258 41T215 -27T185 -74T174 -91L81 -56L75 -39Q75 -39 87 -22T119 26T165 93T217 172T269 253L536 679L623 647L633 623Z" />
<glyph unicode="&amp;" horiz-adv-x="576" d="M225 455Q225 416 242 397T294 378L528 399Q569 402 603 413T658 440L684 417L641 332Q627 304 602 290T545 275H513L508 269Q514 256 514 225Q514 168 495 124T440 50T353 4T237 -12Q164 -12 114 8T39 65T13 153Q13
208 45 249T150 319Q107 346 90 379T73 454Q73 516 103 562T189 634T327 660Q365 660 403 654T491 633L501 617Q482 565 471 523T458 455L341 448Q341 448 342 455T345 472T346 491Q346 512 335 523T296 534Q261 534 243 515T225 455ZM377 215Q377 246 370 260T348
275H238Q209 260 195 238T181 182Q181 141 201 122T268 103Q305 103 329 115T365 151T377 215Z" />
<glyph unicode="&apos;" horiz-adv-x="171" d="M215 647Q209 624 199 588T175 509T147 426L70 401L52 407Q58 451 62 496T69 580T73 645L208 659L215 647Z" />
<glyph unicode="(" horiz-adv-x="300" d="M63 336Q72 410 95 463T146 552T202 609T246 640T264 649H282L326 585L324 576Q324 576 312 566T281 530T247 461T222 351L201 178Q194 120 196 78T207 6T224 -41T240 -67T247 -75L246 -86L176 -146H164Q164 -146 149
-137T113 -107T72 -51T43 37T42 163L63 336Z" />
<glyph unicode=")" horiz-adv-x="304" d="M240 167Q231 94 208 41T157 -49T101 -106T57 -137T39 -146H22L-23 -82L-21 -73Q-21 -73 -9 -63T22 -27T57 42T82 152L103 325Q110 383 108 425T97 497T80 544T64 570T57 578L58 589L127 649H140Q140 649 155 640T191
610T231 554T261 466T262 340L240 167Z" />
<glyph unicode="*" horiz-adv-x="348" d="M76 681Q76 681 89 673T127 650T181 611L172 562L163 555Q136 563 110 570T68 581T51 585Q51 585 51 600T55 637T65 678L76 681ZM70 465Q70 465 81 475T115 503T168 543L213 519L216 510Q200 486 186 464T163 427T154
412Q154 412 140 417T106 431T69 453L70 465ZM273 393Q273 393 267 407T251 447T229 511L266 546H277Q294 524 311 503T339 469T350 456Q350 456 341 444T317 416T284 388L273 393ZM405 564Q405 564 390 563T346 560T279 558L257 604L261 615Q288 625 312 634T353
649T369 656Q369 656 377 644T397 612T413 572L405 564ZM284 742Q284 742 280 727T269 684T249 620L199 615L191 620Q190 649 188 675T185 719T183 736Q183 736 198 740T234 748T277 752L284 742Z" />
<glyph unicode="+" horiz-adv-x="491" d="M350 486Q350 486 348 472T341 433T333 380T324 323Q352 324 379 325T430 327T466 328T480 329L485 314L455 178L306 177Q302 141 298 109T292 57T290 36L157 18L146 27Q146 27 147 39T151 73T157 122T165 177Q128 177
94 177T38 176T16 176L9 189L43 324Q43 324 63 324T115 324T183 323L203 480L336 493L350 486Z" />
<glyph unicode="," horiz-adv-x="231" d="M4 145Q31 166 58 177T106 189Q144 189 167 162T191 88Q191 53 171 16T113 -57T24 -122L-34 -76V-51Q-5 -30 12 -1T30 55Q30 75 22 96T1 131L4 145Z" />
<glyph unicode="-" horiz-adv-x="314" d="M291 310L265 202L37 176L27 194L50 300L199 317Q247 322 264 325T282 328L291 310Z" />
<glyph unicode="." horiz-adv-x="231" d="M81 -9Q41 -9 20 12T-1 71Q-1 125 30 157T114 190Q153 190 174 169T195 109Q195 56 164 24T81 -9Z" />
<glyph unicode="/" horiz-adv-x="319" d="M388 655Q388 655 377 626T346 547T304 440T259 323T217 215Q194 153 173 95T134 -9T107 -83T97 -110H-29L-38 -95Q-38 -95 -27 -67T3 8T44 112T87 226L254 675H373L388 655Z" />
<glyph unicode="0" horiz-adv-x="450" d="M184 -12Q98 -12 53 41T8 193Q8 266 26 325T79 427T162 492T271 515Q328 515 367 492T425 423T445 311Q445 237 427 178T375 76T293 11T184 -12ZM222 179Q261 179 285 187T321 213T332 255Q332 287 307 303T229 320Q192
320 168 312T132 286T120 244Q120 212 145 196T222 179Z" />
<glyph unicode="1" horiz-adv-x="367" d="M311 400Q305 382 297 357T282 300T269 227T264 135Q264 111 271 100T295 88Q312 88 325 89T338 90L341 84L316 -6Q316 -6 300 -5T260 -3T211 -1T165 0Q138 0 106 -1T45 -5T-2 -8T-20 -10L-2 71Q29 74 48 82T79 104T92
139L117 340Q121 375 114 386T78 397Q65 397 49 396T33 394L25 404L42 479Q66 481 88 483T131 488T173 493Q220 498 259 503T323 512T348 515L359 472Q343 460 332 444T311 400Z" />
<glyph unicode="2" horiz-adv-x="479" d="M-23 44L54 121Q112 182 144 219T190 280T205 322Q208 345 198 356T165 367Q142 367 115 351T62 304H44L32 408Q71 444 109 467T187 503T264 515Q336 515 379 481T422 390Q422 366 418 346T397 301T343 238T240 137L244
128H271Q295 128 311 137T338 166T356 219L473 228Q473 228 467 207T452 151T435 78T420 6L401 -12Q401 -12 375 -11T307 -8T217 -4T125 -1T50 0L-24 -6L-23 44Z" />
<glyph unicode="3" horiz-adv-x="437" d="M2 62Q34 44 89 44Q123 44 148 51T187 73T202 106Q202 132 178 144T101 156L90 171L91 261L156 274Q186 286 203 306T220 351Q220 366 210 375T183 384Q163 384 136 372T77 336L62 335L42 438Q66 455 94 469T150 493T206
509T256 515Q325 515 366 486T407 406Q407 358 373 319T282 263L281 252Q340 233 371 200T403 124Q403 83 373 44T293 -26T182 -76T58 -95Q7 -95 -9 -65T-23 39L2 62Z" />
<glyph unicode="4" horiz-adv-x="478" d="M-22 55Q-19 80 -16 105T-9 155L280 513Q282 513 285 514T289 515L429 503L388 173H454L463 158L439 45Q439 45 421 45T374 47Q371 16 369 -11T366 -55T365 -72L353 -83L187 -95L179 -83Q179 -83 181 -72T186 -41T193
3T201 52Q143 54 84 54T-22 55ZM127 173H217L233 300H222L127 173Z" />
<glyph unicode="5" horiz-adv-x="410" d="M383 150Q383 104 354 60T276 -19T166 -74T40 -95Q-9 -95 -27 -65T-41 39L-16 62Q17 44 71 44Q104 44 129 52T168 74T183 105Q183 131 149 145T32 169L24 180Q37 234 48 287T67 384T79 453T84 479L92 487L286 493Q313
494 327 502T352 533L431 538L381 359L359 340Q359 340 337 342T276 346T189 348L175 296Q249 284 295 265T362 218T383 150Z" />
<glyph unicode="6" horiz-adv-x="460" d="M444 511Q444 511 432 506T399 490T353 463T300 423T248 369L252 358Q260 361 267 363T281 368T294 373T308 379Q352 379 383 361T430 309T447 229Q447 156 415 102T325 18T188 -12Q103 -12 56 40T8 179Q8 261 37 324T112
434T210 512T308 563T383 590T412 599L424 592L444 511ZM237 259Q220 259 206 254T182 242Q179 225 176 211T173 176Q173 142 184 124T216 105Q251 105 263 129T276 199Q276 229 267 244T237 259Z" />
<glyph unicode="7" horiz-adv-x="423" d="M163 -95L45 -57L36 -29L270 360L184 351Q156 348 140 342T115 319T95 269L12 263Q12 263 17 285T29 342T45 420T60 502L67 507Q67 507 84 506T128 504T185 503H402L450 433Q414 369 389 322T342 234T298 149T246 48L191
-95H163Z" />
<glyph unicode="8" horiz-adv-x="458" d="M3 124Q3 154 12 177T37 217T71 246T109 266Q82 289 64 322T45 401Q45 458 78 502T166 573T287 599Q336 599 374 581T435 533T457 464Q457 428 443 402T408 357T364 327Q391 308 410 278T430 202Q430 142 397 94T308 17T184
-12Q130 -12 90 5T26 54T3 124ZM205 96Q223 96 235 102T253 120T259 147Q259 162 248 174T218 197T177 222Q170 212 165 202T157 180T154 155Q154 129 168 113T205 96ZM215 436Q215 421 224 410T248 389T282 370Q292 384 298 400T305 436Q305 458 294 470T263 483Q241
483 228 470T215 436Z" />
<glyph unicode="9" horiz-adv-x="460" d="M20 -8Q20 -8 32 -3T65 12T111 40T163 80T215 134L211 145Q204 142 197 140T183 135T169 130T155 124Q112 124 81 142T33 194T16 274Q16 347 48 401T138 485T275 515Q360 515 408 463T456 324Q456 242 427 179T352 69T254
-9T156 -60T81 -87T52 -96L40 -89L20 -8ZM226 244Q243 244 257 249T280 260Q285 278 287 294T290 327Q290 362 280 380T248 398Q212 398 200 374T187 304Q187 274 197 259T226 244Z" />
<glyph unicode=":" horiz-adv-x="231" d="M86 -9Q46 -9 25 12T4 71Q4 125 35 157T119 190Q158 190 179 169T200 109Q200 56 169 24T86 -9ZM118 256Q78 256 57 277T36 336Q36 390 67 422T151 455Q190 455 211 434T232 374Q232 321 201 289T118 256Z" />
<glyph unicode=";" horiz-adv-x="231" d="M8 145Q35 166 62 177T110 189Q148 189 171 162T195 88Q195 53 175 16T117 -57T28 -122L-30 -76V-51Q-1 -30 16 -1T34 55Q34 75 26 96T5 131L8 145ZM118 256Q78 256 57 277T36 336Q36 390 67 422T151 455Q190 455 211
434T232 374Q232 321 201 289T118 256Z" />
<glyph unicode="&lt;" horiz-adv-x="414" d="M19 199L38 352L219 429Q248 441 275 453T324 476T358 493T371 499L388 488L409 383Q409 383 394 377T353 361T299 339T241 315L153 276L152 268L241 219Q274 203 304 189T353 165T372 155L379 134L312 42Q312 42 302
47T275 61T235 81T188 105Q166 116 138 129T84 155T42 176T25 184L19 199Z" />
<glyph unicode="=" horiz-adv-x="491" d="M473 214L443 78L223 77Q190 77 153 77T81 77T26 76T4 76L-4 89L31 224Q31 224 53 224T109 224T182 223T252 223Q281 223 318 224T389 226T445 228T468 229L473 214ZM497 414L468 278L247 277Q214 277 177 277T105 277T50
276T28 276L21 289L55 424Q55 424 77 424T133 424T206 423T277 423Q306 423 342 424T413 426T470 428T492 429L497 414Z" />
<glyph unicode="&gt;" horiz-adv-x="414" d="M403 342L385 189L204 112Q175 100 148 88T99 65T64 48T51 42L35 53L13 158Q13 158 28 164T69 180T123 202T181 226L270 265L271 273L181 322Q149 338 119 352T70 376T50 386L44 407L111 499Q111 499 121 494T148 481T187
461T234 436Q257 425 284 412T338 386T380 365T397 357L403 342Z" />
<glyph unicode="?" horiz-adv-x="371" d="M83 373L88 388L186 435Q212 449 225 464T239 497Q239 529 202 548T92 571L80 589L135 707L153 716Q232 714 292 692T387 631T422 546Q422 520 413 497T384 450T328 400T239 341L236 335L234 266L224 252L104 232L90 240L83
373ZM127 -9Q87 -9 66 12T44 71Q44 125 75 157T159 190Q199 190 220 169T241 109Q241 56 210 24T127 -9Z" />
<glyph unicode="@" horiz-adv-x="873" d="M504 -12Q480 -12 465 3T450 42Q450 46 450 50T452 62T456 82T463 112T474 158H464Q423 87 393 48T331 -12Q260 -12 220 29T180 145Q180 204 202 262T261 367T343 443T434 472L506 452L511 472L530 484L664 472L672 449Q672
449 667 427T654 367T637 286T618 196T603 112L610 104Q656 104 692 130T748 203T769 310Q769 390 733 448T628 537T466 568Q391 568 327 541T216 464T142 348T116 203Q116 89 163 11T301 -108T524 -149Q524 -156 524 -162T523 -176L486 -240Q374 -240 285 -212T134
-131T40 -3T7 169Q7 249 32 324T104 462T212 573T346 646T497 673Q615 673 699 634T830 523T876 350Q876 267 850 201T776 87T659 14T504 -12ZM377 143Q388 143 407 172T445 248T478 341Q478 341 467 347T439 360T404 367Q395 367 386 343T370 281T363 207Q363
179 367 161T377 143Z" />
<glyph unicode="A" horiz-adv-x="661" d="M593 153Q598 119 609 104T640 86L646 76L628 -3Q628 -3 605 -3T549 -2T490 -1Q444 -1 401 -2T330 -4T302 -6L295 3L311 87Q353 92 365 98T377 121Q377 124 377 128T377 139V178Q377 178 361 178T326 179T304 180Q295
180 277 179T243 177T227 175L214 131Q208 112 208 104Q208 89 231 89H258L265 79L247 -4Q247 -4 222 -3T162 -2T97 -1Q67 -1 37 -1T-13 -1T-33 -2L-16 85Q1 90 15 103T39 140L250 642L517 658L531 646Q531 646 534 618T544 543T557 440T571 329T584 227T593 153ZM274
301H322Q333 301 344 301T371 303L361 478H339L274 301Z" />
<glyph unicode="B" horiz-adv-x="647" d="M160 0Q137 0 107 -1T47 -3T-1 -6T-20 -7L0 83Q38 90 54 105T74 156L119 513Q121 536 116 547T99 559Q90 559 78 558T65 557L55 569L76 649Q76 649 97 649T148 648T204 648T243 647Q255 647 284 648T345 650T401 653T424
654Q526 654 582 618T639 515Q639 464 612 423T525 343Q576 321 602 288T629 210Q629 137 595 88T491 14T320 -11Q311 -9 290 -8T243 -4T194 -1T160 0ZM286 260L269 160Q265 136 280 125T332 114Q370 114 390 135T411 195Q411 218 399 234T361 260H286ZM304 389Q304
389 312 388T333 384T357 380T378 378Q378 378 385 384T402 401T419 430T427 470Q427 528 345 528Q335 528 332 525T326 514Q321 492 316 463T308 411T304 389Z" />
<glyph unicode="C" horiz-adv-x="584" d="M279 -11Q196 -11 138 20T49 112T18 259Q18 357 41 431T112 556T227 633T386 659Q417 659 455 655T528 646T585 637T608 633L614 613Q614 613 605 585T584 509T560 399L404 390Q404 390 407 405T412 438T415 465Q415 521
349 521Q313 521 291 496T258 415T248 268Q248 193 263 162T316 130Q341 130 356 140T382 175T402 246L557 256Q557 256 553 237T543 186T531 117T520 43L505 27Q505 27 475 18T394 -1T279 -11Z" />
<glyph unicode="D" horiz-adv-x="660" d="M279 -12Q279 -12 264 -10T226 -6T176 -2T126 0Q99 0 66 -2T8 -6T-16 -8L4 85Q39 91 54 108T76 168L117 503Q121 535 118 546T100 557Q90 557 80 556T69 555L61 569L80 650Q80 650 97 650T139 649T189 648T229 647Q246
647 271 648T322 650T365 652T382 653Q473 653 536 625T632 541T665 402Q665 309 638 233T559 102T437 18T279 -12ZM343 526Q333 526 328 521T320 499Q318 491 314 463T303 395T291 313T280 234T271 172T267 145Q267 127 273 120T293 113Q340 113 371 145T419 241T435
398Q435 469 415 497T343 526Z" />
<glyph unicode="E" horiz-adv-x="586" d="M269 151Q269 129 278 122T309 115Q339 115 358 119T391 134T413 166T431 221L560 230L571 215Q571 215 563 186T542 111T518 9L501 -7Q501 -7 484 -7T436 -5T366 -2T281 -1T190 0Q139 0 91 -2T11 -7T-20 -10L0 82Q37
88 52 106T73 170L116 505Q120 537 116 548T96 559Q89 559 80 558T71 557L61 571L80 650Q80 650 103 650T161 649T236 648T310 647Q370 647 429 648T536 653T612 659L623 643Q623 643 615 613T595 537T576 444L436 435Q436 435 438 443T442 464T444 484Q444 502
437 511T410 523T358 527Q345 527 338 525T328 517T323 500L303 387Q317 387 339 387T382 386Q393 386 410 387T446 389T476 391T489 392L499 378L471 263Q471 263 452 264T405 265T356 266Q335 266 316 264T283 260Q279 235 274 202T269 151Z" />
<glyph unicode="F" horiz-adv-x="540" d="M272 175Q268 139 274 127T305 115Q320 115 333 117T353 121T361 123L375 105L349 -3Q349 -3 331 -3T287 -2T235 -1T191 0Q140 0 92 -2T12 -7T-20 -10L0 82Q37 88 52 106T73 170L116 505Q120 537 116 548T96 559Q89 559
80 558T71 557L61 571L80 650Q80 650 103 650T161 649T236 648T310 647Q365 647 418 648T515 653T584 659L595 643Q595 643 588 613T572 536T554 444L414 436Q414 436 416 444T419 464T421 484Q421 501 415 510T396 523T358 527Q345 527 338 525T328 517T323 500L300
370L380 369Q394 369 418 370T462 373T482 375L493 361L465 246Q465 246 446 247T402 248T354 249Q333 249 314 247T281 243L272 175Z" />
<glyph unicode="G" horiz-adv-x="618" d="M279 -11Q196 -11 138 20T49 112T18 259Q18 357 41 431T112 556T227 633T386 659Q417 659 455 655T528 646T585 637T608 633L614 613Q614 613 605 589T584 519T560 413L404 404Q404 404 407 416T412 444T415 468Q415 521
349 521Q313 521 291 496T258 415T248 268Q248 193 263 162T316 130Q333 130 345 133T364 139T371 142L378 205Q381 229 376 237T354 246Q346 246 339 246T328 246T323 245L316 259L339 354Q339 354 355 354T395 354T445 354T489 354Q509 354 534 355T578 357T597
359L600 301Q578 288 568 271T552 226Q548 203 543 171T535 112T532 76Q532 61 532 50T533 38L519 22Q519 22 492 14T412 -3T279 -11Z" />
<glyph unicode="H" horiz-adv-x="716" d="M-17 -5L1 80Q27 86 41 94T63 118T73 162L116 508Q120 539 114 549T88 559Q83 559 76 559T63 558L56 572L73 647Q100 647 138 647T199 647Q222 647 273 648T397 652L379 562Q359 558 348 553T331 538T322 510L287 300L270
156Q269 146 268 137T267 119Q267 101 272 94T292 87Q299 87 306 88T318 90Q320 88 322 85T325 80L306 -4Q280 -3 248 -2T188 -1T145 0Q129 0 104 0T49 -2T-17 -5ZM261 254L286 390Q310 389 333 388T379 386Q412 386 432 387T471 390L450 264L390 265Q383 265 363
264T315 260T261 254ZM671 -2Q658 -2 631 -2T552 0H503Q487 0 458 0T397 0T339 -1L357 86Q380 87 395 94T418 118T430 162L473 508Q477 538 471 548T445 559Q439 559 432 559T419 558L412 572L429 647Q429 647 445 647T487 647T538 647T586 647T615 647Q656 648
697 649T762 652L745 564Q709 558 697 549T680 510Q674 481 667 437T653 345T639 252T629 175T625 133Q625 109 632 99T656 89Q662 89 669 90T683 92Q685 89 687 87T690 81L671 -2Z" />
<glyph unicode="I" horiz-adv-x="359" d="M323 510Q318 482 311 439T296 346T282 250T271 171T267 125Q267 103 273 95T292 87Q307 87 315 88T323 90L329 80L310 -4Q310 -4 291 -4T244 -2T189 -1T147 0Q124 0 96 -1T42 -2T0 -4T-17 -5L1 80Q42 89 55 105T73 162L116
508Q120 539 114 549T88 559Q81 559 73 559T64 558Q62 562 60 565T56 572L73 647Q101 647 127 647T180 647T232 647Q247 647 275 648T332 649T382 651T402 652L384 562Q350 557 340 548T323 510Z" />
<glyph unicode="J" horiz-adv-x="329" d="M108 508Q112 539 108 549T84 559Q77 559 69 559T55 558T49 557L42 571L59 647L198 648Q247 649 290 650T360 653T387 655L367 562Q339 555 330 547T316 510Q311 482 305 444T291 360T277 267T264 173T252 85Q239 -11
171 -71T-35 -164L-70 -116L-66 -101Q-22 -70 2 -42T40 27T62 132L108 508Z" />
<glyph unicode="K" horiz-adv-x="676" d="M116 508Q120 539 114 549T88 559Q81 559 72 559T63 558L56 572L74 648Q74 648 95 648T146 648T201 647T232 647Q247 647 275 648T333 649T382 651T403 652L385 562Q347 552 335 542T320 506L270 156Q265 115 269 101T292
87Q308 87 315 88T323 90L330 80L311 -4Q311 -4 292 -4T244 -2T189 -1T147 0Q124 0 96 -1T42 -2T0 -4T-17 -5L1 80Q40 88 54 104T73 162L116 508ZM307 347L420 472Q435 488 444 505T454 532Q454 545 447 551T419 558L414 568L433 650Q433 650 448 650T486 649T532
648T573 647Q586 647 609 648T657 649T699 651T716 652L723 637L705 562Q676 546 652 528T607 488T561 435L501 356L566 174Q582 130 601 110T648 84L657 69L637 -5Q637 -5 617 -6T570 -10T517 -14T483 -16Q445 -16 425 1T387 65L298 317L307 347Z" />
<glyph unicode="L" horiz-adv-x="543" d="M189 0Q139 0 91 -2T11 -7T-20 -10L0 82Q37 88 52 106T73 170L115 508Q119 539 113 549T87 559Q80 559 71 559T62 558Q61 562 59 565T55 572L72 647Q100 647 126 647T178 647T231 647Q249 647 282 648T351 649T412 651T437
652L414 554Q380 551 361 546T333 530T321 502Q316 475 310 435T296 350T283 263T273 190T269 147Q269 130 276 123T298 115Q323 115 340 122T369 146T390 196T408 278L538 291Q540 287 543 284T548 276Q548 276 540 238T518 140T492 9L475 -7Q475 -7 451 -6T385
-4T293 -1T189 0Z" />
<glyph unicode="M" horiz-adv-x="808" d="M293 -12Q279 94 268 167T250 288T239 363H226Q215 281 209 233T199 159T194 126T193 115Q193 88 221 88Q225 88 232 88T246 90Q248 88 250 86T254 82L231 -4Q210 -3 182 -2T129 -1T91 0Q81 0 62 -1T23 -3T-11 -6T-25
-8L-6 82Q21 85 35 100T57 148Q63 175 71 212T88 290T105 372T119 447T130 503T134 529Q134 543 123 549T79 558L72 566L92 652Q145 650 181 649T236 647Q259 647 301 648T390 651Q392 618 394 579T400 498T408 413T418 333H431Q447 374 467 428T509 539T547 647Q579
647 609 647T670 646T732 648Q758 649 784 650T823 653Q825 652 827 651T830 649L811 561Q772 560 759 550T742 510Q741 497 739 474T736 418T732 348T729 266T725 176Q723 127 730 108T759 89Q765 89 773 89T788 91Q790 89 791 87T794 83L775 -3Q756 -2 725 -2T668
0Q653 0 624 -1T562 -3T505 -6T476 -8L499 83Q526 86 538 97T554 132Q556 144 558 170T565 230T573 298T580 363H567Q566 360 554 331T521 252T475 137T421 -2L293 -12Z" />
<glyph unicode="N" horiz-adv-x="718" d="M496 333L514 516Q516 542 511 550T488 559Q481 559 474 559T458 559L454 570L469 651Q469 651 486 651T530 649T584 648T633 647Q661 647 692 647T747 649T770 650L754 560Q723 556 710 542T691 497L617 0L425 -12Q395
58 368 117T320 221T287 290T275 315H260L242 137Q239 109 245 98T274 86Q280 86 287 87T300 89T306 90L314 81L293 -4Q293 -4 276 -4T233 -2T182 -1T142 0Q108 0 72 -2T12 -6T-12 -8L9 82Q38 86 53 100T72 145L126 494Q131 529 119 540T62 557Q60 561 57 564T52
571L67 652Q67 652 88 651T143 649T213 647Q240 647 270 648T320 650T341 651Q365 590 389 533T435 431T468 360T481 333H496Z" />
<glyph unicode="O" horiz-adv-x="633" d="M283 -12Q201 -12 142 18T50 109T18 256Q18 352 40 427T108 554T219 632T372 659Q457 659 516 630T606 543T638 398Q638 302 615 226T547 97T435 16T283 -12ZM310 114Q345 114 366 143T397 236T407 402Q407 443 400 469T379
509T342 522Q309 522 288 493T257 400T247 234Q247 193 254 167T275 127T310 114Z" />
<glyph unicode="P" horiz-adv-x="591" d="M74 647Q99 647 121 647T167 647T214 647Q231 647 259 648T315 650T363 652T383 653Q460 653 509 636T585 592T624 533T635 473Q635 419 612 372T550 287T462 229T360 208H277L271 160Q266 120 273 104T311 88Q321 88
331 89T342 90Q343 88 344 86T346 82L326 -4Q326 -4 307 -4T261 -2T207 -1T164 0Q148 0 118 -1T56 -4T3 -7T-19 -9L1 83Q37 89 53 107T74 168L116 505Q120 536 116 547T98 559Q87 559 75 558T63 557L55 569L74 647ZM357 321Q395 335 411 369T427 452Q427 492 406
510T341 528Q331 528 328 524T323 506Q316 468 309 423T294 331L357 321Z" />
<glyph unicode="Q" horiz-adv-x="636" d="M446 31L445 17Q476 -11 511 -31T582 -63T649 -74Q671 -74 691 -72T725 -67T739 -64L749 -75L758 -141Q758 -141 743 -151T704 -176T654 -206T606 -231T573 -241Q543 -241 517 -232T459 -199T383 -130T273 -12L446 31ZM309
112Q345 112 367 141T400 234T411 400Q411 442 404 469T381 510T342 524Q308 524 286 495T254 402T243 236Q243 194 250 167T272 126T309 112ZM283 -12Q201 -12 142 19T50 110T18 256Q18 352 41 427T108 553T219 632T372 659Q456 659 515 630T605 542T637 398Q637
302 614 226T546 97T435 16T283 -12Z" />
<glyph unicode="R" horiz-adv-x="661" d="M279 228L271 160Q268 129 270 114T286 95T331 88L335 80L315 -4Q315 -4 296 -4T250 -2T195 -1T153 0Q116 0 77 -2T9 -6T-19 -9L1 83Q37 89 53 107T74 168L117 515Q120 540 116 549T98 559Q87 559 75 558T63 557L55 569L75
648Q75 648 90 648T129 648T176 647T214 647Q232 647 261 648T319 650T368 652T388 653Q472 653 530 635T618 580T648 489Q648 423 613 370T508 276L553 172Q572 129 593 107T635 84L644 68L626 -5L471 -16Q429 -16 407 5T371 75L332 228H279ZM369 344Q387 351
400 361T421 386T434 418T439 458Q439 528 342 528Q332 528 329 524T323 506Q315 460 310 433T303 389T297 354L369 344Z" />
<glyph unicode="S" horiz-adv-x="536" d="M195 -12Q138 -12 93 -1T23 20T-3 31L-13 49Q-13 49 -8 65T4 106T18 160T29 214L156 223Q153 192 159 169T183 134T227 121Q256 121 274 133T292 166Q292 192 262 209T191 246Q156 263 121 285T62 340T39 425Q39 496 79
548T191 630T360 659Q414 659 457 652T527 638T553 631L563 609Q563 609 555 585T536 520T516 435L398 427L387 435Q387 435 388 441T389 454T390 463Q390 492 374 506T328 521Q300 521 283 507T265 472Q265 451 284 436T333 407Q361 394 393 379T454 342T501 291T519
216Q519 145 480 94T369 16T195 -12Z" />
<glyph unicode="T" horiz-adv-x="578" d="M225 526Q207 526 195 520T174 500T158 459T143 390L17 382Q17 382 21 406T31 470T44 555T57 644L72 658L187 647H492L613 658L624 644Q619 600 614 556T605 474T599 413T597 390L472 382Q474 429 474 457T470 500T456
520T428 526Q424 501 419 466T408 391T397 310T387 235T380 175T377 141Q377 114 387 103T420 91Q438 91 454 92T470 94L474 88L454 -6Q454 -6 432 -5T376 -3T309 -1T255 0Q231 0 198 -1T132 -4T77 -7T55 -9L74 83Q104 86 123 91T154 105T172 129T181 168L225 526Z"
/>
<glyph unicode="U" horiz-adv-x="605" d="M251 220Q250 213 250 205T249 192Q248 154 263 135T308 115Q343 115 360 135T384 203Q386 222 390 258T400 336T409 416T417 480T420 505Q424 537 420 548T402 559Q395 559 388 558T381 557L378 561L400 650Q400 650
421 649T471 648T516 647Q547 647 580 647T636 649T659 650L640 560Q609 550 600 542T589 516L554 234Q538 110 469 49T274 -12Q159 -12 103 30T47 159Q47 178 50 199L88 505Q92 539 89 549T68 559Q61 559 51 558T40 557L38 561L59 650Q59 650 86 649T154 648T233
647Q247 647 269 647T313 649T350 650T365 651L344 558Q319 555 307 544T292 509L251 220Z" />
<glyph unicode="V" horiz-adv-x="623" d="M85 493Q81 527 72 542T42 560L36 570L54 649Q54 649 76 649T130 648T188 647Q223 647 256 648T317 649T360 651T376 652L382 643L366 559Q339 556 325 550T305 534T300 507Q300 486 300 453T301 382T303 306T304 237T305
187T306 168H328Q333 182 343 212T368 280T396 360T422 439T441 502T449 537Q449 547 444 552T423 557H399L392 567L410 650Q410 650 435 649T495 648T560 647Q588 647 615 647T661 648T680 648L663 561Q647 556 638 546T617 506L418 4L138 -13Q138 -13 135 16T127
94T116 199T104 314T93 418T85 493Z" />
<glyph unicode="W" horiz-adv-x="971" d="M508 -13L502 272H488L401 4L131 -13Q131 -13 128 16T121 94T111 199T100 314T90 418T83 493Q76 528 68 542T42 560L36 570L55 649Q55 649 76 649T128 648T183 647Q228 647 269 648T337 651T364 652L370 643L353 559Q316
553 302 542T288 508Q288 487 288 454T289 382T290 306T291 237T292 187T293 168H314Q326 202 342 249T374 345T405 437T426 502Q433 528 434 533T435 536T433 529Q435 549 426 554T384 560L378 570L397 649Q397 649 413 649T455 648T507 648T556 647Q601 647 642
648T709 651T736 652L743 643L726 559Q687 555 674 545T660 508Q660 487 660 454T661 382T663 306T664 237T665 187T666 168H687Q698 197 710 233T736 310T762 388T784 459T799 513T805 540Q805 551 801 554T780 557H757L751 567L769 650Q769 650 793 649T851 648T913
647Q940 647 966 647T1010 648T1028 648L1011 561Q994 555 986 544T966 506L778 4L508 -13Z" />
<glyph unicode="X" horiz-adv-x="693" d="M308 -5L302 2L319 86Q333 87 340 92T348 109Q348 119 340 133L294 221L253 158Q248 150 243 142T236 126T233 113Q233 100 241 94T266 88L271 77L256 -4Q256 -4 238 -3T194 -1T144 1T108 2Q93 2 71 1T28 -1T-9 -3T-24
-4L-27 10L-12 90Q3 97 27 117T77 165T124 219L224 346L162 467Q146 499 131 515T98 538T58 551L54 557L74 648Q74 648 86 648T120 648T174 647T246 647Q261 647 289 648T346 650T396 652T416 653L421 642L404 560Q365 560 365 532Q365 513 378 487T410 424Q421
441 433 459T456 494T473 524T480 544Q480 554 473 557T447 561Q446 563 446 564T445 567L461 647Q488 647 513 647T563 647T614 647Q643 647 672 647T721 649T741 650L744 642L728 555Q695 540 672 525T630 492T591 446L484 301L550 179Q576 135 601 115T660 93L644
-1Q644 -1 629 -1T592 0T548 1T512 2Q499 2 474 2T421 0T367 -2T325 -4T308 -5Z" />
<glyph unicode="Y" horiz-adv-x="650" d="M332 533Q332 527 334 515T339 487T347 454T356 419T365 387H379L429 501Q447 534 447 547Q447 555 440 558T413 561L411 567L429 646Q456 646 481 646T532 646T584 646Q610 646 635 647T678 649T695 650L698 642L680
555Q664 546 648 533T615 504T585 469T558 429L448 247Q439 230 434 215T427 186T422 154Q418 119 426 105T463 91Q482 91 497 92T513 94L517 88L497 -6Q497 -6 474 -5T417 -3T348 -1T293 0Q269 0 236 -1T169 -4T114 -7T92 -9L111 83Q153 86 176 93T209 116T222
162L224 178Q227 200 224 219T208 268L128 467Q121 486 109 501T80 529T44 551L40 557L61 648Q61 648 79 648T123 647T173 647T209 646Q226 646 255 647T314 649T365 652T386 653L392 642L373 560Q352 560 342 554T332 533Z" />
<glyph unicode="Z" horiz-adv-x="578" d="M508 -3L89 3L8 -7L-21 51L353 542L282 532Q243 527 224 517T197 484T181 418L53 409Q53 409 58 433T70 494T84 572T97 649L109 660L284 649H609L627 595Q564 520 506 447T398 309T310 193T247 109L346 124Q393 132 418
164T457 266L585 275Q585 275 579 250T563 185T545 101T531 19L508 -3Z" />
<glyph unicode="[" horiz-adv-x="317" d="M18 -116Q18 -116 22 -87T34 -13T50 84T64 183T75 260Q79 290 83 337T93 436T102 535T108 610T111 639L362 650L365 640L347 556L257 539L188 -16L278 -33L281 -44L263 -127L18 -116Z" />
<glyph unicode="\" horiz-adv-x="319" d="M54 675H173L229 226Q236 169 244 112T259 9T271 -66T276 -95L263 -110H137Q137 -110 134 -83T125 -10T112 95T96 215Q90 264 82 322T65 439T50 547T39 625T34 655L54 675Z" />
<glyph unicode="]" horiz-adv-x="317" d="M305 639Q305 639 301 610T289 536T274 439T259 340T248 263Q244 233 240 186T230 87T221 -11T215 -87T212 -116L-39 -127L-42 -117L-23 -33L67 -16L135 539L45 556L42 567L60 650L305 639Z" />
<glyph unicode="^" horiz-adv-x="454" d="M340 476Q340 476 345 457T360 409T378 348T395 290Q404 263 412 238T427 194T437 164T441 152L343 96L323 105Q323 105 316 126T298 181T276 250L242 352H235L187 262Q172 235 157 206T129 152T109 112T101 96L0 130L-9
148Q-9 148 -2 160T18 194T46 243T77 299L173 477L326 484L340 476Z" />
<glyph unicode="_" horiz-adv-x="434" d="M404 -112L377 -218Q334 -218 291 -218T205 -218T119 -218T32 -219T-57 -219L-66 -200L-42 -95Q-11 -95 19 -95T78 -95T136 -95T194 -95Q224 -95 253 -95T312 -95Q359 -95 378 -94T397 -93L404 -112Z" />
<glyph unicode="`" horiz-adv-x="386" d="M29 659L101 760H118Q118 760 134 746T176 707T236 653T305 593L264 532L242 525Q191 556 143 582T63 625T31 642L29 659Z" />
<glyph unicode="a" horiz-adv-x="528" d="M446 154Q450 154 456 158T473 172T498 195L521 191L541 143Q486 82 450 49T386 2T329 -12Q304 -12 291 0T278 36Q278 47 284 74T303 158H293Q252 88 222 49T160 -12Q89 -12 49 29T9 145Q9 204 31 262T90 367T172 443T263
472L335 452L340 472L359 484L493 472L501 449Q488 391 477 337T457 237T442 157L446 154ZM206 143Q214 143 227 160T254 206T283 270T307 341Q287 354 268 360T233 367Q224 367 215 343T199 282T192 209Q192 181 196 162T206 143Z" />
<glyph unicode="b" horiz-adv-x="525" d="M16 74Q33 172 48 265T75 435T94 559T101 615Q101 648 68 648H40L52 730Q78 730 115 731T196 736T279 742L295 722Q283 661 271 602T249 488T229 386T214 302H224Q251 350 272 382T313 436T354 472Q430 472 471 429T513
307Q513 243 491 186T431 84T343 14T238 -12Q200 -12 160 -5T86 17T30 48L16 74ZM320 334Q311 334 298 317T270 270T242 206T219 136Q233 125 248 118T276 110Q292 110 305 130T325 186T333 266Q333 287 332 302T327 325T320 334Z" />
<glyph unicode="c" horiz-adv-x="393" d="M253 363Q234 363 220 343T197 287T188 206Q188 168 200 148T236 128Q256 128 275 147T311 202L332 199L384 141Q368 99 334 65T258 9T175 -12Q101 -12 57 36T13 167Q13 232 35 289T96 390T185 458T294 483Q324 483 353
477T403 459L407 441L356 312L313 311Q288 363 253 363Z" />
<glyph unicode="d" horiz-adv-x="529" d="M446 154Q449 154 451 155T463 164T498 195L521 191L541 143Q486 82 450 49T386 2T329 -12Q278 -12 278 36Q278 40 278 45T280 60T285 81T292 113T303 158H293Q254 90 223 51T160 -12Q89 -12 49 29T9 145Q9 204 31 262T90
367T172 443T263 472L330 453L352 605Q355 629 348 638T320 648H292L304 730Q338 730 377 732T452 736T509 740T531 742L547 722Q547 722 542 694T527 617T507 508T484 385T461 262T442 157L446 154ZM206 143Q217 143 235 172T273 247T307 341Q307 341 296 347T268
360T233 367Q224 367 215 343T199 282T192 208Q192 179 196 161T206 143Z" />
<glyph unicode="e" horiz-adv-x="429" d="M434 371Q434 325 409 291T330 230T185 175Q189 151 202 139T240 126Q266 126 288 143T331 197L353 194L405 136Q388 95 352 61T271 8T178 -12Q104 -12 59 38T14 173Q14 237 36 293T97 392T187 459T296 483Q360 483 397
453T434 371ZM259 363Q241 363 227 351T203 316T188 257Q235 275 259 296T284 340Q284 363 259 363Z" />
<glyph unicode="f" horiz-adv-x="326" d="M6 384L14 450L102 463L107 511Q112 554 139 595T209 669T301 722T399 742Q428 742 459 738T510 727L514 716L455 585L435 582Q404 606 385 615T347 625Q315 625 300 607T278 541L269 461H394L401 454L389 379L267 380L259
375L218 -6Q214 -48 190 -90T131 -166T55 -221T-24 -242Q-72 -242 -110 -224T-158 -180Q-152 -160 -140 -135T-114 -86T-88 -48H-68Q-64 -91 -48 -109T4 -127Q33 -127 51 -107T69 -46Q69 -32 69 -16T69 8L94 369L83 379H9L6 384Z" />
<glyph unicode="g" horiz-adv-x="501" d="M121 -242Q60 -242 14 -224T-55 -172T-74 -95L-70 -82Q-54 -73 -27 -60T31 -31T87 -5L88 2Q52 18 33 55T13 144Q13 203 35 261T94 368T176 444T267 473L339 452L344 473L364 484L497 473L512 445Q504 425 495 395T480
335T471 281Q470 269 468 239T463 171T457 96T451 35Q447 2 424 -36T364 -110T286 -176T200 -224T121 -242ZM178 -117Q229 -117 260 -87T299 0L320 174L310 177Q268 112 243 76T201 21T168 -8Q151 -19 132 -33T100 -58T87 -72Q87 -84 99 -94T132 -111T178 -117ZM211
143Q222 143 240 172T278 248T311 342Q311 342 300 348T273 361T238 367Q228 367 218 343T202 283T195 209Q195 179 199 161T211 143Z" />
<glyph unicode="h" horiz-adv-x="524" d="M441 157Q444 157 448 159T462 171T493 198L517 194L536 146Q484 87 448 53T383 5T326 -9Q260 -9 260 50Q260 63 266 87T281 142T300 202T315 256T321 291Q321 305 317 312T303 319Q292 319 274 292T234 216T190 104L183
45Q181 31 160 19T106 0T35 -7L15 16Q15 16 19 44T31 118T48 222T66 339T84 453T99 547T109 605Q112 629 105 638T77 648H49L61 730Q95 730 134 732T208 736T266 740T289 742L304 721Q304 721 299 696T284 626T265 528T243 415T223 302L230 303Q262 376 291 421T348
485Q418 485 457 457T497 378Q497 363 489 333T471 269T451 206T438 160L441 157Z" />
<glyph unicode="i" horiz-adv-x="304" d="M216 154Q221 154 228 160T268 195L291 191L311 143Q260 85 224 51T158 3T101 -12Q35 -12 35 55Q50 144 60 206T75 303T80 346Q80 363 72 371T47 379H19L31 461Q56 461 92 462T171 467T254 473L270 453Q259 411 248 359T228
254T212 157L216 154ZM429 779Q389 779 368 800T346 859Q346 913 377 945T461 978Q501 978 522 957T543 897Q543 844 512 812T429 779Z" />
<glyph unicode="j" horiz-adv-x="300" d="M208 14Q202 -37 172 -86T92 -177T-22 -248L-64 -205L-60 -190Q-24 -162 -3 -134T31 -66T50 33Q50 33 53 53T62 107T74 179T86 252T95 313T99 346Q99 379 66 379H38L50 461Q83 461 121 463T194 467T251 471T273 473L289
453Q289 453 285 436T274 383T256 295T233 172T208 14ZM201 547Q163 547 143 567T123 625Q123 680 155 711T239 742Q276 742 295 723T315 667Q315 612 284 580T201 547Z" />
<glyph unicode="k" horiz-adv-x="507" d="M242 197L252 216Q252 216 263 221T290 236T317 262T329 297Q329 309 325 314T310 319Q298 319 278 292T235 216T187 104L180 45Q178 31 157 19T103 0T32 -7L12 16Q12 16 17 46T30 128T49 240T70 365T88 482T102 572T107
615Q107 648 74 648H46L58 730Q92 730 131 732T205 736T263 740T286 742L301 721Q301 721 296 696T281 626T262 528T240 415T220 302L227 303Q258 374 287 420T345 485Q419 485 461 456T503 374Q503 328 475 283T391 197Q402 173 416 144T443 89T464 47T473 30L469
9L307 -13L294 -6L242 197Z" />
<glyph unicode="l" horiz-adv-x="291" d="M203 154Q208 154 215 160T255 195L278 191L298 143Q245 83 209 49T144 2T88 -12Q22 -12 22 55Q22 62 27 95T39 176T56 281T75 394T92 499T105 578T110 615Q110 648 77 648H49L61 730Q95 730 134 732T209 736T266 740T288
742L304 722Q304 722 298 692T282 610T259 496T236 371T214 251T199 157L203 154Z" />
<glyph unicode="m" horiz-adv-x="795" d="M712 157Q715 157 719 160T733 172T764 198L788 194L807 146Q754 87 718 53T653 5T597 -9Q531 -9 531 50Q531 63 537 87T552 142T571 202T586 256T592 291Q592 305 588 312T574 319Q562 319 541 290T495 209T445 93L440
45Q439 31 418 19T363 0T292 -7L272 16Q272 16 276 33T288 80T304 142T319 206T331 262T336 296Q336 309 332 314T317 319Q306 319 288 292T248 216T204 104L197 45Q195 31 174 19T120 0T49 -7L29 16Q29 16 32 35T40 85T52 154T63 227T74 293T81 336Q84 360 77
369T49 379H21L33 461Q66 461 104 463T177 467T234 471T256 473L270 452Q270 452 267 439T258 405T247 356T237 302L244 303Q275 374 304 420T362 485Q430 485 469 457T508 379Q508 370 506 357T501 332T496 311T494 302L501 303Q532 374 561 420T619 485Q689 485
728 457T768 378Q768 363 760 333T742 269T722 206T709 160L712 157Z" />
<glyph unicode="n" horiz-adv-x="545" d="M342 -9Q277 -9 277 50Q277 63 283 87T298 142T315 202T330 256T336 291Q336 305 332 312T320 319Q309 319 290 288T249 203T204 79L230 300L253 303Q283 375 311 421T365 485Q434 485 473 457T512 378Q512 363 505 333T487
269T467 206T455 160L458 157Q461 157 466 160T481 173T508 198L532 194L550 146Q497 86 461 53T398 5T342 -9ZM58 -7L38 16Q45 58 52 107T67 202T80 284T89 336Q93 359 86 369T59 379H32L44 461Q81 461 142 464T264 473L277 452Q271 431 265 401T253 341T244 288L214
120L205 45Q203 31 183 19T129 0T58 -7Z" />
<glyph unicode="o" horiz-adv-x="486" d="M198 -12Q113 -12 66 39T19 184Q19 252 38 307T92 401T178 462T289 484Q376 484 422 436T468 295Q468 226 449 170T395 73T309 10T198 -12ZM237 95Q256 95 267 109T283 159T288 259Q288 315 280 339T250 364Q231 364 220
350T203 304T198 215Q198 148 206 122T237 95Z" />
<glyph unicode="p" horiz-adv-x="574" d="M-29 -155Q-1 -151 11 -138T31 -89Q37 -63 44 -25T58 59T73 150T86 236T95 306T99 346Q99 363 91 371T66 379H38L50 461Q75 461 111 462T190 467T273 473L289 454Q270 391 255 314H264Q285 354 306 386T348 442T392 484Q468
484 510 443T553 326Q553 267 531 209T472 104T390 29T299 0L202 20L186 -96Q182 -125 191 -135T228 -145H274L275 -151L259 -230Q221 -230 169 -231T61 -233T-45 -237L-29 -155ZM359 347Q348 347 329 318T291 243T257 149Q274 138 294 131T331 123Q341 123 350
147T365 209T372 283Q372 301 370 315T366 338T359 347Z" />
<glyph unicode="q" horiz-adv-x="506" d="M279 47L301 155H291Q252 87 222 49T160 -12Q89 -12 49 29T9 145Q9 204 31 262T90 367T172 443T263 472L335 452L348 500L368 512L500 498L507 475Q507 475 502 449T487 377T467 277T445 162T425 48T411 -50T405 -118Q405
-134 409 -140T427 -146L453 -145L456 -149L439 -230Q343 -230 279 -233T182 -239T150 -242L166 -160Q198 -158 215 -153T240 -135T252 -97L279 47ZM206 143Q217 143 235 172T273 247T307 341Q307 341 296 347T268 360T233 367Q224 367 215 343T199 282T192 208Q192
179 196 161T206 143Z" />
<glyph unicode="r" horiz-adv-x="416" d="M29 16Q29 16 33 37T43 93T55 167T68 245T78 311T82 349Q82 363 74 371T49 379H21L33 461Q66 461 104 463T177 467T234 471T256 473L270 452Q270 452 265 433T254 384T242 322L249 323Q272 371 297 406T350 462T408 482Q416
478 425 469T438 450Q435 422 427 383T410 305T393 242T386 217H315Q322 253 319 267T304 282Q286 282 260 239T206 120L197 45Q195 31 174 19T120 0T49 -7L29 16Z" />
<glyph unicode="s" horiz-adv-x="402" d="M80 178Q83 148 107 127T162 106Q182 106 192 112T202 131Q202 148 183 158T137 181Q115 192 93 206T57 243T42 301Q42 354 71 395T151 460T266 484Q310 484 350 473T416 442Q400 402 384 370T353 314H328Q318 336 302
348T268 361Q254 361 244 353T234 333Q234 323 242 316T264 301Q281 292 303 282T345 258T378 222T391 168Q391 116 360 76T276 12T153 -12Q93 -12 48 6T-7 53Q-4 72 5 95T27 142T53 180L80 178Z" />
<glyph unicode="t" horiz-adv-x="331" d="M313 191L334 141Q302 95 271 61T216 7T176 -12Q106 -12 72 23T44 123L88 371L79 379H25L22 384L30 450L102 461Q106 487 109 512T114 555T116 572L284 607L298 595Q298 595 293 576T281 526T267 461H362L369 454L357
379L263 380L250 372L215 180Q212 150 233 150Q243 150 256 160T291 195L313 191Z" />
<glyph unicode="u" horiz-adv-x="531" d="M174 -9Q108 -9 72 19T35 98Q35 113 41 138T55 193T72 252T86 307T92 346Q92 379 59 379H31L43 461Q67 461 101 462T178 467T266 473L282 453Q260 377 244 319T218 224T209 179Q209 168 211 163T222 157Q234 157 254 189T300
283T359 435L318 169L293 175Q262 104 233 58T174 -9ZM323 -12Q272 -12 272 36Q272 42 273 50T279 77T291 129T313 221L324 297L345 462L365 474L512 473L527 453Q514 412 501 363T476 266T457 178L461 174Q466 177 471 180T481 187T492 195L515 191L535 143Q480
82 444 49T380 2T323 -12Z" />
<glyph unicode="v" horiz-adv-x="482" d="M116 -12L98 8Q94 66 87 130T73 253T57 352Q54 369 48 375T31 382Q25 382 18 382T5 382T-1 381L5 460Q37 463 73 466T140 471T192 475T213 476L224 467Q230 404 233 318T237 145H254Q285 223 299 269T313 340Q313 356
307 369T290 392T261 409L272 457L460 484Q473 469 480 443T487 385Q487 328 440 236T289 0L116 -12Z" />
<glyph unicode="w" horiz-adv-x="725" d="M254 145Q276 202 290 242T313 312L290 433L300 452L452 484Q465 469 472 444T480 391Q480 376 478 364T468 326L480 145H497Q529 226 542 271T556 340Q556 363 543 381T504 409L515 457L703 484Q715 469 722 441T730
382Q730 327 683 235T532 0L389 -12L371 8L359 143H348Q332 105 313 66T279 0L116 -12L98 8Q94 64 87 127T73 250T57 352Q54 369 48 375T31 382Q24 382 15 382T-1 381L5 460Q39 464 95 468T213 476L224 467Q230 404 233 318T237 145H254Z" />
<glyph unicode="x" horiz-adv-x="502" d="M436 484Q484 484 526 445Q510 403 493 366T459 296H433Q426 325 417 338T391 351Q373 351 358 333T326 273Q343 213 354 180T375 134T395 120Q401 120 407 123T422 134T445 156H456L482 99Q442 58 412 34T355 -1T300
-12Q275 -12 258 -2T228 36T198 114Q166 46 136 17T66 -12Q41 -12 18 -2T-25 27Q-11 64 6 101T42 176H68Q74 148 84 135T110 121Q128 121 143 139T174 199Q157 260 145 293T124 339T105 352Q97 352 85 344T56 316H45L19 373Q78 434 119 459T200 484Q225 484 242
474T272 436T302 358Q334 425 365 454T436 484Z" />
<glyph unicode="y" horiz-adv-x="479" d="M271 457L459 484Q471 469 477 444T484 386Q484 325 436 230T289 0Q195 -128 124 -185T-14 -242Q-53 -242 -84 -225T-124 -182Q-114 -150 -99 -120T-59 -61L-44 -60Q-15 -95 8 -106T58 -106T119 -56Q107 43 96 126T75
269T60 352Q56 369 50 375T30 382Q25 382 17 382T4 381L10 460L216 476L227 467Q230 418 231 340T234 133H248Q266 174 280 214T302 287T311 340Q311 390 260 409L271 457Z" />
<glyph unicode="z" horiz-adv-x="454" d="M37 257Q37 257 41 276T53 327T68 397T82 473L125 484Q125 484 139 481T175 474T224 466T275 458T318 455Q345 455 358 460T385 479L411 508L479 444L483 424Q436 379 389 333T296 241T207 149L229 152Q245 152 275 149T324
145Q348 145 366 168T388 230H419Q427 217 432 189T437 133Q437 92 419 59T371 7T301 -12Q271 -12 243 -1T187 21T131 32Q104 32 70 22T10 -6L-18 39L249 330L208 331Q165 331 144 316T110 262L37 257Z" />
<glyph unicode="{" horiz-adv-x="326" d="M53 311Q88 322 107 340T126 382Q126 402 118 428T102 481T93 533Q93 570 117 598T184 643T280 659Q301 659 321 656T354 650T368 647L376 631L348 548Q348 548 337 550T315 553Q290 553 275 538T260 495Q260 473 266
441T272 385Q272 362 263 343T235 311T190 290L189 285Q220 275 235 255T250 206Q250 188 243 166T227 121T211 77T204 40Q204 18 216 5T251 -9Q262 -9 271 -7T281 -4L292 -17L268 -100Q268 -100 240 -111T158 -123Q100 -123 63 -93T25 -17Q25 7 36 32T62 83T88
130T100 170Q100 193 85 209T39 235L53 311Z" />
<glyph unicode="|" horiz-adv-x="280" d="M276 791Q276 791 273 766T263 699T250 603T236 494T221 386T209 291Q204 248 197 191T183 73T168 -48T156 -154T147 -230T143 -258L25 -269L12 -253Q12 -253 15 -227T23 -156T36 -56T50 59T65 175T78 276L143 796L257
807L276 791Z" />
<glyph unicode="}" horiz-adv-x="326" d="M283 235Q250 227 230 208T210 164Q210 145 218 119T234 65T242 13Q242 -27 218 -57T151 -105T54 -123Q34 -123 14 -120T-20 -114T-34 -111L-42 -95L-14 -12Q-14 -12 -3 -14T19 -17Q45 -17 59 -1T74 43Q74 66 69 100T63
159Q63 183 73 202T101 235T145 256L146 261Q115 272 100 292T85 340Q85 357 92 378T107 420T123 461T130 496Q130 519 118 532T83 545Q72 545 63 543T53 540L42 553L66 636Q66 636 94 647T176 659Q234 659 271 629T309 553Q309 531 298 507T273 458T247 413T236
376Q236 351 251 334T296 311L283 235Z" />
<glyph unicode="~" horiz-adv-x="490" d="M46 151L4 207L6 223L126 338L148 342Q165 342 191 337T245 325T299 313T339 308Q350 308 366 317T397 337T423 357T433 366H449L491 310L489 294L369 179L347 175Q331 175 305 180T250 192T196 204T156 209Q145 209 129
200T98 180T72 160T62 151H46Z" />
<glyph unicode="&#xa0;" horiz-adv-x="127" />
<glyph unicode="&#xa1;" horiz-adv-x="275" d="M177 484Q218 484 239 463T260 404Q260 350 229 318T145 285Q105 285 84 306T63 366Q63 419 94 451T177 484ZM183 -192L162 -216L-29 -242L-51 -216L74 214L180 230L198 210L183 -192Z" />
<glyph unicode="&#xa2;" horiz-adv-x="416" d="M243 64L190 -151L73 -164L66 -158L118 53L243 64ZM118 53L207 415L332 425L243 64L118 53ZM207 415L263 644L382 658L387 649L332 425L207 415ZM248 363Q229 363 215 343T192 287T183 206Q183 168 195 148T231 128Q251
128 270 147T306 202L327 199L379 141Q363 99 329 65T253 9T170 -12Q96 -12 52 36T8 167Q8 232 30 289T91 390T180 458T289 483Q319 483 348 477T398 459L402 441L351 312L308 311Q283 363 248 363Z" />
<glyph unicode="&#xa3;" horiz-adv-x="500" d="M464 216Q473 203 478 177T483 125Q483 64 444 26T349 -12Q319 -12 289 1T228 28T167 42Q103 42 26 -1L12 5L-2 96Q80 138 87 201L92 235Q93 258 81 265T31 275L28 281L45 351L107 360L110 387Q115 426 142 463T210
531T300 580T396 598Q430 598 463 594T514 583L518 572L459 441L440 438Q403 462 380 471T334 481Q309 481 298 467T282 417L273 360Q311 360 341 361T389 362T407 363L411 356L390 271Q390 271 374 272T328 273T260 274L254 236Q251 211 240 184T216 144L276 158Q286
158 304 154T341 146T373 141Q396 141 412 161T433 216H464Z" />
<glyph unicode="&#xa4;" horiz-adv-x="486" d="M88 322Q88 344 93 365T108 407Q83 433 61 456T39 479L46 502L161 579Q175 560 188 541T215 502Q230 508 246 511T279 515Q296 515 311 512T340 502Q359 522 376 540T404 569T416 581L439 577L503 472L423 408Q428
385 428 360Q428 337 422 316T405 274Q431 249 451 228T472 207L465 184L351 107L297 181Q267 170 237 170Q220 170 204 173T173 184Q154 164 137 146T108 117T96 105L73 109L8 214Q31 231 51 247T92 280Q90 289 89 300T88 322ZM187 334Q187 306 204 287T249 268Q270
268 288 279T318 309T330 350Q330 378 312 397T267 417Q246 417 228 406T199 376T187 334Z" />
<glyph unicode="&#xa5;" horiz-adv-x="613" d="M307 413Q307 406 311 392T321 359L335 312H343L386 410Q388 413 388 416T389 423Q389 428 386 431T369 435L364 444L376 502Q402 502 424 502T467 503T510 503Q532 503 553 504T589 505T604 506L608 500L591 425Q571
414 557 405T532 384T512 357L507 348L577 350L584 340L567 254H442L423 223Q420 219 418 216T412 208Q450 209 483 209T536 210T557 211L564 201L547 115H377Q377 115 377 114T377 110T377 106Q377 91 387 84T415 77Q431 77 444 78T457 80L461 75L445 -5Q445 -5
425 -4T376 -3T317 -1T270 0Q250 0 221 -1T162 -3T114 -6T94 -7L110 71Q139 73 156 77T184 90T198 115Q157 115 121 115T63 114T41 114L32 122L54 207H195Q193 212 191 217T187 227L177 254Q128 253 95 253T61 253L52 261L74 346H131Q128 352 117 362T90 384T64
407T52 427Q54 437 56 446T61 466Q63 476 65 485T70 505Q70 505 89 505T133 504T178 503Q174 503 188 503T228 504T279 505T325 507T348 509L352 499L336 429Q318 429 313 425T307 413Z" />
<glyph unicode="&#xa6;" horiz-adv-x="280" d="M175 167L191 150Q184 94 177 36T164 -74T153 -168T145 -234T142 -258L24 -269L12 -253Q12 -253 16 -217T28 -121T44 10T62 150L175 167ZM101 358L89 369Q103 476 116 583T143 796L257 807L276 791Q276 791 273 765T263
695T249 596T234 484T219 374L101 358Z" />
<glyph unicode="&#xa7;" horiz-adv-x="470" d="M388 67Q384 33 364 4T311 -48T239 -82T152 -95Q115 -95 82 -85T28 -57T7 -21Q7 -1 14 21T33 65T63 107L90 105Q91 71 114 47T168 23Q183 23 191 30T199 50Q199 69 181 83T137 110T85 141T40 184T22 248Q22 295 56
335T154 406L218 366Q201 351 193 338T185 307Q185 283 200 265T240 231T292 201T343 168T379 126T388 67ZM267 198Q294 224 294 253Q294 282 275 303T226 341T168 378T120 424T100 488Q100 536 129 575T210 636T323 659Q360 659 391 652T442 634T462 610Q462 598
456 579T441 539T422 502T404 479H379Q374 504 359 520T325 536Q312 536 302 528T292 508Q292 492 309 478T351 448T402 413T445 367T462 304Q462 276 448 249T407 199T338 154L267 198Z" />
<glyph unicode="&#xa8;" horiz-adv-x="386" d="M324 549Q289 549 271 566T253 616Q253 661 280 688T350 716Q384 716 402 698T420 648Q420 604 394 577T324 549ZM135 549Q101 549 83 566T65 616Q65 661 92 688T162 716Q196 716 214 698T232 648Q232 604 206 577T135 549Z" />
<glyph unicode="&#xa9;" horiz-adv-x="678" d="M48 261Q48 330 75 391T149 498T257 571T383 598Q458 598 517 561T610 462T644 324Q644 255 617 195T542 88T435 15T308 -12Q233 -12 174 24T82 123T48 261ZM108 267Q108 206 135 156T208 77T315 47Q368 47 416 68T502
127T562 214T584 319Q584 381 557 430T483 509T376 539Q323 539 275 518T190 459T130 372T108 267ZM315 133Q249 133 214 167T178 268Q178 333 199 376T262 441T369 463Q390 463 418 460T467 453T488 450L492 438Q492 438 483 407T464 329L374 324Q374 324 377
340T380 362Q380 388 350 388Q325 388 316 363T307 276Q307 237 313 224T336 210Q353 210 360 220T374 263L462 269Q462 269 459 252T451 210T444 159L436 151Q436 151 420 147T377 138T315 133Z" />
<glyph unicode="&#xaa;" horiz-adv-x="390" d="M321 439Q323 439 330 444T354 465L371 462L385 427Q346 384 320 361T275 328T233 319Q197 319 197 354Q197 357 197 360T199 370T203 390T212 427H205Q178 381 158 357T118 319Q66 319 37 347T7 427Q7 466 22 504T63
574T120 625T184 644L231 631L234 644L249 653L350 645L356 628Q356 628 352 611T342 565T330 504T318 441L321 439ZM152 430Q159 430 170 448T193 495T212 553Q199 561 187 565T164 569Q160 569 155 554T147 517T143 471Q143 452 145 441T152 430Z" />
<glyph unicode="&#xab;" horiz-adv-x="464" d="M442 387L447 364Q437 351 428 336T410 307T393 279T377 253T365 232Q368 223 372 212T381 187T391 159T402 130T414 101L404 78L338 42Q321 67 303 92T269 140T239 181T217 209T209 219L212 246Q212 246 219 253T240
273T269 303T305 339T345 380T384 422L442 387ZM240 387L245 364Q235 351 226 336T208 307T191 279T175 253T163 232Q166 223 170 212T179 187T189 159T200 130T212 101L202 78L136 42Q119 67 101 92T67 140T37 181T15 209T7 219L10 246Q10 246 17 253T38 273T67
303T103 339T143 380T182 422L240 387Z" />
<glyph unicode="&#xac;" horiz-adv-x="491" d="M460 344Q460 344 454 321T440 256T425 164Q421 129 417 98T411 48T409 29L271 11L260 20Q260 20 262 35T267 77T274 137T284 207H239Q206 207 168 207T97 207T42 206T20 206L12 219L47 354Q47 354 69 354T125 354T198
353T268 353Q293 353 324 354T386 356T435 358T455 359L460 344Z" />
<glyph unicode="&#xad;" horiz-adv-x="314" d="M291 310L265 202L37 176L27 194L50 300L199 317Q247 322 264 325T282 328L291 310Z" />
<glyph unicode="&#xae;" horiz-adv-x="454" d="M61 486Q61 548 92 599T175 680T285 711Q336 711 375 687T437 621T460 528Q460 467 429 416T346 334T235 303Q185 303 146 327T84 393T61 486ZM102 490Q102 450 120 417T169 365T240 345Q287 345 327 369T393 435T418
524Q418 564 400 597T351 649T280 669Q234 669 193 645T127 580T102 490ZM158 441Q168 443 173 449T180 468L193 571Q195 582 194 585T188 589Q184 589 181 589T177 588L174 590L180 615Q191 615 201 615T222 615H232Q239 615 252 615T273 617Q314 617 334 605T355
567Q355 546 345 530T312 501L327 469Q331 459 338 451T352 441L354 438Q352 429 352 424T346 417T312 412Q292 412 284 416T270 439L258 486H242Q241 481 240 470T238 457Q238 448 242 446T259 443Q259 442 259 442T259 441L253 415Q253 415 235 416T207 417H196Q183
416 168 415T152 414L158 441ZM256 571Q254 558 252 547T247 524Q250 524 257 524T270 523Q281 526 286 535T291 557Q291 568 284 573T262 579Q257 579 256 571Z" />
<glyph unicode="&#xaf;" horiz-adv-x="386" d="M402 675L370 566L234 565Q206 565 176 565T126 565T105 564L91 579L123 688Q123 688 148 688T209 688T272 687Q297 687 325 688T373 691T393 693L402 675Z" />
<glyph unicode="&#xb0;" horiz-adv-x="293" d="M49 510Q49 551 70 585T125 639T198 659Q249 659 281 624T314 538Q314 497 293 463T239 409T165 389Q115 389 82 424T49 510ZM124 516Q124 493 137 479T174 464Q202 464 220 483T239 531Q239 554 226 569T189 584Q161
584 143 565T124 516Z" />
<glyph unicode="&#xb1;" horiz-adv-x="491" d="M353 508Q353 508 351 494T344 455T336 402T327 345Q355 346 382 347T433 349T469 350T483 351L488 336L458 200Q421 200 384 200T309 199Q305 163 301 131T295 79T293 58L160 40L148 49Q148 49 151 70T158 126T168
199Q131 199 97 199T41 198T19 198L11 211L46 346Q46 346 66 346T118 346T186 345Q191 384 196 423T206 502L339 515L353 508ZM428 -17L401 -123Q361 -123 321 -123T241 -123T161 -123T80 -124T-3 -124L-11 -105L12 0Q41 0 68 0T122 0T175 0T228 0Q255 0 282 0T335
0Q382 0 401 1T420 2L428 -17Z" />
<glyph unicode="&#xb2;" horiz-adv-x="369" d="M0 396L104 493Q136 525 152 548T169 585Q169 610 141 610Q124 610 104 600T61 566H47L39 652Q74 687 116 707T197 728Q252 728 285 703T318 636Q318 605 305 575T261 510T175 425L178 419H204Q227 419 240 432T260
480L347 486Q347 486 343 471T333 432T321 382T311 332L297 319Q297 319 272 320T209 323T133 326T67 327L-2 323L0 396Z" />
<glyph unicode="&#xb3;" horiz-adv-x="322" d="M15 431Q27 425 42 422T77 418Q106 418 123 428T141 455Q141 481 77 481L68 492V558L113 566Q133 574 143 586T154 614Q154 623 148 628T130 634Q117 634 100 628T59 607H48L34 681Q58 696 85 706T139 722T184 728Q234
728 262 708T291 654Q291 621 268 595T205 558V550Q249 534 269 512T290 460Q290 432 270 407T217 362T141 331T55 319Q18 319 6 340T-4 414L15 431Z" />
<glyph unicode="&#xb4;" horiz-adv-x="386" d="M344 642Q344 642 313 626T233 583T133 525L111 532L70 593Q105 623 138 653T198 707T241 745T257 760H274L346 659L344 642Z" />
<glyph unicode="&#xb5;" horiz-adv-x="558" d="M234 -4Q214 3 204 12T177 41L86 -1L172 232Q201 190 220 190Q235 190 252 203T294 246T352 324Q355 365 359 397T370 455L389 477Q430 473 466 466T540 446Q489 336 449 261T368 126L348 132Q329 98 306 67T263
16T234 -4ZM12 -237L-4 -226L113 289L97 150Q90 236 92 315T108 470L131 483H144L279 457L164 63Q163 6 166 -61T176 -220Q133 -230 92 -234T12 -237ZM438 -6Q389 -6 372 21T361 115L370 211L437 292L426 220Q417 162 443 151T532 176L548 160Q514 60 438 -6Z"
/>
<glyph unicode="&#xb6;" horiz-adv-x="557" d="M346 545Q348 554 343 557T321 560Q297 560 280 536T254 470T245 376Q245 336 254 301T283 232L279 197Q200 197 143 222T55 292T24 398Q24 471 60 528T156 618T292 652Q330 652 373 650T450 647Q461 647 487 647T541
648T590 649T611 650L595 566L592 562Q565 555 558 547T545 516Q542 503 537 475T526 409T513 332T502 254T493 190Q486 135 457 84T382 -7T284 -71T177 -94Q141 -94 112 -81T64 -47T46 -1Q46 17 55 41T78 91T108 135H125Q125 78 147 45T206 12Q233 12 250 21T278
51T292 106L346 545Z" />
<glyph unicode="&#xb7;" horiz-adv-x="231" d="M101 154Q61 154 40 175T19 234Q19 288 50 320T134 353Q173 353 194 332T215 272Q215 219 184 187T101 154Z" />
<glyph unicode="&#xb8;" horiz-adv-x="391" d="M131 36H193L170 -37Q189 -46 211 -61T249 -96T266 -138Q266 -166 244 -190T186 -228T105 -243Q77 -243 50 -230T23 -192Q23 -183 33 -170T57 -143T84 -118H92Q90 -146 101 -160T132 -174Q146 -174 154 -168T163
-150Q163 -135 138 -118T86 -87L131 36Z" />
<glyph unicode="&#xb9;" horiz-adv-x="276" d="M228 649Q226 643 222 621T212 570T203 510T195 455T192 422Q192 390 212 390Q224 390 232 390T241 391L243 387L225 323Q225 323 206 324T163 326T119 327Q93 327 62 326T8 322T-14 320L-1 378Q31 381 46 392T64
422L86 606Q89 629 85 636T61 644Q51 644 40 644T29 643L23 650L36 703Q62 705 84 708T127 713Q159 716 187 719T234 725T253 728L262 696Q251 689 243 678T228 649Z" />
<glyph unicode="&#xba;" horiz-adv-x="362" d="M145 319Q83 319 49 354T15 454Q15 515 38 559T103 628T204 653Q267 653 300 620T334 522Q334 460 311 415T245 344T145 319ZM170 395Q187 395 193 420T200 503Q200 541 196 554T177 567Q163 567 155 538T147 459Q147
425 152 410T170 395Z" />
<glyph unicode="&#xbb;" horiz-adv-x="464" d="M223 77L219 100Q228 113 237 128T256 157T273 185T288 211T300 232Q297 241 293 252T284 277T274 305T263 334T251 363L261 386L327 422Q344 397 362 372T397 324T427 283T448 255T456 245L453 218Q453 218 446
211T426 191T396 161T360 125T320 84T281 42L223 77ZM21 77L17 100Q26 113 35 128T54 157T71 185T86 211T98 232Q95 241 91 252T82 277T72 305T61 334T49 363L59 386L125 422Q142 397 160 372T195 324T225 283T246 255T254 245L251 218Q251 218 244 211T224 191T194
161T158 125T118 84T79 42L21 77Z" />
<glyph unicode="&#xbc;" horiz-adv-x="820" d="M228 576Q226 570 222 548T212 497T203 437T195 382T192 349Q192 317 212 317Q224 317 232 317T241 318L243 314L225 250Q225 250 206 251T163 253T119 254Q93 254 62 253T8 249T-14 247L-1 305Q31 308 46 319T64
349L86 533Q89 556 85 563T61 571Q51 571 40 571T29 570L23 577L36 630Q62 632 84 635T127 640Q159 643 187 646T234 652T253 655L262 623Q251 616 243 605T228 576ZM626 623Q626 623 607 594T557 517T490 413T419 303T356 207Q329 164 302 122T251 41T208 -27T178
-74T167 -91L74 -56L68 -39Q68 -39 80 -22T112 26T158 93T210 172T262 253L529 679L616 647L626 623ZM464 157L658 399L664 401L770 392L743 169H786L793 159L775 78L733 79Q730 50 729 29T727 8L719 0L597 -8L590 0Q590 0 592 12T598 43T604 83L455 85L464 157ZM562
169H616L626 250H618L562 169Z" />
<glyph unicode="&#xbd;" horiz-adv-x="832" d="M228 576Q226 570 222 548T212 497T203 437T195 382T192 349Q192 317 212 317Q224 317 232 317T241 318L243 314L225 250Q225 250 206 251T163 253T119 254Q93 254 62 253T8 249T-14 247L-1 305Q31 308 46 319T64
349L86 533Q89 556 85 563T61 571Q51 571 40 571T29 570L23 577L36 630Q62 632 84 635T127 640Q159 643 187 646T234 652T253 655L262 623Q251 616 243 605T228 576ZM626 623Q626 623 607 594T557 517T490 413T419 303T356 207Q329 164 302 122T251 41T208 -27T178
-74T167 -91L74 -56L68 -39Q68 -39 80 -22T112 26T158 93T210 172T262 253L529 679L616 647L626 623ZM463 69L567 166Q599 198 615 221T632 258Q632 283 604 283Q587 283 567 273T524 239H510L502 325Q537 360 579 380T660 401Q715 401 748 376T781 309Q781 278
768 248T724 183T638 98L641 92H667Q690 92 703 105T723 153L810 159Q810 159 806 144T796 105T784 55T774 5L760 -8Q760 -8 735 -7T672 -4T596 -1T530 0L461 -4L463 69Z" />
<glyph unicode="&#xbe;" horiz-adv-x="866" d="M15 358Q27 352 42 349T77 345Q106 345 123 355T141 382Q141 408 77 408L68 419V485L113 493Q133 501 143 513T154 541Q154 550 148 555T130 561Q117 561 100 555T59 534H48L34 608Q58 623 85 633T139 649T184 655Q234
655 262 635T291 581Q291 548 268 522T205 485V477Q249 461 269 439T290 387Q290 359 270 334T217 289T141 258T55 246Q18 246 6 267T-4 341L15 358ZM672 623Q672 623 653 594T603 517T536 413T465 303T402 207Q375 164 348 122T297 41T254 -27T224 -74T213 -91L120
-56L114 -39Q114 -39 126 -22T158 26T204 93T256 172T308 253L575 679L662 647L672 623ZM510 157L704 399L710 401L816 392L789 169H832L839 159L821 78L779 79Q776 50 775 29T773 8L765 0L643 -8L636 0Q636 0 638 12T644 43T650 83L501 85L510 157ZM608 169H662L672
250H664L608 169Z" />
<glyph unicode="&#xbf;" horiz-adv-x="371" d="M288 102L283 87L185 40Q159 27 146 11T132 -23Q132 -55 170 -74T279 -96L291 -114L236 -232L218 -241Q139 -239 79 -216T-16 -156T-51 -71Q-51 -45 -43 -22T-14 24T42 74T132 134L135 140L137 209L147 223L267 243L281
235L288 102ZM244 484Q285 484 306 463T327 404Q327 350 296 318T212 285Q172 285 151 306T130 366Q130 419 161 451T244 484Z" />
<glyph unicode="&#xc0;" horiz-adv-x="661" d="M593 153Q598 119 609 104T640 86L646 76L628 -3Q628 -3 605 -3T549 -2T490 -1Q444 -1 401 -2T330 -4T302 -6L295 3L311 87Q353 92 365 98T377 121Q377 124 377 128T377 139V178Q377 178 361 178T326 179T304 180Q295
180 277 179T243 177T227 175L214 131Q208 112 208 104Q208 89 231 89H258L265 79L247 -4Q247 -4 222 -3T162 -2T97 -1Q67 -1 37 -1T-13 -1T-33 -2L-16 85Q1 90 15 103T39 140L250 642L517 658L531 646Q531 646 534 618T544 543T557 440T571 329T584 227T593 153ZM274
301H322Q333 301 344 301T371 303L361 478H339L274 301ZM247 762L283 870L299 875Q299 875 320 866T377 842T457 810T548 775L527 704L508 691Q462 703 417 713T335 730T276 742T254 746L247 762Z" />
<glyph unicode="&#xc1;" horiz-adv-x="661" d="M593 153Q598 119 609 104T640 86L646 76L628 -3Q628 -3 605 -3T549 -2T490 -1Q444 -1 401 -2T330 -4T302 -6L295 3L311 87Q353 92 365 98T377 121Q377 124 377 128T377 139V178Q377 178 361 178T326 179T304 180Q295
180 277 179T243 177T227 175L214 131Q208 112 208 104Q208 89 231 89H258L265 79L247 -4Q247 -4 222 -3T162 -2T97 -1Q67 -1 37 -1T-13 -1T-33 -2L-16 85Q1 90 15 103T39 140L250 642L517 658L531 646Q531 646 534 618T544 543T557 440T571 329T584 227T593 153ZM274
301H322Q333 301 344 301T371 303L361 478H339L274 301ZM541 743Q541 743 519 739T461 728T379 710T287 688L268 701L247 772Q293 789 337 806T417 839T474 863T496 872L512 867L548 759L541 743Z" />
<glyph unicode="&#xc2;" horiz-adv-x="661" d="M593 153Q598 119 609 104T640 86L646 76L628 -3Q628 -3 605 -3T549 -2T490 -1Q444 -1 401 -2T330 -4T302 -6L295 3L311 87Q353 92 365 98T377 121Q377 124 377 128T377 139V178Q377 178 361 178T326 179T304 180Q295
180 277 179T243 177T227 175L214 131Q208 112 208 104Q208 89 231 89H258L265 79L247 -4Q247 -4 222 -3T162 -2T97 -1Q67 -1 37 -1T-13 -1T-33 -2L-16 85Q1 90 15 103T39 140L250 642L517 658L531 646Q531 646 534 618T544 543T557 440T571 329T584 227T593 153ZM274
301H322Q333 301 344 301T371 303L361 478H339L274 301ZM214 770Q241 788 268 807T319 845T363 877T393 899T404 908H431Q431 910 440 903T465 881T500 848T542 809T587 770L544 708L520 701Q505 708 488 715T455 729T424 742T398 752Q389 749 377 745T352 735T323
724T293 713T264 701L242 708L214 770Z" />
<glyph unicode="&#xc3;" horiz-adv-x="661" d="M593 153Q598 119 609 104T640 86L646 76L628 -3Q628 -3 605 -3T549 -2T490 -1Q444 -1 401 -2T330 -4T302 -6L295 3L311 87Q353 92 365 98T377 121Q377 124 377 128T377 139V178Q377 178 361 178T326 179T304 180Q295
180 277 179T243 177T227 175L214 131Q208 112 208 104Q208 89 231 89H258L265 79L247 -4Q247 -4 222 -3T162 -2T97 -1Q67 -1 37 -1T-13 -1T-33 -2L-16 85Q1 90 15 103T39 140L250 642L517 658L531 646Q531 646 534 618T544 543T557 440T571 329T584 227T593 153ZM274
301H322Q333 301 344 301T371 303L361 478H339L274 301ZM251 675L199 729L201 745L294 860L311 864Q328 864 357 856T414 839T456 830Q465 830 477 839T501 859T521 879T529 888H545L597 834L595 818L502 703L485 699Q468 699 439 707T383 724T340 733Q331 733
319 724T294 704T275 684T267 675H251Z" />
<glyph unicode="&#xc4;" horiz-adv-x="661" d="M593 153Q598 119 609 104T640 86L646 76L628 -3Q628 -3 605 -3T549 -2T490 -1Q444 -1 401 -2T330 -4T302 -6L295 3L311 87Q353 92 365 98T377 121Q377 124 377 128T377 139V178Q377 178 361 178T326 179T304 180Q295
180 277 179T243 177T227 175L214 131Q208 112 208 104Q208 89 231 89H258L265 79L247 -4Q247 -4 222 -3T162 -2T97 -1Q67 -1 37 -1T-13 -1T-33 -2L-16 85Q1 90 15 103T39 140L250 642L517 658L531 646Q531 646 534 618T544 543T557 440T571 329T584 227T593 153ZM274
301H322Q333 301 344 301T371 303L361 478H339L274 301ZM477 685Q443 685 425 702T406 752Q406 797 433 824T503 852Q537 852 555 834T573 784Q573 740 547 713T477 685ZM289 685Q255 685 237 702T219 752Q219 797 246 824T316 852Q349 852 367 834T385 784Q385
740 359 713T289 685Z" />
<glyph unicode="&#xc5;" horiz-adv-x="661" d="M593 153Q598 119 609 104T640 86L646 76L628 -3Q628 -3 605 -3T549 -2T490 -1Q444 -1 401 -2T330 -4T302 -6L295 3L311 87Q353 92 365 98T377 121Q377 124 377 128T377 139V178Q377 178 361 178T326 179T304 180Q295
180 277 179T243 177T227 175L214 131Q208 112 208 104Q208 89 231 89H258L265 79L247 -4Q247 -4 222 -3T162 -2T97 -1Q67 -1 37 -1T-13 -1T-33 -2L-16 85Q1 90 15 103T39 140L250 642L517 658L531 646Q531 646 534 618T544 543T557 440T571 329T584 227T593 153ZM274
301H322Q333 301 344 301T371 303L361 478H339L274 301ZM380 682Q337 682 315 706T293 771Q293 822 327 857T415 892Q464 892 484 866T504 807Q504 776 489 747T447 700T380 682ZM396 752Q403 752 411 755T427 766T434 790Q434 804 426 812T400 820Q381 820 372
810T363 783Q363 765 374 759T396 752Z" />
<glyph unicode="&#xc6;" horiz-adv-x="916" d="M312 87Q353 92 366 100T382 130Q383 138 384 144T385 162L388 219L315 206L238 183L219 130Q215 120 213 113T210 101Q210 91 220 90T262 89L265 79L248 -4Q247 -4 224 -4T168 -3T103 -2T54 -1Q33 -1 16 -1T-13
-1T-24 -2L-16 85Q4 90 19 103T46 140L247 531Q246 547 241 553T225 559Q217 559 209 558T200 557L189 571L208 650Q208 650 235 650T310 649T416 648T538 647Q592 647 646 648T747 651T829 655T877 659L888 643Q888 643 880 613T861 537T841 444L702 435Q702 435
704 443T707 464T709 484Q709 502 702 511T675 523T623 527Q605 527 597 521T589 503L595 372L665 385L766 411L781 394L756 278L660 266L598 254L599 181Q600 147 611 131T643 114Q670 114 687 118T716 133T736 166T754 221L883 230L894 215Q894 215 886 186T865
111T841 9L824 -7Q824 -7 806 -7T756 -5T679 -2T581 -1T470 0Q429 0 390 -1T327 -4T302 -6L296 3L312 87ZM344 328L393 337L397 478H375L304 324L344 328Z" />
<glyph unicode="&#xc7;" horiz-adv-x="584" d="M279 -11Q196 -11 138 20T49 112T18 259Q18 357 41 431T112 556T227 633T386 659Q417 659 455 655T528 646T585 637T608 633L614 613Q614 613 605 585T584 509T560 399L404 390Q404 390 407 405T412 438T415 465Q415
521 349 521Q313 521 291 496T258 415T248 268Q248 193 263 162T316 130Q341 130 356 140T382 175T402 246L557 256Q557 256 553 237T543 186T531 117T520 43L505 27Q505 27 475 18T394 -1T279 -11ZM294 36H356L333 -37Q352 -46 374 -61T412 -96T429 -138Q429 -166
407 -190T349 -228T268 -243Q240 -243 213 -230T186 -192Q186 -183 196 -170T220 -143T247 -118H255Q253 -146 264 -160T295 -174Q309 -174 317 -168T326 -150Q326 -135 301 -118T249 -87L294 36Z" />
<glyph unicode="&#xc8;" horiz-adv-x="586" d="M269 151Q269 129 278 122T309 115Q339 115 358 119T391 134T413 166T431 221L560 230L571 215Q571 215 563 186T542 111T518 9L501 -7Q501 -7 484 -7T436 -5T366 -2T281 -1T190 0Q139 0 91 -2T11 -7T-20 -10L0 82Q37
88 52 106T73 170L116 505Q120 537 116 548T96 559Q89 559 80 558T71 557L61 571L80 650Q80 650 103 650T161 649T236 648T310 647Q370 647 429 648T536 653T612 659L623 643Q623 643 615 613T595 537T576 444L436 435Q436 435 438 443T442 464T444 484Q444 502
437 511T410 523T358 527Q345 527 338 525T328 517T323 500L303 387Q317 387 339 387T382 386Q393 386 410 387T446 389T476 391T489 392L499 378L471 263Q471 263 452 264T405 265T356 266Q335 266 316 264T283 260Q279 235 274 202T269 151ZM219 762L255 870L271
875Q271 875 292 866T349 842T429 810T520 775L499 704L480 691Q434 703 389 713T307 730T248 742T226 746L219 762Z" />
<glyph unicode="&#xc9;" horiz-adv-x="586" d="M269 151Q269 129 278 122T309 115Q339 115 358 119T391 134T413 166T431 221L560 230L571 215Q571 215 563 186T542 111T518 9L501 -7Q501 -7 484 -7T436 -5T366 -2T281 -1T190 0Q139 0 91 -2T11 -7T-20 -10L0 82Q37
88 52 106T73 170L116 505Q120 537 116 548T96 559Q89 559 80 558T71 557L61 571L80 650Q80 650 103 650T161 649T236 648T310 647Q370 647 429 648T536 653T612 659L623 643Q623 643 615 613T595 537T576 444L436 435Q436 435 438 443T442 464T444 484Q444 502
437 511T410 523T358 527Q345 527 338 525T328 517T323 500L303 387Q317 387 339 387T382 386Q393 386 410 387T446 389T476 391T489 392L499 378L471 263Q471 263 452 264T405 265T356 266Q335 266 316 264T283 260Q279 235 274 202T269 151ZM513 743Q513 743
491 739T433 728T351 710T259 688L240 701L219 772Q265 789 309 806T389 839T446 863T468 872L484 867L520 759L513 743Z" />
<glyph unicode="&#xca;" horiz-adv-x="586" d="M269 151Q269 129 278 122T309 115Q339 115 358 119T391 134T413 166T431 221L560 230L571 215Q571 215 563 186T542 111T518 9L501 -7Q501 -7 484 -7T436 -5T366 -2T281 -1T190 0Q139 0 91 -2T11 -7T-20 -10L0 82Q37
88 52 106T73 170L116 505Q120 537 116 548T96 559Q89 559 80 558T71 557L61 571L80 650Q80 650 103 650T161 649T236 648T310 647Q370 647 429 648T536 653T612 659L623 643Q623 643 615 613T595 537T576 444L436 435Q436 435 438 443T442 464T444 484Q444 502
437 511T410 523T358 527Q345 527 338 525T328 517T323 500L303 387Q317 387 339 387T382 386Q393 386 410 387T446 389T476 391T489 392L499 378L471 263Q471 263 452 264T405 265T356 266Q335 266 316 264T283 260Q279 235 274 202T269 151ZM186 770Q213 788
240 807T291 845T335 877T365 899T376 908H403Q403 910 412 903T437 881T472 848T514 809T559 770L516 708L492 701Q477 708 460 715T427 729T396 742T370 752Q361 749 349 745T324 735T295 724T265 713T236 701L214 708L186 770Z" />
<glyph unicode="&#xcb;" horiz-adv-x="586" d="M269 151Q269 129 278 122T309 115Q339 115 358 119T391 134T413 166T431 221L560 230L571 215Q571 215 563 186T542 111T518 9L501 -7Q501 -7 484 -7T436 -5T366 -2T281 -1T190 0Q139 0 91 -2T11 -7T-20 -10L0 82Q37
88 52 106T73 170L116 505Q120 537 116 548T96 559Q89 559 80 558T71 557L61 571L80 650Q80 650 103 650T161 649T236 648T310 647Q370 647 429 648T536 653T612 659L623 643Q623 643 615 613T595 537T576 444L436 435Q436 435 438 443T442 464T444 484Q444 502
437 511T410 523T358 527Q345 527 338 525T328 517T323 500L303 387Q317 387 339 387T382 386Q393 386 410 387T446 389T476 391T489 392L499 378L471 263Q471 263 452 264T405 265T356 266Q335 266 316 264T283 260Q279 235 274 202T269 151ZM449 685Q415 685
397 702T378 752Q378 797 405 824T475 852Q509 852 527 834T545 784Q545 740 519 713T449 685ZM261 685Q227 685 209 702T191 752Q191 797 218 824T288 852Q321 852 339 834T357 784Q357 740 331 713T261 685Z" />
<glyph unicode="&#xcc;" horiz-adv-x="359" d="M323 510Q318 482 311 439T296 346T282 250T271 171T267 125Q267 103 273 95T292 87Q307 87 315 88T323 90L329 80L310 -4Q310 -4 291 -4T244 -2T189 -1T147 0Q124 0 96 -1T42 -2T0 -4T-17 -5L1 80Q42 89 55 105T73
162L116 508Q120 539 114 549T88 559Q81 559 73 559T64 558Q62 562 60 565T56 572L73 647Q101 647 127 647T180 647T232 647Q247 647 275 648T332 649T382 651T402 652L384 562Q350 557 340 548T323 510ZM362 762L398 870L414 875Q414 875 435 866T492 842T572
810T663 775L642 704L623 691Q577 703 532 713T450 730T391 742T369 746L362 762Z" />
<glyph unicode="&#xcd;" horiz-adv-x="359" d="M323 510Q318 482 311 439T296 346T282 250T271 171T267 125Q267 103 273 95T292 87Q307 87 315 88T323 90L329 80L310 -4Q310 -4 291 -4T244 -2T189 -1T147 0Q124 0 96 -1T42 -2T0 -4T-17 -5L1 80Q42 89 55 105T73
162L116 508Q120 539 114 549T88 559Q81 559 73 559T64 558Q62 562 60 565T56 572L73 647Q101 647 127 647T180 647T232 647Q247 647 275 648T332 649T382 651T402 652L384 562Q350 557 340 548T323 510ZM400 743Q400 743 378 739T320 728T238 710T146 688L127
701L106 772Q152 789 196 806T276 839T333 863T355 872L371 867L407 759L400 743Z" />
<glyph unicode="&#xce;" horiz-adv-x="359" d="M323 510Q318 482 311 439T296 346T282 250T271 171T267 125Q267 103 273 95T292 87Q307 87 315 88T323 90L329 80L310 -4Q310 -4 291 -4T244 -2T189 -1T147 0Q124 0 96 -1T42 -2T0 -4T-17 -5L1 80Q42 89 55 105T73
162L116 508Q120 539 114 549T88 559Q81 559 73 559T64 558Q62 562 60 565T56 572L73 647Q101 647 127 647T180 647T232 647Q247 647 275 648T332 649T382 651T402 652L384 562Q350 557 340 548T323 510ZM73 770Q100 788 127 807T178 845T222 877T252 899T263 908H290Q290
910 299 903T324 881T359 848T401 809T446 770L403 708L379 701Q364 708 347 715T314 729T283 742T257 752Q248 749 236 745T211 735T182 724T152 713T123 701L101 708L73 770Z" />
<glyph unicode="&#xcf;" horiz-adv-x="359" d="M323 510Q318 482 311 439T296 346T282 250T271 171T267 125Q267 103 273 95T292 87Q307 87 315 88T323 90L329 80L310 -4Q310 -4 291 -4T244 -2T189 -1T147 0Q124 0 96 -1T42 -2T0 -4T-17 -5L1 80Q42 89 55 105T73
162L116 508Q120 539 114 549T88 559Q81 559 73 559T64 558Q62 562 60 565T56 572L73 647Q101 647 127 647T180 647T232 647Q247 647 275 648T332 649T382 651T402 652L384 562Q350 557 340 548T323 510ZM592 685Q558 685 540 702T521 752Q521 797 548 824T618
852Q652 852 670 834T688 784Q688 740 662 713T592 685ZM404 685Q370 685 352 702T334 752Q334 797 361 824T431 852Q464 852 482 834T500 784Q500 740 474 713T404 685Z" />
<glyph unicode="&#xd0;" horiz-adv-x="680" d="M121 266H20L11 274L35 363H133L121 266ZM310 364L388 367L395 357L377 267H295L310 364ZM299 -12Q299 -12 284 -10T246 -6T196 -2T146 0Q119 0 86 -2T28 -6T4 -8L24 85Q59 91 74 108T96 168L137 503Q141 535 138
546T120 557Q110 557 100 556T89 555L81 569L100 650Q100 650 117 650T159 649T209 648T249 647Q266 647 291 648T342 650T385 652T402 653Q493 653 556 625T652 541T685 402Q685 309 658 233T579 102T457 18T299 -12ZM363 526Q353 526 348 521T340 499Q338 491
334 463T323 395T311 313T300 234T291 172T287 145Q287 127 293 120T313 113Q360 113 391 145T439 241T455 398Q455 469 435 497T363 526Z" />
<glyph unicode="&#xd1;" horiz-adv-x="718" d="M496 333L514 516Q516 542 511 550T488 559Q481 559 474 559T458 559L454 570L469 651Q469 651 486 651T530 649T584 648T633 647Q661 647 692 647T747 649T770 650L754 560Q723 556 710 542T691 497L617 0L425 -12Q395
58 368 117T320 221T287 290T275 315H260L242 137Q239 109 245 98T274 86Q280 86 287 87T300 89T306 90L314 81L293 -4Q293 -4 276 -4T233 -2T182 -1T142 0Q108 0 72 -2T12 -6T-12 -8L9 82Q38 86 53 100T72 145L126 494Q131 529 119 540T62 557Q60 561 57 564T52
571L67 652Q67 652 88 651T143 649T213 647Q240 647 270 648T320 650T341 651Q365 590 389 533T435 431T468 360T481 333H496ZM279 675L227 729L229 745L322 860L339 864Q356 864 385 856T442 839T484 830Q493 830 505 839T529 859T549 879T557 888H573L625 834L623
818L530 703L513 699Q496 699 467 707T411 724T368 733Q359 733 347 724T322 704T303 684T295 675H279Z" />
<glyph unicode="&#xd2;" horiz-adv-x="633" d="M283 -12Q201 -12 142 18T50 109T18 256Q18 352 40 427T108 554T219 632T372 659Q457 659 516 630T606 543T638 398Q638 302 615 226T547 97T435 16T283 -12ZM310 114Q345 114 366 143T397 236T407 402Q407 443 400
469T379 509T342 522Q309 522 288 493T257 400T247 234Q247 193 254 167T275 127T310 114ZM233 762L269 870L285 875Q285 875 306 866T363 842T443 810T534 775L513 704L494 691Q448 703 403 713T321 730T262 742T240 746L233 762Z" />
<glyph unicode="&#xd3;" horiz-adv-x="633" d="M283 -12Q201 -12 142 18T50 109T18 256Q18 352 40 427T108 554T219 632T372 659Q457 659 516 630T606 543T638 398Q638 302 615 226T547 97T435 16T283 -12ZM310 114Q345 114 366 143T397 236T407 402Q407 443 400
469T379 509T342 522Q309 522 288 493T257 400T247 234Q247 193 254 167T275 127T310 114ZM527 743Q527 743 505 739T447 728T365 710T273 688L254 701L233 772Q279 789 323 806T403 839T460 863T482 872L498 867L534 759L527 743Z" />
<glyph unicode="&#xd4;" horiz-adv-x="633" d="M283 -12Q201 -12 142 18T50 109T18 256Q18 352 40 427T108 554T219 632T372 659Q457 659 516 630T606 543T638 398Q638 302 615 226T547 97T435 16T283 -12ZM310 114Q345 114 366 143T397 236T407 402Q407 443 400
469T379 509T342 522Q309 522 288 493T257 400T247 234Q247 193 254 167T275 127T310 114ZM200 770Q227 788 254 807T305 845T349 877T379 899T390 908H417Q417 910 426 903T451 881T486 848T528 809T573 770L530 708L506 701Q491 708 474 715T441 729T410 742T384
752Q375 749 363 745T338 735T309 724T279 713T250 701L228 708L200 770Z" />
<glyph unicode="&#xd5;" horiz-adv-x="633" d="M283 -12Q201 -12 142 18T50 109T18 256Q18 352 40 427T108 554T219 632T372 659Q457 659 516 630T606 543T638 398Q638 302 615 226T547 97T435 16T283 -12ZM310 114Q345 114 366 143T397 236T407 402Q407 443 400
469T379 509T342 522Q309 522 288 493T257 400T247 234Q247 193 254 167T275 127T310 114ZM237 675L185 729L187 745L280 860L297 864Q314 864 343 856T400 839T442 830Q451 830 463 839T487 859T507 879T515 888H531L583 834L581 818L488 703L471 699Q454 699
425 707T369 724T326 733Q317 733 305 724T280 704T261 684T253 675H237Z" />
<glyph unicode="&#xd6;" horiz-adv-x="633" d="M283 -12Q201 -12 142 18T50 109T18 256Q18 352 40 427T108 554T219 632T372 659Q457 659 516 630T606 543T638 398Q638 302 615 226T547 97T435 16T283 -12ZM310 114Q345 114 366 143T397 236T407 402Q407 443 400
469T379 509T342 522Q309 522 288 493T257 400T247 234Q247 193 254 167T275 127T310 114ZM463 685Q429 685 411 702T392 752Q392 797 419 824T489 852Q523 852 541 834T559 784Q559 740 533 713T463 685ZM275 685Q241 685 223 702T205 752Q205 797 232 824T302
852Q335 852 353 834T371 784Q371 740 345 713T275 685Z" />
<glyph unicode="&#xd7;" horiz-adv-x="491" d="M393 449L464 347L346 236Q363 217 380 198T411 163T433 139T442 129L434 113L319 26L229 132Q207 112 187 93T150 59T125 35T115 26L100 29L34 133Q34 133 43 141T67 164T101 195T141 232Q123 253 107 273T76 309T54
335T46 345L51 361L169 444Q169 444 182 428T215 388T257 336Q279 356 300 377T340 415T368 444T379 455L393 449Z" />
<glyph unicode="&#xd8;" horiz-adv-x="633" d="M513 488L418 559L543 752L640 698L642 685L513 488ZM242 82L149 152L418 559L513 488L242 82ZM149 152L242 82L108 -117L13 -62L9 -52L149 152ZM283 -12Q201 -12 142 18T50 109T18 256Q18 352 40 427T108 554T219
632T372 659Q457 659 516 630T606 543T638 398Q638 302 615 226T547 97T435 16T283 -12ZM310 114Q345 114 366 143T397 236T407 402Q407 443 400 469T379 509T342 522Q309 522 288 493T257 400T247 234Q247 193 254 167T275 127T310 114Z" />
<glyph unicode="&#xd9;" horiz-adv-x="605" d="M251 220Q250 213 250 205T249 192Q248 154 263 135T308 115Q343 115 360 135T384 203Q386 222 390 258T400 336T409 416T417 480T420 505Q424 537 420 548T402 559Q395 559 388 558T381 557L378 561L400 650Q400
650 421 649T471 648T516 647Q547 647 580 647T636 649T659 650L640 560Q609 550 600 542T589 516L554 234Q538 110 469 49T274 -12Q159 -12 103 30T47 159Q47 178 50 199L88 505Q92 539 89 549T68 559Q61 559 51 558T40 557L38 561L59 650Q59 650 86 649T154 648T233
647Q247 647 269 647T313 649T350 650T365 651L344 558Q319 555 307 544T292 509L251 220ZM229 762L265 870L281 875Q281 875 302 866T359 842T439 810T530 775L509 704L490 691Q444 703 399 713T317 730T258 742T236 746L229 762Z" />
<glyph unicode="&#xda;" horiz-adv-x="605" d="M251 220Q250 213 250 205T249 192Q248 154 263 135T308 115Q343 115 360 135T384 203Q386 222 390 258T400 336T409 416T417 480T420 505Q424 537 420 548T402 559Q395 559 388 558T381 557L378 561L400 650Q400
650 421 649T471 648T516 647Q547 647 580 647T636 649T659 650L640 560Q609 550 600 542T589 516L554 234Q538 110 469 49T274 -12Q159 -12 103 30T47 159Q47 178 50 199L88 505Q92 539 89 549T68 559Q61 559 51 558T40 557L38 561L59 650Q59 650 86 649T154 648T233
647Q247 647 269 647T313 649T350 650T365 651L344 558Q319 555 307 544T292 509L251 220ZM523 743Q523 743 501 739T443 728T361 710T269 688L250 701L229 772Q275 789 319 806T399 839T456 863T478 872L494 867L530 759L523 743Z" />
<glyph unicode="&#xdb;" horiz-adv-x="605" d="M251 220Q250 213 250 205T249 192Q248 154 263 135T308 115Q343 115 360 135T384 203Q386 222 390 258T400 336T409 416T417 480T420 505Q424 537 420 548T402 559Q395 559 388 558T381 557L378 561L400 650Q400
650 421 649T471 648T516 647Q547 647 580 647T636 649T659 650L640 560Q609 550 600 542T589 516L554 234Q538 110 469 49T274 -12Q159 -12 103 30T47 159Q47 178 50 199L88 505Q92 539 89 549T68 559Q61 559 51 558T40 557L38 561L59 650Q59 650 86 649T154 648T233
647Q247 647 269 647T313 649T350 650T365 651L344 558Q319 555 307 544T292 509L251 220ZM196 770Q223 788 250 807T301 845T345 877T375 899T386 908H413Q413 910 422 903T447 881T482 848T524 809T569 770L526 708L502 701Q487 708 470 715T437 729T406 742T380
752Q371 749 359 745T334 735T305 724T275 713T246 701L224 708L196 770Z" />
<glyph unicode="&#xdc;" horiz-adv-x="605" d="M251 220Q250 213 250 205T249 192Q248 154 263 135T308 115Q343 115 360 135T384 203Q386 222 390 258T400 336T409 416T417 480T420 505Q424 537 420 548T402 559Q395 559 388 558T381 557L378 561L400 650Q400
650 421 649T471 648T516 647Q547 647 580 647T636 649T659 650L640 560Q609 550 600 542T589 516L554 234Q538 110 469 49T274 -12Q159 -12 103 30T47 159Q47 178 50 199L88 505Q92 539 89 549T68 559Q61 559 51 558T40 557L38 561L59 650Q59 650 86 649T154 648T233
647Q247 647 269 647T313 649T350 650T365 651L344 558Q319 555 307 544T292 509L251 220ZM459 685Q425 685 407 702T388 752Q388 797 415 824T485 852Q519 852 537 834T555 784Q555 740 529 713T459 685ZM271 685Q237 685 219 702T201 752Q201 797 228 824T298
852Q331 852 349 834T367 784Q367 740 341 713T271 685Z" />
<glyph unicode="&#xdd;" horiz-adv-x="650" d="M332 533Q332 527 334 515T339 487T347 454T356 419T365 387H379L429 501Q447 534 447 547Q447 555 440 558T413 561L411 567L429 646Q456 646 481 646T532 646T584 646Q610 646 635 647T678 649T695 650L698 642L680
555Q664 546 648 533T615 504T585 469T558 429L448 247Q439 230 434 215T427 186T422 154Q418 119 426 105T463 91Q482 91 497 92T513 94L517 88L497 -6Q497 -6 474 -5T417 -3T348 -1T293 0Q269 0 236 -1T169 -4T114 -7T92 -9L111 83Q153 86 176 93T209 116T222
162L224 178Q227 200 224 219T208 268L128 467Q121 486 109 501T80 529T44 551L40 557L61 648Q61 648 79 648T123 647T173 647T209 646Q226 646 255 647T314 649T365 652T386 653L392 642L373 560Q352 560 342 554T332 533ZM545 743Q545 743 523 739T465 728T383
710T291 688L272 701L251 772Q297 789 341 806T421 839T478 863T500 872L516 867L552 759L545 743Z" />
<glyph unicode="&#xde;" horiz-adv-x="590" d="M324 522H390Q500 522 552 482T605 360Q605 310 585 269T529 199T444 155T337 139H268L265 116Q263 98 268 93T292 87Q313 87 323 88T333 90L340 80L321 -4Q321 -4 301 -4T251 -2T193 -1T147 0Q124 0 96 -1T42 -2T0
-4T-17 -5L1 80Q40 88 54 104T73 162L116 508Q120 539 114 549T88 559Q81 559 73 559T64 558L56 572L73 647Q101 647 127 647T180 647T232 647Q247 647 275 648T332 649T382 651T402 652L384 562Q348 555 338 550T325 527L324 522ZM301 385Q300 372 297 348T290
298T284 256Q303 252 319 249T342 246Q371 254 384 280T398 344Q398 377 380 392T323 407Q313 407 308 402T301 385Z" />
<glyph unicode="&#xdf;" horiz-adv-x="676" d="M6 384L14 450L102 463L107 511Q112 554 138 595T206 669T297 722T397 742Q457 742 502 725T573 675T599 598Q599 567 589 543T562 500T530 465T504 431T493 395Q493 374 511 360T555 332T608 300T652 254T670 183Q670
127 638 83T552 13T428 -12Q376 -12 336 6T286 53Q290 73 300 99T324 150T351 190L378 188Q377 153 394 130T438 106Q452 106 461 111T476 126T481 148Q481 168 464 181T422 207T372 236T329 278T312 342Q312 374 323 397T350 440T381 476T408 513T419 555Q419
581 407 603T363 625Q329 625 307 607T278 541L218 -6Q214 -48 190 -90T131 -166T55 -221T-24 -242Q-72 -242 -110 -224T-158 -180Q-152 -160 -140 -135T-114 -86T-88 -48H-68Q-64 -91 -48 -109T4 -127Q33 -127 51 -107T69 -46Q69 -41 69 -36T69 -26T69 -16T69
-7T69 1T69 8L94 369L83 379H9L6 384Z" />
<glyph unicode="&#xe0;" horiz-adv-x="528" d="M446 154Q450 154 456 158T473 172T498 195L521 191L541 143Q486 82 450 49T386 2T329 -12Q304 -12 291 0T278 36Q278 47 284 74T303 158H293Q252 88 222 49T160 -12Q89 -12 49 29T9 145Q9 204 31 262T90 367T172
443T263 472L335 452L340 472L359 484L493 472L501 449Q488 391 477 337T457 237T442 157L446 154ZM206 143Q214 143 227 160T254 206T283 270T307 341Q287 354 268 360T233 367Q224 367 215 343T199 282T192 209Q192 181 196 162T206 143ZM116 661L188 762H205Q205
762 221 748T263 709T323 655T392 595L351 534L329 527Q278 558 230 584T150 627T118 644L116 661Z" />
<glyph unicode="&#xe1;" horiz-adv-x="528" d="M446 154Q450 154 456 158T473 172T498 195L521 191L541 143Q486 82 450 49T386 2T329 -12Q304 -12 291 0T278 36Q278 47 284 74T303 158H293Q252 88 222 49T160 -12Q89 -12 49 29T9 145Q9 204 31 262T90 367T172
443T263 472L335 452L340 472L359 484L493 472L501 449Q488 391 477 337T457 237T442 157L446 154ZM206 143Q214 143 227 160T254 206T283 270T307 341Q287 354 268 360T233 367Q224 367 215 343T199 282T192 209Q192 181 196 162T206 143ZM437 644Q437 644 406
628T326 585T226 527L204 534L163 595Q198 625 231 655T291 709T334 747T350 762H367L439 661L437 644Z" />
<glyph unicode="&#xe2;" horiz-adv-x="528" d="M446 154Q450 154 456 158T473 172T498 195L521 191L541 143Q486 82 450 49T386 2T329 -12Q304 -12 291 0T278 36Q278 47 284 74T303 158H293Q252 88 222 49T160 -12Q89 -12 49 29T9 145Q9 204 31 262T90 367T172
443T263 472L335 452L340 472L359 484L493 472L501 449Q488 391 477 337T457 237T442 157L446 154ZM206 143Q214 143 227 160T254 206T283 270T307 341Q287 354 268 360T233 367Q224 367 215 343T199 282T192 209Q192 181 196 162T206 143ZM134 606Q160 627 186
648T235 690T277 727T305 752T316 762H343Q343 762 351 753T374 727T406 691T446 649T487 606L434 544L410 537Q400 545 389 553T367 568T346 583T326 596T310 606Q302 602 292 596T270 583T245 569T220 553T195 537L172 544L134 606Z" />
<glyph unicode="&#xe3;" horiz-adv-x="528" d="M446 154Q450 154 456 158T473 172T498 195L521 191L541 143Q486 82 450 49T386 2T329 -12Q304 -12 291 0T278 36Q278 47 284 74T303 158H293Q252 88 222 49T160 -12Q89 -12 49 29T9 145Q9 204 31 262T90 367T172
443T263 472L335 452L340 472L359 484L493 472L501 449Q488 391 477 337T457 237T442 157L446 154ZM206 143Q214 143 227 160T254 206T283 270T307 341Q287 354 268 360T233 367Q224 367 215 343T199 282T192 209Q192 181 196 162T206 143ZM184 527L131 581L133
597L226 712L243 716Q260 716 289 708T346 691T389 682Q398 682 410 691T433 711T453 731T461 740H477L530 686L528 670L435 555L418 551Q401 551 372 559T315 576T272 585Q263 585 251 576T227 556T208 536T200 527H184Z" />
<glyph unicode="&#xe4;" horiz-adv-x="528" d="M446 154Q450 154 456 158T473 172T498 195L521 191L541 143Q486 82 450 49T386 2T329 -12Q304 -12 291 0T278 36Q278 47 284 74T303 158H293Q252 88 222 49T160 -12Q89 -12 49 29T9 145Q9 204 31 262T90 367T172
443T263 472L335 452L340 472L359 484L493 472L501 449Q488 391 477 337T457 237T442 157L446 154ZM206 143Q214 143 227 160T254 206T283 270T307 341Q287 354 268 360T233 367Q224 367 215 343T199 282T192 209Q192 181 196 162T206 143ZM390 551Q355 551 337
568T319 618Q319 663 346 690T416 718Q450 718 468 700T486 650Q486 606 460 579T390 551ZM201 551Q167 551 149 568T131 618Q131 663 158 690T228 718Q262 718 280 700T298 650Q298 606 272 579T201 551Z" />
<glyph unicode="&#xe5;" horiz-adv-x="528" d="M446 154Q450 154 456 158T473 172T498 195L521 191L541 143Q486 82 450 49T386 2T329 -12Q304 -12 291 0T278 36Q278 47 284 74T303 158H293Q252 88 222 49T160 -12Q89 -12 49 29T9 145Q9 204 31 262T90 367T172
443T263 472L335 452L340 472L359 484L493 472L501 449Q488 391 477 337T457 237T442 157L446 154ZM206 143Q214 143 227 160T254 206T283 270T307 341Q287 354 268 360T233 367Q224 367 215 343T199 282T192 209Q192 181 196 162T206 143ZM322 544Q279 544 257
568T234 633Q234 684 268 719T356 754Q405 754 425 728T445 669Q445 638 430 609T388 562T322 544ZM337 614Q344 614 353 617T368 628T375 652Q375 666 367 674T342 682Q323 682 314 672T304 645Q304 627 315 621T337 614Z" />
<glyph unicode="&#xe6;" horiz-adv-x="686" d="M303 158H293Q253 88 223 49T160 -12Q89 -12 49 29T9 145Q9 204 31 262T90 367T172 443T263 472L459 435L303 158ZM206 143Q214 143 227 161T254 209T283 276T307 351Q287 359 268 363T233 367Q224 367 215 343T199
282T192 209Q192 180 196 162T206 143ZM691 371Q691 325 666 291T587 230T442 175Q446 151 459 139T497 126Q523 126 545 143T588 197L610 194L662 136Q645 95 609 61T528 8T435 -12Q361 -12 316 38T271 173Q271 237 293 293T354 392T444 459T553 483Q617 483 654
453T691 371ZM516 363Q498 363 484 351T460 316T445 257Q492 275 516 296T541 340Q541 363 516 363Z" />
<glyph unicode="&#xe7;" horiz-adv-x="393" d="M253 363Q234 363 220 343T197 287T188 206Q188 168 200 148T236 128Q256 128 275 147T311 202L332 199L384 141Q368 99 334 65T258 9T175 -12Q101 -12 57 36T13 167Q13 232 35 289T96 390T185 458T294 483Q324 483
353 477T403 459L407 441L356 312L313 311Q288 363 253 363ZM178 36H240L217 -37Q236 -46 258 -61T296 -96T313 -138Q313 -166 291 -190T233 -228T152 -243Q124 -243 97 -230T70 -192Q70 -183 80 -170T104 -143T131 -118H139Q137 -146 148 -160T179 -174Q193 -174
201 -168T210 -150Q210 -135 185 -118T133 -87L178 36Z" />
<glyph unicode="&#xe8;" horiz-adv-x="429" d="M434 371Q434 325 409 291T330 230T185 175Q189 151 202 139T240 126Q266 126 288 143T331 197L353 194L405 136Q388 95 352 61T271 8T178 -12Q104 -12 59 38T14 173Q14 237 36 293T97 392T187 459T296 483Q360 483
397 453T434 371ZM259 363Q241 363 227 351T203 316T188 257Q235 275 259 296T284 340Q284 363 259 363ZM101 659L173 760H190Q190 760 206 746T248 707T308 653T377 593L336 532L314 525Q263 556 215 582T135 625T103 642L101 659Z" />
<glyph unicode="&#xe9;" horiz-adv-x="429" d="M434 371Q434 325 409 291T330 230T185 175Q189 151 202 139T240 126Q266 126 288 143T331 197L353 194L405 136Q388 95 352 61T271 8T178 -12Q104 -12 59 38T14 173Q14 237 36 293T97 392T187 459T296 483Q360 483
397 453T434 371ZM259 363Q241 363 227 351T203 316T188 257Q235 275 259 296T284 340Q284 363 259 363ZM422 642Q422 642 391 626T311 583T211 525L189 532L148 593Q183 623 216 653T276 707T319 745T335 760H352L424 659L422 642Z" />
<glyph unicode="&#xea;" horiz-adv-x="429" d="M434 371Q434 325 409 291T330 230T185 175Q189 151 202 139T240 126Q266 126 288 143T331 197L353 194L405 136Q388 95 352 61T271 8T178 -12Q104 -12 59 38T14 173Q14 237 36 293T97 392T187 459T296 483Q360 483
397 453T434 371ZM259 363Q241 363 227 351T203 316T188 257Q235 275 259 296T284 340Q284 363 259 363ZM119 604Q145 625 171 646T220 688T262 725T290 750T301 760H328Q328 760 336 751T359 725T391 689T431 647T472 604L419 542L395 535Q385 543 374 551T352
566T331 581T311 594T295 604Q287 600 277 594T255 581T230 567T205 551T180 535L157 542L119 604Z" />
<glyph unicode="&#xeb;" horiz-adv-x="429" d="M434 371Q434 325 409 291T330 230T185 175Q189 151 202 139T240 126Q266 126 288 143T331 197L353 194L405 136Q388 95 352 61T271 8T178 -12Q104 -12 59 38T14 173Q14 237 36 293T97 392T187 459T296 483Q360 483
397 453T434 371ZM259 363Q241 363 227 351T203 316T188 257Q235 275 259 296T284 340Q284 363 259 363ZM375 549Q340 549 322 566T304 616Q304 661 331 688T401 716Q435 716 453 698T471 648Q471 604 445 577T375 549ZM186 549Q152 549 134 566T116 616Q116 661
143 688T213 716Q247 716 265 698T283 648Q283 604 257 577T186 549Z" />
<glyph unicode="&#xec;" horiz-adv-x="304" d="M36 659L108 760H125Q125 760 141 746T183 707T243 653T312 593L271 532L249 525Q198 556 150 582T70 625T38 642L36 659ZM216 154Q221 154 228 160T268 195L291 191L311 143Q260 85 224 51T158 3T101 -12Q35 -12
35 55Q50 144 60 206T75 303T80 346Q80 363 72 371T47 379H19L31 461Q56 461 92 462T171 467T254 473L270 453Q259 411 248 359T228 254T212 157L216 154Z" />
<glyph unicode="&#xed;" horiz-adv-x="304" d="M216 154Q221 154 228 160T268 195L291 191L311 143Q260 85 224 51T158 3T101 -12Q35 -12 35 55Q50 144 60 206T75 303T80 346Q80 363 72 371T47 379H19L31 461Q56 461 92 462T171 467T254 473L270 453Q259 411 248
359T228 254T212 157L216 154ZM571 892Q571 892 540 876T460 833T360 775L338 782L297 843Q332 873 365 903T425 957T468 995T484 1010H501L573 909L571 892Z" />
<glyph unicode="&#xee;" horiz-adv-x="304" d="M216 154Q221 154 228 160T268 195L291 191L311 143Q260 85 224 51T158 3T101 -12Q35 -12 35 55Q50 144 60 206T75 303T80 346Q80 363 72 371T47 379H19L31 461Q56 461 92 462T171 467T254 473L270 453Q259 411 248
359T228 254T212 157L216 154ZM268 854Q294 875 320 896T369 938T411 975T439 1000T450 1010H477Q477 1010 485 1001T508 975T540 939T580 897T621 854L568 792L544 785Q534 793 523 801T501 816T480 831T460 844T444 854Q436 850 426 844T404 831T379 817T354
801T329 785L306 792L268 854Z" />
<glyph unicode="&#xef;" horiz-adv-x="304" d="M216 154Q221 154 228 160T268 195L291 191L311 143Q260 85 224 51T158 3T101 -12Q35 -12 35 55Q50 144 60 206T75 303T80 346Q80 363 72 371T47 379H19L31 461Q56 461 92 462T171 467T254 473L270 453Q259 411 248
359T228 254T212 157L216 154ZM515 801Q481 801 464 818T446 866Q446 910 472 937T540 964Q573 964 590 947T608 898Q608 855 582 828T515 801ZM345 801Q312 801 295 818T277 866Q277 910 303 937T371 964Q404 964 421 947T439 898Q439 855 413 828T345 801Z" />
<glyph unicode="&#xf0;" horiz-adv-x="498" d="M204 -12Q119 -12 72 38T25 179Q25 245 44 299T98 392T184 451T295 472Q382 472 428 424T474 287Q474 220 455 165T401 70T315 10T204 -12ZM242 92Q260 92 271 109T288 164T293 260Q293 313 285 334T255 355Q239
355 228 335T210 278T203 190Q203 140 212 116T242 92ZM305 287Q304 338 294 379T262 456T205 527L79 463L70 465L47 559L123 600Q109 613 93 626T60 653L118 734L135 742Q167 726 198 708T263 668L409 742L417 738L440 645L350 599Q411 532 442 452T474 287H305Z"
/>
<glyph unicode="&#xf1;" horiz-adv-x="545" d="M342 -9Q277 -9 277 50Q277 63 283 87T298 142T315 202T330 256T336 291Q336 305 332 312T320 319Q309 319 290 288T249 203T204 79L230 300L253 303Q283 375 311 421T365 485Q434 485 473 457T512 378Q512 363 505
333T487 269T467 206T455 160L458 157Q461 157 466 160T481 173T508 198L532 194L550 146Q497 86 461 53T398 5T342 -9ZM58 -7L38 16Q45 58 52 107T67 202T80 284T89 336Q93 359 86 369T59 379H32L44 461Q81 461 142 464T264 473L277 452Q271 431 265 401T253 341T244
288L214 120L205 45Q203 31 183 19T129 0T58 -7ZM199 525L146 579L148 595L241 710L258 714Q275 714 304 706T361 689T404 680Q413 680 425 689T448 709T468 729T476 738H492L545 684L543 668L450 553L433 549Q416 549 387 557T330 574T287 583Q278 583 266 574T242
554T223 534T215 525H199Z" />
<glyph unicode="&#xf2;" horiz-adv-x="486" d="M198 -12Q113 -12 66 39T19 184Q19 252 38 307T92 401T178 462T289 484Q376 484 422 436T468 295Q468 226 449 170T395 73T309 10T198 -12ZM237 95Q256 95 267 109T283 159T288 259Q288 315 280 339T250 364Q231
364 220 350T203 304T198 215Q198 148 206 122T237 95ZM99 659L171 760H188Q188 760 204 746T246 707T306 653T375 593L334 532L312 525Q261 556 213 582T133 625T101 642L99 659Z" />
<glyph unicode="&#xf3;" horiz-adv-x="486" d="M198 -12Q113 -12 66 39T19 184Q19 252 38 307T92 401T178 462T289 484Q376 484 422 436T468 295Q468 226 449 170T395 73T309 10T198 -12ZM237 95Q256 95 267 109T283 159T288 259Q288 315 280 339T250 364Q231
364 220 350T203 304T198 215Q198 148 206 122T237 95ZM420 642Q420 642 389 626T309 583T209 525L187 532L146 593Q181 623 214 653T274 707T317 745T333 760H350L422 659L420 642Z" />
<glyph unicode="&#xf4;" horiz-adv-x="486" d="M198 -12Q113 -12 66 39T19 184Q19 252 38 307T92 401T178 462T289 484Q376 484 422 436T468 295Q468 226 449 170T395 73T309 10T198 -12ZM237 95Q256 95 267 109T283 159T288 259Q288 315 280 339T250 364Q231
364 220 350T203 304T198 215Q198 148 206 122T237 95ZM117 604Q143 625 169 646T218 688T260 725T288 750T299 760H326Q326 760 334 751T357 725T389 689T429 647T470 604L417 542L393 535Q383 543 372 551T350 566T329 581T309 594T293 604Q285 600 275 594T253
581T228 567T203 551T178 535L155 542L117 604Z" />
<glyph unicode="&#xf5;" horiz-adv-x="486" d="M198 -12Q113 -12 66 39T19 184Q19 252 38 307T92 401T178 462T289 484Q376 484 422 436T468 295Q468 226 449 170T395 73T309 10T198 -12ZM237 95Q256 95 267 109T283 159T288 259Q288 315 280 339T250 364Q231
364 220 350T203 304T198 215Q198 148 206 122T237 95ZM167 525L114 579L116 595L209 710L226 714Q243 714 272 706T329 689T372 680Q381 680 393 689T416 709T436 729T444 738H460L513 684L511 668L418 553L401 549Q384 549 355 557T298 574T255 583Q246 583 234
574T210 554T191 534T183 525H167Z" />
<glyph unicode="&#xf6;" horiz-adv-x="486" d="M198 -12Q113 -12 66 39T19 184Q19 252 38 307T92 401T178 462T289 484Q376 484 422 436T468 295Q468 226 449 170T395 73T309 10T198 -12ZM237 95Q256 95 267 109T283 159T288 259Q288 315 280 339T250 364Q231
364 220 350T203 304T198 215Q198 148 206 122T237 95ZM373 549Q338 549 320 566T302 616Q302 661 329 688T399 716Q433 716 451 698T469 648Q469 604 443 577T373 549ZM184 549Q150 549 132 566T114 616Q114 661 141 688T211 716Q245 716 263 698T281 648Q281
604 255 577T184 549Z" />
<glyph unicode="&#xf7;" horiz-adv-x="491" d="M485 314L455 178L235 177Q202 177 165 177T93 177T38 176T16 176L9 189L43 324Q43 324 65 324T121 324T194 323T264 323Q293 323 330 324T401 326T457 328T480 329L485 314ZM207 -17Q173 -17 155 1T137 52Q137 99
163 126T235 154Q269 154 286 136T304 85Q304 39 278 11T207 -17ZM251 344Q217 344 199 362T181 413Q181 460 207 487T280 515Q313 515 331 497T349 446Q349 400 322 372T251 344Z" />
<glyph unicode="&#xf8;" horiz-adv-x="486" d="M395 343L300 414L425 607L522 553L524 540L395 343ZM210 69L117 139L300 414L395 343L210 69ZM117 139L210 69L70 -138L-25 -83L-29 -73L117 139ZM198 -12Q113 -12 66 39T19 184Q19 252 38 307T92 401T178 462T289
484Q376 484 422 436T468 295Q468 226 449 170T395 73T309 10T198 -12ZM237 95Q256 95 267 109T283 159T288 259Q288 315 280 339T250 364Q231 364 220 350T203 304T198 215Q198 148 206 122T237 95Z" />
<glyph unicode="&#xf9;" horiz-adv-x="531" d="M174 -9Q108 -9 72 19T35 98Q35 113 41 138T55 193T72 252T86 307T92 346Q92 379 59 379H31L43 461Q67 461 101 462T178 467T266 473L282 453Q260 377 244 319T218 224T209 179Q209 168 211 163T222 157Q234 157
254 189T300 283T359 435L318 169L293 175Q262 104 233 58T174 -9ZM323 -12Q272 -12 272 36Q272 42 273 50T279 77T291 129T313 221L324 297L345 462L365 474L512 473L527 453Q514 412 501 363T476 266T457 178L461 174Q466 177 471 180T481 187T492 195L515 191L535
143Q480 82 444 49T380 2T323 -12ZM122 659L194 760H211Q211 760 227 746T269 707T329 653T398 593L357 532L335 525Q284 556 236 582T156 625T124 642L122 659Z" />
<glyph unicode="&#xfa;" horiz-adv-x="531" d="M174 -9Q108 -9 72 19T35 98Q35 113 41 138T55 193T72 252T86 307T92 346Q92 379 59 379H31L43 461Q67 461 101 462T178 467T266 473L282 453Q260 377 244 319T218 224T209 179Q209 168 211 163T222 157Q234 157
254 189T300 283T359 435L318 169L293 175Q262 104 233 58T174 -9ZM323 -12Q272 -12 272 36Q272 42 273 50T279 77T291 129T313 221L324 297L345 462L365 474L512 473L527 453Q514 412 501 363T476 266T457 178L461 174Q466 177 471 180T481 187T492 195L515 191L535
143Q480 82 444 49T380 2T323 -12ZM443 642Q443 642 412 626T332 583T232 525L210 532L169 593Q204 623 237 653T297 707T340 745T356 760H373L445 659L443 642Z" />
<glyph unicode="&#xfb;" horiz-adv-x="531" d="M174 -9Q108 -9 72 19T35 98Q35 113 41 138T55 193T72 252T86 307T92 346Q92 379 59 379H31L43 461Q67 461 101 462T178 467T266 473L282 453Q260 377 244 319T218 224T209 179Q209 168 211 163T222 157Q234 157
254 189T300 283T359 435L318 169L293 175Q262 104 233 58T174 -9ZM323 -12Q272 -12 272 36Q272 42 273 50T279 77T291 129T313 221L324 297L345 462L365 474L512 473L527 453Q514 412 501 363T476 266T457 178L461 174Q466 177 471 180T481 187T492 195L515 191L535
143Q480 82 444 49T380 2T323 -12ZM140 604Q166 625 192 646T241 688T283 725T311 750T322 760H349Q349 760 357 751T380 725T412 689T452 647T493 604L440 542L416 535Q406 543 395 551T373 566T352 581T332 594T316 604Q308 600 298 594T276 581T251 567T226
551T201 535L178 542L140 604Z" />
<glyph unicode="&#xfc;" horiz-adv-x="531" d="M174 -9Q108 -9 72 19T35 98Q35 113 41 138T55 193T72 252T86 307T92 346Q92 379 59 379H31L43 461Q67 461 101 462T178 467T266 473L282 453Q260 377 244 319T218 224T209 179Q209 168 211 163T222 157Q234 157
254 189T300 283T359 435L318 169L293 175Q262 104 233 58T174 -9ZM323 -12Q272 -12 272 36Q272 42 273 50T279 77T291 129T313 221L324 297L345 462L365 474L512 473L527 453Q514 412 501 363T476 266T457 178L461 174Q466 177 471 180T481 187T492 195L515 191L535
143Q480 82 444 49T380 2T323 -12ZM396 549Q361 549 343 566T325 616Q325 661 352 688T422 716Q456 716 474 698T492 648Q492 604 466 577T396 549ZM207 549Q173 549 155 566T137 616Q137 661 164 688T234 716Q268 716 286 698T304 648Q304 604 278 577T207 549Z"
/>
<glyph unicode="&#xfd;" horiz-adv-x="488" d="M271 457L459 484Q471 469 477 444T484 386Q484 325 436 230T289 0Q195 -128 124 -185T-14 -242Q-53 -242 -84 -225T-124 -182Q-114 -150 -99 -120T-59 -61L-44 -60Q-15 -95 8 -106T58 -106T119 -56Q107 43 96 126T75
269T60 352Q56 369 50 375T30 382Q25 382 17 382T4 381L10 460L216 476L227 467Q230 418 231 340T234 133H248Q266 174 280 214T302 287T311 340Q311 390 260 409L271 457ZM417 642Q417 642 386 626T306 583T206 525L184 532L143 593Q178 623 211 653T271 707T314
745T330 760H347L419 659L417 642Z" />
<glyph unicode="&#xfe;" horiz-adv-x="525" d="M-10 -89Q-10 -89 -6 -60T7 17T25 127T45 254T66 382T84 496T96 579T101 615Q101 648 68 648H40L52 730Q86 730 125 732T200 736T257 740T279 742L295 722Q295 722 290 696T276 627T257 528T235 415T214 302H224Q265
374 294 412T354 472Q430 472 471 429T513 307Q513 243 491 186T431 84T343 14T238 -12Q216 -12 196 -10T157 -4L145 -96Q141 -125 150 -135T187 -145H233Q233 -146 233 -147T234 -151L218 -230Q169 -230 116 -231T17 -233T-57 -236T-86 -237L-70 -155Q-42 -151
-29 -139T-10 -89ZM320 334Q311 334 298 316T270 269T242 205T219 136Q219 136 227 130T249 117T276 110Q292 110 305 130T325 186T333 266Q333 286 332 301T327 325T320 334Z" />
<glyph unicode="&#xff;" horiz-adv-x="479" d="M271 457L459 484Q471 469 477 444T484 386Q484 325 436 230T289 0Q195 -128 124 -185T-14 -242Q-53 -242 -84 -225T-124 -182Q-114 -150 -99 -120T-59 -61L-44 -60Q-15 -95 8 -106T58 -106T119 -56Q107 43 96 126T75
269T60 352Q56 369 50 375T30 382Q25 382 17 382T4 381L10 460L216 476L227 467Q230 418 231 340T234 133H248Q266 174 280 214T302 287T311 340Q311 390 260 409L271 457ZM370 549Q335 549 317 566T299 616Q299 661 326 688T396 716Q430 716 448 698T466 648Q466
604 440 577T370 549ZM181 549Q147 549 129 566T111 616Q111 661 138 688T208 716Q242 716 260 698T278 648Q278 604 252 577T181 549Z" />
<glyph unicode="&#x2013;" horiz-adv-x="434" d="M455 305L429 199Q386 199 343 199T257 199T170 199T83 198T-6 198L-14 217L9 322Q40 322 70 322T129 322T187 322T245 322Q270 322 295 322T346 322T397 322T448 324L455 305Z" />
<glyph unicode="&#x2014;" horiz-adv-x="801" d="M822 305L795 199Q728 199 662 199T531 199T399 199T267 198T132 198T-6 198L-14 217L9 322Q51 322 91 322T170 322T247 322T323 322T401 322Q439 322 489 322T592 322T692 322T772 322T814 324L822 305Z" />
<glyph unicode="&#x2018;" horiz-adv-x="261" d="M249 396Q192 345 142 345Q106 345 82 373T58 445Q58 500 98 556T210 661L271 620L273 595Q247 573 232 545T216 490Q216 469 225 447T251 411L249 396Z" />
<glyph unicode="&#x2019;" horiz-adv-x="260" d="M77 610Q134 661 184 661Q220 661 244 633T268 561Q268 506 228 450T116 345L55 386L53 411Q79 433 94 461T110 516Q110 537 101 559T75 595L77 610Z" />
<glyph unicode="&#x201a;" horiz-adv-x="231" d="M8 145Q35 166 62 177T110 189Q148 189 171 162T195 88Q195 53 175 16T117 -57T28 -122L-30 -76V-51Q-1 -30 16 -1T34 55Q34 75 26 96T5 131L8 145Z" />
<glyph unicode="&#x201c;" horiz-adv-x="473" d="M461 396Q404 345 354 345Q318 345 294 373T270 445Q270 500 310 556T422 661L483 620L485 595Q459 573 444 545T428 490Q428 469 437 447T463 411L461 396ZM249 396Q192 345 142 345Q106 345 82 373T58 445Q58
500 98 556T210 661L271 620L273 595Q247 573 232 545T216 490Q216 469 225 447T251 411L249 396Z" />
<glyph unicode="&#x201d;" horiz-adv-x="472" d="M289 610Q346 661 396 661Q432 661 456 633T480 561Q480 506 440 450T328 345L267 386L265 411Q291 433 306 461T322 516Q322 537 313 559T287 595L289 610ZM77 610Q134 661 184 661Q220 661 244 633T268 561Q268
506 228 450T116 345L55 386L53 411Q79 433 94 461T110 516Q110 537 101 559T75 595L77 610Z" />
<glyph unicode="&#x201e;" horiz-adv-x="436" d="M2 145Q29 166 56 177T104 189Q142 189 165 162T189 88Q189 53 169 16T111 -57T22 -122L-36 -76V-51Q-7 -30 10 -1T28 55Q28 75 20 96T-1 131L2 145ZM211 145Q238 166 265 177T313 189Q351 189 374 162T398 88Q398
53 378 16T320 -57T231 -122L173 -76V-51Q202 -30 219 -1T237 55Q237 75 229 96T208 131L211 145Z" />
<glyph unicode="&#x2022;" horiz-adv-x="330" d="M144 109Q92 109 64 136T36 216Q36 264 54 299T107 354T188 374Q239 374 266 346T294 267Q294 220 276 184T224 129T144 109Z" />
<glyph unicode="&#x2039;" horiz-adv-x="262" d="M240 387L245 364Q235 351 226 336T208 307T191 279T175 253T163 232Q166 223 170 212T179 187T189 159T200 130T212 101L202 78L136 42Q119 67 101 92T67 140T37 181T15 209T7 219L10 246Q10 246 17 253T38 273T67
303T103 339T143 380T182 422L240 387Z" />
<glyph unicode="&#x203a;" horiz-adv-x="262" d="M21 77L17 100Q26 113 35 128T54 157T71 185T86 211T98 232Q95 241 91 252T82 277T72 305T61 334T49 363L59 386L125 422Q142 397 160 372T195 324T225 283T246 255T254 245L251 218Q251 218 244 211T224 191T194
161T158 125T118 84T79 42L21 77Z" />
</font>
</defs>
</svg>
