<?xml version="1.0" standalone="no"?>
<!DOCTYPE svg PUBLIC "-//W3C//DTD SVG 1.1//EN" "http://www.w3.org/Graphics/SVG/1.1/DTD/svg11.dtd">
<svg xmlns="http://www.w3.org/2000/svg">
<defs >
<font id="Alegreya" horiz-adv-x="527" ><font-face
    font-family="Alegreya SemiBold"
    units-per-em="1000"
    panose-1="0 0 0 0 0 0 0 0 0 0"
    ascent="1016"
    descent="-345"
    alphabetic="0" />
<glyph unicode=" " horiz-adv-x="155" />
<glyph unicode="!" horiz-adv-x="274" d="M89 -11Q59 -11 44 6T29 49Q29 85 52 109T113 134Q142 134 157 117T173 74Q173 38 150 14T89 -11ZM129 666L142 681L261 701L274 686L159 226L105 216L93 228L129 666Z" />
<glyph unicode="&quot;" horiz-adv-x="311" d="M194 643Q188 620 178 584T156 507T131 428L88 410L76 414Q82 455 86 497T93 577T97 638L188 652L194 643ZM330 643Q324 620 314 584T292 507T267 428L224 410L212 414Q218 455 222 497T229 577T233 638L324 652L330 643Z" />
<glyph unicode="#" horiz-adv-x="500" d="M60 365L81 425L179 424L225 570L288 576L297 570L248 423H294L340 422L387 570L450 576L459 570L410 423L506 424L510 413L488 354L388 355L378 323L356 256L452 257L455 246L434 187L336 188L291 44L229 34L220 41L268
188L211 189L174 188L129 44L66 34L58 41L105 188L9 187L6 198L27 257L126 256L143 309L158 355H63L60 365ZM216 323L194 256H239L288 255L306 309L320 356H262H226L216 323V323Z" />
<glyph unicode="$" horiz-adv-x="445" d="M203 26L163 -151L106 -157L101 -151L140 22L203 26ZM140 22L242 478L305 481L203 26L140 22ZM242 478L281 651L338 658L343 649L305 481L242 478ZM168 -9Q126 -9 93 -2T40 12T21 20L16 31Q16 31 21 50T34 100T46 163L111
168Q106 126 110 102T132 67T185 57Q226 57 252 75T278 124Q278 150 253 168T192 204Q163 220 133 238T84 280T64 341Q64 390 92 428T169 487T284 509Q323 509 355 504T407 494T427 488L431 479Q431 479 425 461T411 411T395 345L337 340L330 345Q330 345 333 360T336
386Q336 415 320 426T265 438Q229 438 204 421T179 376Q179 355 196 340T238 310Q261 297 288 283T340 253T381 213T397 159Q397 109 369 71T290 12T168 -9Z" />
<glyph unicode="%" horiz-adv-x="677" d="M173 314Q117 314 84 351T50 451Q50 511 72 556T132 627T220 652Q260 652 286 635T327 587T341 519Q341 463 321 417T263 342T173 314ZM496 -12Q440 -12 407 25T374 125Q374 185 395 230T455 300T544 326Q583 326 609
309T650 261T664 192Q664 136 644 90T586 16T496 -12ZM514 76Q536 76 556 83T590 108T603 160Q603 193 583 214T521 235Q479 235 456 213T433 151Q433 111 457 94T514 76ZM191 402Q213 402 233 409T267 434T281 486Q281 520 260 541T198 562Q156 562 133 539T109
477Q109 437 133 420T191 402ZM602 638Q602 638 584 610T535 536T469 436T399 328T337 233Q310 190 282 144T226 56T178 -20T144 -74T131 -94L75 -69L70 -56Q70 -56 83 -36T118 19T169 95T226 181T281 268L541 678L595 655L602 638Z" />
<glyph unicode="&amp;" horiz-adv-x="570" d="M191 471Q191 422 222 393T303 364L556 382Q587 384 613 394T657 420L677 406L648 348Q635 322 617 312T569 301H492L487 294Q506 266 506 226Q506 175 486 132T428 56T342 6T236 -12Q176 -12 131 7T61 62T36 142Q36
201 75 247T190 319Q142 341 118 377T93 459Q93 515 123 558T206 627T326 653Q360 653 401 647T483 628L488 620Q473 583 462 542T447 468L377 464Q377 464 379 472T383 493T385 513Q385 543 365 558T306 574Q252 574 222 548T191 471ZM422 214Q422 253 406 277T366
301H252Q191 271 167 243T143 172Q143 123 174 94T261 65Q309 65 345 83T401 135T422 214Z" />
<glyph unicode="&apos;" horiz-adv-x="175" d="M194 643Q188 620 178 584T156 507T131 428L88 410L76 414Q82 455 86 497T93 577T97 638L188 652L194 643Z" />
<glyph unicode="(" horiz-adv-x="298" d="M84 336Q93 410 117 463T171 552T230 609T277 640T296 649H306L327 609L325 603Q325 603 307 591T263 551T214 474T182 351L161 178Q154 114 159 67T178 -13T207 -65T232 -93T243 -102V-109L203 -146H196Q196 -146 180
-137T141 -107T97 -51T65 37T63 163L84 336Z" />
<glyph unicode=")" horiz-adv-x="302" d="M220 167Q211 94 187 41T133 -49T74 -106T26 -137T7 -146H-1L-22 -106L-21 -100Q-21 -100 -3 -88T41 -48T90 29T122 152L143 325Q151 389 145 436T126 516T98 568T72 596T61 605L62 612L101 649H108Q108 649 124 640T163
610T207 554T240 466T242 340L220 167Z" />
<glyph unicode="*" horiz-adv-x="407" d="M108 671Q108 671 123 663T161 640T210 606L203 567L196 562Q170 570 145 577T104 587T88 591Q88 591 88 603T91 633T99 667L108 671ZM110 470Q110 470 122 482T156 511T203 547L237 528L240 521Q224 499 211 477T189
441T180 427Q180 427 169 431T141 442T110 460V470ZM301 410Q301 410 294 425T277 466T257 522L285 549L294 550Q310 528 326 508T352 476T363 463Q363 463 356 453T337 431T310 408L301 410ZM417 573Q417 573 400 571T356 567T297 566L280 601L282 610Q308 618
332 627T371 642T387 649Q387 649 393 639T408 614T422 581L417 573ZM299 734Q299 734 296 717T285 674T268 617L229 612L222 617Q222 644 221 670T218 712T216 729Q216 729 228 732T257 738T292 742L299 734Z" />
<glyph unicode="+" horiz-adv-x="488" d="M322 491Q322 491 319 473T311 426T301 364T292 301Q321 302 352 303T412 305T457 306T475 307L480 296L460 217L282 216Q277 175 272 134T264 66T261 39L183 26L174 33Q174 33 176 49T182 93T190 152T198 216Q158 216
118 216T50 216T22 215L16 225L39 302Q39 302 64 302T130 302T209 301L232 488L311 498L322 491Z" />
<glyph unicode="," horiz-adv-x="229" d="M25 96Q40 109 60 118T97 128Q124 128 141 106T159 43Q159 6 138 -29T82 -94T11 -146L-21 -121V-106Q12 -83 33 -52T54 10Q54 31 45 50T23 82L25 96Z" />
<glyph unicode="-" horiz-adv-x="312" d="M287 297L271 225L39 199L32 210L48 280L210 299Q249 303 264 305T280 308L287 297Z" />
<glyph unicode="." horiz-adv-x="280" d="M107 -11Q77 -11 62 6T47 49Q47 85 70 109T131 134Q160 134 175 117T191 74Q191 38 168 14T107 -11Z" />
<glyph unicode="/" horiz-adv-x="317" d="M355 662Q355 662 343 632T312 551T270 442T225 323T183 215Q160 153 139 95T100 -9T73 -83T63 -110H-11L-18 -100Q-18 -100 -6 -71T25 6T66 111T110 226L276 675H346L355 662Z" />
<glyph unicode="0" horiz-adv-x="490" d="M204 -12Q120 -12 73 44T26 196Q26 265 46 322T103 421T188 485T293 508Q349 508 388 483T449 411T470 302Q470 234 450 177T395 77T311 11T204 -12ZM234 101Q283 101 318 121T373 176T393 258Q393 318 358 354T259 390Q212
390 176 371T121 315T102 231Q102 173 137 137T234 101Z" />
<glyph unicode="1" horiz-adv-x="349" d="M260 403Q252 364 245 322T230 238T219 162T215 104Q215 79 223 69T252 58Q269 58 285 59T301 61L303 56L285 -4Q285 -4 271 -4T236 -2T191 -1T149 0Q128 0 103 -2T56 -6T20 -9T6 -11L19 46Q53 49 72 58T102 88T117 145L144
364Q149 401 138 411T102 421Q87 421 70 419T52 416L48 422L60 474Q68 475 86 477T128 482T175 489Q223 496 250 500T288 507T300 508L306 483Q287 468 278 452T260 403Z" />
<glyph unicode="2" horiz-adv-x="463" d="M-8 18L75 103Q137 167 175 215T233 298T252 359Q253 386 239 400T197 415Q168 415 136 394T77 334H65L57 399Q84 432 116 456T184 494T253 508Q312 508 348 478T384 396Q384 372 376 348T344 291T277 210T161 90L164
83H270Q301 83 320 90T352 117T377 174L443 180Q443 180 438 164T424 121T408 63T394 2L379 -9Q379 -9 355 -8T292 -6T209 -3T124 -1T57 0L-4 -10L-8 18Z" />
<glyph unicode="3" horiz-adv-x="412" d="M-3 3Q33 -9 76 -9Q122 -9 158 6T216 48T238 108Q238 147 204 165T98 185L91 193L92 246L156 261Q195 279 220 309T245 371Q245 394 229 408T188 423Q164 423 134 410T76 373H65L55 435Q63 440 83 452T129 477T184 499T238
508Q296 508 330 481T364 406Q364 361 330 320T239 255L238 248Q297 232 326 202T356 131Q356 90 328 49T255 -26T155 -81T47 -102Q8 -102 -5 -81T-16 -9L-3 3Z" />
<glyph unicode="4" horiz-adv-x="446" d="M-15 78Q-13 92 -10 106T-6 135L298 507Q300 507 301 507T304 508L371 498L329 153H410L416 142L399 69Q399 69 377 69T319 71Q316 34 313 -1T309 -58T307 -81L299 -90L196 -102L190 -92Q190 -92 193 -77T199 -37T208
17T217 74Q161 76 100 77T-15 78ZM89 153H226L251 345H241L89 153Z" />
<glyph unicode="5" horiz-adv-x="412" d="M354 144Q354 97 325 53T248 -26T145 -81T37 -102Q2 -102 -13 -83T-24 -9L-12 3Q25 -9 68 -9Q115 -9 152 6T212 47T235 108Q235 146 197 168T61 206L54 217Q64 264 73 311T89 396T100 456T104 479L113 487L299 494Q327
496 340 504T365 534L413 538L372 400L360 390Q360 390 333 392T262 396T164 398L145 294Q209 282 256 263T328 215T354 144Z" />
<glyph unicode="6" horiz-adv-x="444" d="M426 546Q426 546 408 538T359 514T296 470T230 406T174 318L177 313Q180 314 191 320T217 334T246 348T271 355Q319 355 351 335T399 280T415 207Q415 146 386 97T304 18T185 -12Q108 -12 67 39T25 171Q25 252 52 315T123
426T216 506T308 559T379 589T407 598L415 593L426 546ZM228 277Q202 277 178 265T142 246Q138 226 135 209T132 173Q132 120 152 89T211 58Q256 58 282 91T308 179Q308 220 287 248T228 277Z" />
<glyph unicode="7" horiz-adv-x="410" d="M132 -102L55 -77L47 -53L325 404L186 396Q155 395 138 387T110 361T90 307L36 301Q36 301 40 319T51 366T65 429T78 495L85 500Q85 500 102 499T146 497T202 496H409L438 455Q391 375 355 310T289 191T234 90T187 3L146
-102H132Z" />
<glyph unicode="8" horiz-adv-x="463" d="M28 115Q28 150 41 177T75 225T118 259T160 282Q127 304 103 335T79 414Q79 463 107 505T183 572T289 598Q329 598 362 584T415 541T436 474Q436 433 419 404T377 354T329 322Q363 300 389 269T416 188Q416 133 385 88T302
15T187 -12Q143 -12 107 3T50 47T28 115ZM213 52Q239 52 261 64T297 98T311 147Q311 173 296 191T256 225T204 255Q190 247 172 233T141 196T128 142Q128 106 151 79T213 52ZM184 449Q184 426 197 409T233 377T279 348Q298 362 316 386T335 452Q335 490 316 510T266
530Q230 530 207 506T184 449Z" />
<glyph unicode="9" horiz-adv-x="444" d="M24 -50Q24 -50 42 -42T90 -18T154 26T221 90T276 177L272 183Q270 182 259 176T233 162T204 148T179 141Q132 141 100 162T51 217T35 290Q35 350 64 400T146 479T266 508Q342 508 384 457T426 325Q426 244 398 181T327
71T235 -10T143 -63T72 -93T44 -102L36 -96L24 -50ZM222 220Q249 220 272 231T308 250Q313 271 315 289T318 323Q318 376 298 407T240 438Q194 438 168 405T142 315Q142 275 163 248T222 220Z" />
<glyph unicode=":" horiz-adv-x="229" d="M338 -11Q308 -11 293 6T278 49Q278 85 301 109T362 134Q391 134 406 117T422 74Q422 38 399 14T338 -11ZM115 264Q85 264 70 281T55 324Q55 360 78 384T139 409Q168 409 183 392T199 349Q199 313 176 289T115 264Z" />
<glyph unicode=";" horiz-adv-x="229" d="M279 96Q294 109 314 118T351 128Q378 128 395 106T413 43Q413 6 392 -29T336 -94T265 -146L233 -121V-106Q266 -83 287 -52T308 10Q308 31 299 50T277 82L279 96ZM139 264Q109 264 94 281T79 324Q79 360 102 384T163
409Q192 409 207 392T223 349Q223 313 200 289T139 264Z" />
<glyph unicode="&lt;" horiz-adv-x="461" d="M28 233L40 315L237 398Q270 412 302 425T362 450T405 468T422 475L433 468L441 401Q441 401 424 395T378 378T318 355T255 329L123 276L122 269L253 206Q289 189 324 172T382 144T406 132L408 118L363 61Q363 61 349
68T313 86T263 112T209 139Q185 150 156 164T99 191T53 212T35 221L28 233Z" />
<glyph unicode="=" horiz-adv-x="488" d="M469 211L450 133L231 132Q199 132 161 132T89 132T33 131T11 131L6 141L28 218Q28 218 51 218T109 218T184 217T255 217Q284 217 320 218T389 220T443 222T465 223L469 211ZM490 382L471 304L252 303Q219 303 182 303T110
303T55 302T33 302L27 312L50 389Q50 389 72 389T130 389T205 388T276 388Q305 388 340 389T409 391T463 393T485 394L490 382Z" />
<glyph unicode="&gt;" horiz-adv-x="461" d="M443 303L432 221L235 138Q203 124 170 111T109 86T66 68T49 61L38 68L30 136Q30 136 47 142T93 158T153 181T216 207L348 260L349 267L218 330Q183 347 148 364T90 393T66 404L64 418L109 475Q109 475 122 468T158
450T208 425T262 398Q287 386 316 372T373 345T419 324T437 315L443 303Z" />
<glyph unicode="?" horiz-adv-x="354" d="M90 339L94 354L209 420Q236 436 253 457T271 506Q271 554 226 578T102 608L98 621L142 696L157 701Q221 699 271 678T349 622T378 543Q378 504 364 476T325 424T267 380T194 332L190 324L195 238L189 228L107 210L97
215L90 339ZM115 -11Q85 -11 70 6T55 49Q55 85 78 109T139 134Q169 134 184 117T199 74Q199 38 176 14T115 -11Z" />
<glyph unicode="@" horiz-adv-x="824" d="M480 -12Q460 -12 449 -2T438 25Q438 30 441 47T449 86T459 132T468 175T475 203L467 205Q421 118 380 67T298 -12Q248 -12 222 27T195 131Q195 193 216 252T271 360T348 436T432 464L523 447L531 470L540 475L605 461L613
445Q613 445 607 423T592 363T572 278T551 178T533 76L538 70Q603 70 647 98T714 175T737 290Q737 375 700 436T597 529T439 561Q363 561 301 533T195 456T126 343T102 205Q102 102 142 22T264 -107T473 -160Q473 -163 473 -166T472 -174L443 -219Q340 -216 261
-185T128 -100T46 26T18 182Q18 252 39 318T101 442T196 541T319 608T466 633Q572 633 651 593T774 481T818 319Q818 251 796 191T730 86T625 14T480 -12ZM326 93Q341 93 369 129T431 226T494 363Q489 365 475 372T441 386T401 393Q377 393 354 364T317 286T302
184Q302 147 308 120T326 93Z" />
<glyph unicode="A" horiz-adv-x="590" d="M502 125Q509 88 524 74T574 54L577 49L564 -3Q564 -3 544 -2T497 -1T451 0Q412 0 376 -2T316 -6T293 -9L290 -1L300 51Q352 55 368 63T384 95Q384 102 383 110T381 127L369 216Q361 216 343 216T307 217T278 217Q262
217 243 216T206 213T180 210L143 123Q132 97 132 83Q132 54 175 54H222L224 49L211 -6Q211 -6 190 -5T137 -2T73 0Q49 0 23 0T-22 -2T-40 -3L-25 56Q-1 60 16 75T50 127L286 635L411 651L421 647Q421 647 424 622T434 555T448 458T465 345T483 230T502 125ZM211
281H284Q301 281 323 282T362 285L329 523H317L211 281Z" />
<glyph unicode="B" horiz-adv-x="596" d="M145 0Q126 0 103 -1T59 -5T26 -8T13 -10L26 48Q70 56 87 73T109 130L159 533Q162 562 157 573T133 584Q124 584 112 583T100 582L95 589L110 642Q110 642 124 642T160 641T201 641T235 640Q248 640 268 640T308 642T342
644T356 645Q445 645 500 610T555 510Q555 455 522 412T428 338Q487 321 519 285T551 201Q551 140 519 93T430 18T296 -10Q283 -10 264 -9T223 -5T182 -2T145 0ZM239 287L214 125Q210 91 230 77T304 62Q361 62 393 95T426 185Q426 225 403 252T331 288L239 287ZM249
362Q249 362 260 361T288 358T318 354T338 353Q338 353 352 359T386 379T419 419T434 484Q434 578 302 578Q292 578 288 574T281 558Q276 528 270 494T259 426T249 362Z" />
<glyph unicode="C" horiz-adv-x="595" d="M298 -12Q218 -12 160 20T69 112T36 255Q36 344 62 416T138 541T256 623T407 652Q437 652 470 648T531 640T578 632T596 628L600 617Q600 617 592 593T573 528T552 437L472 431Q472 431 474 443T479 470T482 495Q482 570
372 570Q311 570 265 536T195 436T170 277Q170 177 209 121T320 65Q358 65 386 80T436 127T474 210L553 216Q553 216 549 200T537 157T523 99T510 39L501 28Q501 28 475 18T404 -2T298 -12Z" />
<glyph unicode="D" horiz-adv-x="670" d="M284 -12Q284 -12 269 -10T229 -6T180 -2T135 0Q110 0 82 -2T34 -8T14 -11L28 49Q71 57 87 74T110 134L158 529Q162 561 157 572T134 583Q124 583 113 582T101 581L97 589L111 643Q111 643 123 643T155 642T193 641T227
640Q244 640 267 640T314 642T353 643T369 644Q456 644 521 613T621 523T657 384Q657 301 629 229T550 103T431 18T284 -12ZM313 573Q297 573 290 569T281 550Q273 500 265 452T250 357T236 271T226 200T219 147T216 119Q216 84 234 72T301 60Q370 60 420 98T497
206T524 370Q524 470 471 521T313 573Z" />
<glyph unicode="E" horiz-adv-x="573" d="M212 103Q212 78 225 72T274 65Q323 65 353 69T400 84T429 119T450 183L520 189L524 181Q524 181 516 155T497 89T475 2L467 -7Q467 -7 447 -7T395 -5T323 -2T244 -1T170 0Q130 0 94 -2T36 -7T13 -10L27 49Q69 55 86 73T108
134L158 530Q162 562 157 573T132 584Q124 584 113 583T101 582L97 589L111 643Q111 643 126 643T167 642T220 641T274 640Q346 640 400 641T496 645T567 652L572 643Q572 643 565 619T547 554T529 468L454 462Q454 462 456 472T460 496T462 522Q462 543 452 553T416
566T338 570Q313 570 301 568T285 559T278 534L250 363Q266 363 294 363T343 362Q355 362 374 363T412 367T444 370T457 372L463 365L440 289Q440 289 419 290T367 291T311 292Q290 292 270 290T238 286Q228 221 220 174T212 103Z" />
<glyph unicode="F" horiz-adv-x="506" d="M215 130Q211 94 217 79T249 64Q261 64 276 65T302 68T314 69L319 60L302 -4Q302 -4 286 -4T247 -2T198 -1T155 0Q122 0 89 -3T35 -8T13 -11L26 48Q70 56 86 73T108 134L158 530Q162 562 157 573T132 584Q124 584 113
583T101 582L97 589L111 643Q111 643 126 643T167 642T220 641T274 640Q337 640 387 641T477 645T546 652L551 643Q551 643 544 618T527 553T509 466L434 460Q434 460 436 470T440 496T443 522Q443 544 434 553T403 566T338 570Q313 570 301 568T285 559T278 534L248
346L341 345Q356 345 380 347T424 352T443 355L448 348L426 272Q426 272 406 273T359 274T309 275Q288 275 268 273T235 268L215 130Z" />
<glyph unicode="G" horiz-adv-x="633" d="M298 -12Q218 -12 160 20T69 112T36 255Q36 344 62 416T138 541T256 623T407 652Q437 652 470 648T531 640T578 632T596 628L600 617Q600 617 592 594T573 532T552 441L472 436Q472 436 474 447T479 472T482 496Q482 570
372 570Q311 570 265 536T195 436T170 277Q170 177 209 121T320 65Q353 65 377 72T415 87T429 95L441 200Q445 231 438 240T402 250Q392 250 379 250T357 250T347 250L344 257L361 320Q361 320 373 320T405 319T448 318T491 317Q512 317 533 318T568 321T582 322L584
290Q567 279 557 258T541 205Q538 185 535 158T528 108T525 74Q525 64 525 53T526 41L518 31Q518 31 491 21T414 -1T298 -12Z" />
<glyph unicode="H" horiz-adv-x="721" d="M13 -10L27 47Q59 54 75 64T100 95T111 155L158 531Q162 563 157 573T129 584Q124 584 115 584T99 582L96 589L109 642Q135 642 168 641T222 640Q241 640 275 642T354 648L343 590Q317 586 304 579T285 557T273 511L240
305L221 167Q218 145 215 122T214 84Q215 68 222 63T245 57Q255 57 266 58T284 60Q284 58 285 57T287 54L271 -3Q262 -2 243 -2T202 -1T166 0Q141 0 110 -1T52 -5T13 -10ZM219 279L235 361Q272 361 309 360T384 359Q419 359 448 361T525 368L513 290L381 291Q372
291 346 290T286 286T219 279ZM645 -3Q624 -2 591 -1T526 0H489Q471 0 451 0T412 -1T385 -2L400 56Q428 57 444 65T469 94T482 153L529 531Q533 562 528 573T500 584Q494 584 486 584T470 582L466 589L480 642Q480 642 490 642T515 642T547 641T579 640T602 640Q627
640 661 642T728 648L717 590Q680 585 667 574T648 534Q637 468 627 407T610 295T596 203T588 136T585 100Q585 76 592 67T619 57Q628 57 639 58T657 60Q658 58 659 57T660 54L645 -3Z" />
<glyph unicode="I" horiz-adv-x="350" d="M278 534Q270 489 261 436T244 328T228 226T216 145T212 98Q212 74 220 66T245 57Q262 57 276 58T290 60L293 54L278 -3Q278 -3 263 -3T226 -2T180 -1T140 0Q121 0 99 -1T57 -4T25 -8T12 -10L26 47Q70 56 87 73T109 132L158
531Q162 563 157 573T129 584Q120 584 107 583T94 582Q93 584 92 585T90 589L104 642Q112 642 134 642T184 641T232 640Q248 640 270 641T313 643T348 646T362 648L349 590Q311 585 297 574T278 534Z" />
<glyph unicode="J" horiz-adv-x="318" d="M148 531Q152 563 147 573T121 583Q115 583 105 583T86 581T78 580L76 587L89 640H203Q233 640 264 642T317 646T339 648L327 590Q294 584 284 575T268 534Q264 507 257 465T243 374T228 274T214 181T203 107Q190 7 138
-54T-14 -150L-34 -113L-30 -102Q12 -76 37 -48T76 19T97 120L148 531Z" />
<glyph unicode="K" horiz-adv-x="625" d="M158 531Q162 563 157 573T129 584Q121 584 110 583T99 582L96 589L110 643Q110 643 124 643T159 641T200 640T232 640Q247 640 268 641T309 643T342 646T356 648L345 590Q307 583 293 571T275 531L215 124Q209 84 215
71T245 57Q260 57 272 58T285 60L289 54L273 -3Q273 -3 259 -3T222 -2T178 -1T140 0Q121 0 99 0T57 -1T26 -2T13 -2L29 54Q73 60 88 75T109 132L158 531ZM264 334L435 502Q453 520 461 534T470 558Q470 571 458 577T420 586L417 592L432 646Q432 646 444 645T474
643T513 641T547 640Q561 640 579 640T614 642T642 643T653 644L656 635L644 584Q623 577 605 566T566 536T515 486L372 343L485 136Q510 91 533 71T588 50L593 43L580 -3Q580 -3 567 -5T536 -9T502 -13T480 -15Q452 -15 429 6T384 70L260 316L264 334Z" />
<glyph unicode="L" horiz-adv-x="504" d="M174 0Q134 0 99 -2T41 -7T19 -10L34 49Q71 55 87 73T108 134L158 531Q162 563 156 573T129 584Q121 584 110 583T98 582Q98 584 97 585T95 589L109 642Q118 642 139 642T186 641T232 640Q248 640 271 641T316 643T352
646T367 648L354 588Q324 584 309 578T287 556T273 506Q267 474 260 428T244 332T230 234T219 154T214 109Q214 83 226 74T275 65Q312 65 336 70T375 91T403 136T426 213L497 220Q497 218 498 217T501 213Q501 213 493 183T472 104T448 0L439 -8Q439 -8 414 -7T347
-5T260 -2T174 0Z" />
<glyph unicode="M" horiz-adv-x="811" d="M333 -17Q311 99 293 187T261 346T234 475H227Q205 355 191 280T170 162T159 102T156 82Q156 56 183 56Q187 56 198 56T218 58Q218 56 219 55T221 53L204 -4Q183 -2 162 -2T124 -1T96 0Q89 0 78 0T54 -2T28 -5T3 -8L17
50Q47 55 61 71T85 124Q89 147 97 184T115 268T135 360T153 447T166 514T171 547Q171 567 155 577T101 590L97 595L111 645Q156 643 185 642T227 640Q241 640 266 641T320 644Q328 589 338 529T359 410T381 296T403 199H410Q432 246 463 317T529 473T599 642Q609
642 626 642T663 640T700 640Q718 640 748 642T800 646Q801 645 802 644T803 642L791 590Q749 586 733 575T713 536Q711 521 709 487T705 410T700 319T697 227T693 150Q692 95 699 76T729 57Q733 57 740 57T756 59Q757 57 758 56T759 54L743 -3Q725 -2 698 -1T648
0Q638 0 622 0T588 -2T552 -5T519 -8L533 51Q562 54 576 66T593 100Q594 110 596 146T602 236T609 351T616 475H608Q593 442 573 398T527 296T467 163T389 -9L333 -17Z" />
<glyph unicode="N" horiz-adv-x="698" d="M515 199L556 540Q558 564 552 573T529 583Q518 583 508 583T495 583L492 589L507 644Q507 644 518 644T548 642T586 641T620 640Q643 640 668 641T711 645T729 647L717 588Q684 584 668 569T646 525L567 -19L488 -32Q440
69 396 157T316 312T261 417T241 455H234L187 99Q184 75 190 66T215 56Q220 56 230 56T249 57T258 58L262 53L246 -4Q246 -4 234 -4T204 -2T165 -1T129 0Q106 0 80 -2T37 -6T19 -8L33 50Q63 54 79 68T99 113L162 526Q166 557 151 569T89 587Q88 590 87 591T85 595L97
645Q97 645 114 644T155 642T200 640Q219 640 238 641T270 643T283 644Q324 557 363 478T435 335T487 236T507 199H515Z" />
<glyph unicode="O" horiz-adv-x="655" d="M292 -12Q217 -12 159 21T69 114T36 255Q36 341 61 413T133 539T242 622T382 652Q460 652 518 619T609 527T642 387Q642 301 617 228T544 101T433 18T292 -12ZM311 61Q370 61 414 97T483 202T508 362Q508 427 490 473T439
545T360 570Q303 570 259 533T191 429T166 268Q166 204 184 158T234 86T311 61Z" />
<glyph unicode="P" horiz-adv-x="548" d="M110 642Q117 642 137 642T181 641T226 640Q238 640 258 640T299 642T334 643T349 644Q404 644 445 632T513 598T554 547T568 484Q568 435 547 390T491 310T412 254T319 234H230L212 114Q208 82 216 69T251 56Q264 56
280 58T297 60Q297 58 297 57T299 54L283 -3Q283 -3 271 -3T240 -2T204 -1T173 0Q154 0 128 -1T77 -3T34 -6T17 -8L31 51Q73 58 88 74T109 134L158 530Q162 562 157 573T132 584Q123 584 111 583T99 582L95 589L110 642ZM330 297Q388 309 417 352T447 463Q447 520
413 547T307 574Q291 574 288 572T283 557Q271 502 261 438T242 311L330 297Z" />
<glyph unicode="Q" horiz-adv-x="659" d="M396 18L395 1Q448 -41 492 -68T575 -107T650 -119Q673 -119 691 -117T721 -112T732 -109L738 -114L743 -146Q743 -146 733 -153T706 -172T673 -196T640 -215T618 -223Q586 -223 557 -215T491 -185T406 -121T282 -12L396
18ZM310 60Q370 60 415 96T485 201T510 362Q510 426 492 473T439 545T360 571Q303 571 259 534T190 430T165 269Q165 205 182 158T233 86T310 60ZM292 -12Q217 -12 159 21T69 115T36 255Q36 341 61 413T133 539T242 622T382 652Q459 652 517 619T609 527T642 387Q642
301 616 228T544 101T433 18T292 -12Z" />
<glyph unicode="R" horiz-adv-x="610" d="M234 260L216 134Q212 100 214 83T231 61T276 55L278 50L262 -4Q262 -4 250 -4T219 -3T180 -2T142 -1Q115 0 85 -1T34 -4T13 -6L29 53Q71 59 87 75T109 134L158 533Q162 563 157 573T132 584Q123 584 111 583T99 582L95
589L110 643Q110 643 122 643T154 641T192 640T226 640Q240 640 260 640T301 642T334 643T348 644Q412 644 460 627T536 578T563 498Q563 432 526 378T411 287L483 134Q505 88 528 68T584 48L589 40L577 -5L472 -16Q442 -16 419 8T379 78L312 260H234ZM335 326Q340
329 357 337T393 361T427 406T442 477Q442 578 301 578Q291 578 288 574T280 555Q271 505 265 467T254 398T246 336L335 326Z" />
<glyph unicode="S" horiz-adv-x="516" d="M193 -12Q144 -12 106 -3T46 15T23 24L17 37Q17 37 21 51T31 89T43 144T54 208L123 214Q116 154 121 121T149 74T216 61Q270 61 304 87T339 158Q339 193 308 218T234 266Q198 287 162 310T101 364T77 442Q77 502 111 549T204
624T338 652Q385 652 422 646T481 633T504 626L508 616Q508 616 501 593T484 530T465 445L403 440L396 446Q396 446 398 456T402 480T404 505Q404 542 383 558T313 574Q266 574 234 549T201 485Q201 457 221 436T272 396Q302 378 335 360T399 320T448 269T467 202Q467
140 433 92T338 16T193 -12Z" />
<glyph unicode="T" horiz-adv-x="541" d="M256 577Q211 575 185 571T145 554T122 516T103 448L33 443Q33 443 36 460T45 507T57 571T69 641L81 651L169 640H470L564 651L573 641Q570 606 567 572T563 509T562 465T561 448L490 443Q490 488 488 514T475 553T442
570T376 577Q371 553 365 512T350 422T335 321T321 225T311 149T307 108Q307 81 317 69T353 57Q376 57 391 58T406 60L409 56L393 -4Q393 -4 376 -4T332 -2T279 -1T233 0Q214 0 189 -1T139 -3T98 -5T81 -6L96 51Q128 54 148 59T179 76T196 108T206 164L256 577Z"
/>
<glyph unicode="U" horiz-adv-x="639" d="M202 242Q201 231 200 220T199 199Q199 134 227 100T313 65Q378 65 415 101T462 211Q465 231 469 269T478 352T487 437T495 504T498 530Q500 564 496 574T472 584Q464 584 450 583T436 582L435 586L450 643Q450 643 470
642T516 641T560 640Q584 640 609 641T652 645T670 647L657 589Q618 582 606 573T591 536L551 215Q537 105 468 47T282 -12Q183 -12 133 33T83 166Q83 185 86 206L126 530Q130 563 126 573T100 584Q91 584 80 583T68 582L67 586L82 643Q82 643 103 642T155 641T210
640Q225 640 244 641T280 643T309 646T321 648L308 588Q275 584 262 573T245 534L202 242Z" />
<glyph unicode="V" horiz-adv-x="597" d="M110 523Q105 554 89 568T40 584L37 590L51 642Q51 642 72 642T121 641T168 640Q193 640 220 641T270 644T309 647T324 649L327 642L316 589Q280 587 263 582T239 567T233 543Q233 529 236 492T245 407T256 309T267 215T276
144T280 117H292Q305 146 324 187T364 274T405 367T442 453T469 520T479 555Q479 571 468 578T429 585H387L383 591L397 646Q397 646 419 645T476 642T540 640Q565 640 590 640T633 642T651 643L637 584Q611 582 600 573T574 534L328 5L198 -16Q198 -16 195 8T184
75T169 172T150 287T130 408T110 523Z" />
<glyph unicode="W" horiz-adv-x="918" d="M526 -16L479 362H470L314 5L186 -16Q186 -16 183 8T175 75T162 172T145 287T127 408T109 523Q103 554 88 568T42 584L39 590L52 642Q52 642 72 642T120 641T165 640Q203 640 238 642T296 647T319 649L322 642L312 589Q261
585 244 575T227 542Q227 526 230 489T238 403T249 305T259 213T267 144T271 117H282Q301 162 321 209T363 305T404 400T443 487Q444 501 444 509T441 523T438 534Q434 561 420 572T371 584L368 590L382 642Q382 642 395 642T429 641T469 641T505 640Q540 640 575
642T634 647T658 649L661 642L650 589Q598 585 582 576T565 543Q565 528 568 491T576 406T587 308T598 214T607 144T610 117H621Q635 150 654 193T694 283T734 377T770 462T795 527T804 559Q804 574 793 579T754 585H718L715 591L729 646Q729 646 750 645T803 642T864
640Q888 640 912 640T953 642T970 643L956 584Q932 581 921 572T896 534L652 5L526 -16Z" />
<glyph unicode="X" horiz-adv-x="648" d="M318 -7L315 0L326 52Q358 53 375 61T393 85Q393 99 381 122L309 261L224 159Q205 137 195 122T180 98T176 80Q176 68 185 62T219 54L222 48L209 -6Q209 -6 196 -5T163 -3T124 0T90 1Q77 1 59 0T24 -2T-4 -3T-15 -4L-18
5L-7 57Q19 65 45 84T98 131T155 193L271 326L181 501Q168 527 151 544T113 570T65 584L63 589L76 643Q76 643 90 643T126 641T175 640T224 640Q249 640 274 641T320 643T354 646T367 648L370 639L360 590Q289 586 289 556Q289 541 309 498T361 390Q378 412 399
438T441 490T475 536T488 566Q488 577 479 582T445 589Q445 591 445 592T444 594L455 645Q464 645 485 644T531 641T576 640Q598 640 621 640T662 642T679 643L682 637L670 585Q640 576 619 564T577 532T529 480L402 329L501 142Q524 101 550 82T620 58L607 -2Q607
-2 594 -2T562 -1T521 0T484 1Q469 1 448 0T404 -2T362 -4T330 -6T318 -7Z" />
<glyph unicode="Y" horiz-adv-x="557" d="M236 556Q236 547 242 523T257 468T275 408T291 357T299 331H306L416 515Q436 547 436 566Q436 577 426 582T390 589L388 594L401 645Q410 645 431 644T477 641T522 639Q543 639 565 640T602 642T618 643L621 637L608
585Q586 579 569 570T538 546T508 509T472 456L358 279Q346 261 340 242T329 196T319 124Q315 87 321 72T355 57Q371 57 387 58T403 60L406 56L390 -4Q390 -4 374 -4T334 -2T285 -1T243 0Q223 0 200 -2T154 -5T118 -9T104 -11L118 48Q155 54 174 64T202 93T213
148L217 183Q220 211 218 233T203 290L134 478Q122 512 112 533T84 567T35 584L32 589L46 643Q46 643 58 643T90 641T129 640T164 639Q183 639 208 640T258 643T298 646T314 648L317 639L306 590Q266 588 251 581T236 556Z" />
<glyph unicode="Z" horiz-adv-x="555" d="M456 -3L88 3L15 -4L0 35L411 576L273 568Q231 566 206 554T166 516T141 440L70 435Q70 435 74 454T86 504T100 571T112 642L123 652L293 641L563 636L574 600Q501 512 435 428T312 271T216 144T155 62L318 72Q367 75
399 111T454 228L525 235Q525 235 519 215T505 161T489 90T474 15L456 -3Z" />
<glyph unicode="[" horiz-adv-x="304" d="M39 -123Q39 -123 43 -94T55 -20T70 77T85 176T96 253Q100 283 104 330T114 429T123 528T129 603T132 632L334 643L338 636L325 588L221 566L144 -56L246 -78L249 -87L237 -134L39 -123Z" />
<glyph unicode="\" horiz-adv-x="317" d="M84 675H153L209 226Q216 169 224 112T239 7T251 -70T256 -100L247 -110H173Q173 -110 170 -83T161 -10T148 95T132 215Q126 264 118 323T102 441T86 551T75 631T71 662L84 675Z" />
<glyph unicode="]" horiz-adv-x="304" d="M272 632Q272 632 268 603T256 529T241 432T226 333T215 256Q211 226 207 179T197 80T188 -18T182 -94T179 -123L-24 -134L-27 -126L-14 -78L91 -56L167 566L65 588L62 596L74 643L272 632Z" />
<glyph unicode="^" horiz-adv-x="475" d="M314 474Q314 474 319 455T334 404T352 340T370 280Q379 250 388 220T406 164T419 124T424 108L363 70L349 73Q349 73 342 99T322 164T298 243L256 389H250L183 256Q167 226 151 194T122 134T100 89T92 71L26 87L21 99Q21
99 29 115T51 159T82 218T117 283L221 478L303 482L314 474Z" />
<glyph unicode="_" horiz-adv-x="437" d="M406 -98L388 -167Q343 -167 293 -167T192 -167T95 -167T12 -168T-49 -168L-55 -156L-36 -89Q-25 -89 0 -89T59 -89T129 -90T196 -90Q225 -90 258 -89T323 -88Q360 -87 380 -87T401 -85L406 -98Z" />
<glyph unicode="`" horiz-adv-x="383" d="M86 667L135 728L148 729Q148 729 162 714T199 674T251 619T310 559L283 526L270 522Q225 558 183 588T115 636T88 654L86 667Z" />
<glyph unicode="a" horiz-adv-x="483" d="M370 91Q375 91 381 94T402 110T441 144L456 142L471 110Q424 62 394 36T344 -1T305 -12Q288 -12 278 -3T267 22Q267 33 277 79T304 203L297 205Q251 121 211 70T128 -12Q80 -12 53 25T25 129Q25 191 45 250T99 358T176
435T262 464L353 447L360 470L370 475L434 461L442 445Q427 390 413 327T386 204T367 94L370 91ZM157 93Q168 93 187 115T230 175T277 261T323 363Q301 376 276 384T233 393Q207 393 184 363T146 285T131 183Q131 145 138 119T157 93Z" />
<glyph unicode="b" horiz-adv-x="476" d="M44 48Q61 156 77 258T106 443T126 578T133 639Q133 676 94 676H58L65 728Q88 728 119 729T185 732T248 736L259 721Q247 664 233 600T207 470T183 345T165 235L170 233Q202 297 228 341T278 416T330 467Q385 467 417
424T450 307Q450 245 431 188T377 87T300 17T209 -9Q183 -9 155 -5T100 8T55 26L44 48ZM310 366Q299 366 282 346T244 288T200 201T153 91Q174 81 202 74T247 67Q272 67 294 94T331 166T345 261Q345 290 340 313T327 351T310 366Z" />
<glyph unicode="c" horiz-adv-x="360" d="M237 391Q210 391 186 363T146 289T131 190Q131 136 148 105T193 73Q220 73 247 96T291 156L308 154L335 119Q317 82 288 53T225 6T158 -12Q98 -12 63 34T27 158Q27 219 47 275T101 375T179 444T271 470Q298 470 323 465T364
448L369 435L329 348L306 345Q277 391 237 391Z" />
<glyph unicode="d" horiz-adv-x="484" d="M370 91Q375 91 379 93T397 107T441 144L456 142L471 110Q426 64 396 38T345 0T308 -12Q267 -12 267 23Q267 29 270 46T278 86T288 133T297 176T304 203L296 205Q251 121 211 70T128 -12Q79 -12 52 26T25 131Q25 192 45
251T99 358T176 435T262 464L332 450L357 632Q360 655 351 665T319 676H282L290 728Q316 728 347 729T407 732T454 734T472 736L484 721Q484 721 478 691T461 607T437 488T411 352T387 215T367 94L370 91ZM155 93Q172 93 200 130T260 229T321 363Q310 370 295 377T263
388T231 393Q206 393 183 363T146 285T131 184Q131 146 138 120T155 93Z" />
<glyph unicode="e" horiz-adv-x="382" d="M371 381Q371 338 347 304T269 242T129 185Q128 134 145 104T194 73Q223 73 250 94T298 154L315 153L342 118Q323 81 293 52T229 5T159 -12Q99 -12 63 34T27 160Q27 219 47 275T102 375T181 444T272 470Q319 470 345 447T371
381ZM239 392Q215 392 194 372T156 318T133 240Q207 264 240 291T274 353Q274 392 239 392Z" />
<glyph unicode="f" horiz-adv-x="279" d="M25 402L30 443L112 455L120 524Q125 570 146 609T200 678T274 725T357 742Q384 742 413 738T461 727L465 716L425 631L406 628Q377 647 354 655T311 664Q273 664 253 639T225 560L212 453L351 454L356 449L346 398L215
399L206 393L157 -53Q153 -93 137 -127T95 -188T39 -228T-26 -242Q-63 -242 -92 -227T-130 -191Q-126 -176 -118 -157T-101 -120T-85 -91H-69Q-68 -130 -50 -151T2 -173Q29 -173 49 -151T72 -93Q76 -56 76 -23T80 41L107 388L99 395L28 397L25 402Z" />
<glyph unicode="g" horiz-adv-x="463" d="M93 -241Q46 -241 6 -223T-58 -174T-78 -108L-75 -101Q-58 -89 -30 -72T32 -34T102 6L103 15Q75 29 60 64T44 147Q44 204 64 260T117 363T191 436T274 464L366 447L375 470L385 475L449 461L459 446Q441 409 427 374T404
309T393 252Q390 231 388 199T384 130T380 61T375 11Q371 -23 352 -58T303 -126T238 -185T165 -226T93 -241ZM134 -162Q194 -162 234 -121T284 -7L308 189L299 191Q265 132 242 96T199 40T158 3Q131 -16 101 -36T49 -72T28 -96Q28 -111 43 -126T83 -151T134 -162ZM181
105Q194 105 218 138T272 229T335 364Q322 371 306 378T274 389T243 393Q220 393 199 365T164 293T150 200Q150 161 159 133T181 105Z" />
<glyph unicode="h" horiz-adv-x="501" d="M375 92Q379 92 385 95T404 110T445 145L461 143L476 111Q434 67 404 41T352 2T313 -11Q271 -11 271 28Q271 44 278 73T296 136T317 206T335 270T342 317Q342 334 334 344T313 354Q295 354 269 322T213 233T151 100L141
24Q141 18 126 10T90 -3T51 -8L40 5Q40 5 45 36T58 120T76 236T96 365T114 487T128 584T135 635Q136 657 128 666T97 676H60L68 728Q94 728 125 729T185 732T232 734T251 736L261 721Q261 721 255 693T238 616T216 504T190 372T167 235L173 233Q218 325 263 386T348
471Q392 471 421 443T450 371Q450 348 440 313T417 237T391 160T372 95L375 92Z" />
<glyph unicode="i" horiz-adv-x="277" d="M160 91Q167 91 179 100T230 144L246 142L261 110Q221 67 191 40T138 1T98 -12Q57 -12 57 33Q72 121 83 191T100 305T106 359Q106 381 97 390T67 399H30L38 451Q61 451 92 452T157 455T220 459L232 444Q217 395 203 333T176
209T157 94L160 91ZM427 816Q399 816 386 832T372 872Q372 908 395 931T453 955Q481 955 495 939T509 898Q509 864 486 840T427 816Z" />
<glyph unicode="j" horiz-adv-x="263" d="M151 19Q143 -44 118 -93T54 -180T-40 -243L-63 -216L-60 -206Q-22 -178 2 -148T40 -74T62 36Q62 36 65 57T75 112T87 185T99 260T108 323T112 359Q112 399 71 399H35L44 451Q70 451 101 452T160 455T206 457T224 459L236
444Q236 444 230 420T215 353T194 256T171 140T151 19ZM183 577Q158 577 144 592T130 632Q130 669 153 692T211 715Q236 715 250 701T264 661Q264 625 241 601T183 577Z" />
<glyph unicode="k" horiz-adv-x="465" d="M218 185L224 201Q248 213 269 226T306 254T332 286T341 322Q341 337 333 345T313 354Q295 354 268 322T209 232T147 99L137 24Q136 18 121 10T86 -3T47 -8L36 5Q36 5 41 37T54 123T73 242T94 373T112 496T126 592T131
639Q131 676 92 676H55L63 728Q90 728 121 729T181 732T228 734T246 736L257 721Q257 721 251 693T234 616T211 504T186 372T163 235L168 233Q213 324 258 385T344 471Q389 471 417 443T446 373Q446 327 410 280T306 190Q326 157 345 127T380 74T405 37T415 23V8L321
-20L308 -13L218 185Z" />
<glyph unicode="l" horiz-adv-x="263" d="M148 91Q155 91 166 100T218 144L233 142L249 110Q209 67 179 40T126 1T86 -12Q44 -12 44 29Q44 34 49 68T62 153T80 267T99 391T117 506T131 594T136 638Q136 676 97 676H60L68 728Q94 728 125 729T185 732T232 734T250
736L261 721Q261 721 255 691T238 609T214 492T188 356T164 218T144 94L148 91Z" />
<glyph unicode="m" horiz-adv-x="755" d="M628 92Q633 92 638 95T658 110T699 145L715 143L730 111Q687 67 657 41T604 2T566 -11Q524 -11 524 28Q524 44 531 72T550 136T572 206T591 270T599 317Q599 334 591 344T570 354Q552 354 524 320T462 224T396 84L386
24Q386 18 371 10T335 -3T296 -8L285 5Q285 5 289 25T301 78T317 148T333 221T346 283T351 319Q351 335 343 344T322 354Q305 354 279 322T224 233T164 101L154 24Q153 18 138 10T103 -3T64 -8L53 5Q53 5 56 28T66 87T79 166T91 248T101 318T107 358Q108 380 99
389T67 399H30L39 451Q65 451 96 452T155 455T202 457T221 459L232 444Q232 444 226 426T212 378T195 311T180 235L184 233Q228 325 272 386T357 471Q400 471 428 444T456 374Q456 362 452 339T440 292T429 252T424 235L428 233Q472 322 518 384T606 471Q651 471
678 444T705 373Q705 350 695 314T671 238T645 160T625 95L628 92Z" />
<glyph unicode="n" horiz-adv-x="512" d="M328 -11Q286 -11 286 28Q286 44 293 73T310 136T331 206T349 270T356 317Q356 334 349 344T328 354Q310 354 282 319T222 220T158 74L169 239L190 233Q234 324 279 385T363 471Q407 471 434 443T462 371Q462 349 453
313T430 237T405 160T387 95L390 92Q394 92 400 95T420 110T459 145L475 143L490 111Q449 67 419 41T367 2T328 -11ZM68 -8L57 5Q66 59 75 116T92 224T105 311T111 358Q112 379 103 389T72 399H35L44 451Q73 451 123 453T225 459L235 444Q224 412 214 372T195 291T182
219L171 128L158 24Q157 18 142 10T107 -3T68 -8Z" />
<glyph unicode="o" horiz-adv-x="432" d="M163 -12Q102 -12 66 34T29 162Q29 226 47 282T99 380T176 446T270 471Q334 471 369 429T405 308Q405 242 387 184T336 81T259 13T163 -12ZM203 60Q231 60 252 83T284 152T296 260Q296 323 279 357T229 391Q201 391 180
369T148 305T136 206Q136 137 154 99T203 60Z" />
<glyph unicode="p" horiz-adv-x="500" d="M-16 -185Q8 -182 19 -169T40 -119Q44 -102 51 -64T66 26T83 131T98 234T109 317T114 361Q114 381 105 390T74 399H37L46 451Q68 451 99 452T165 455T228 459L239 445Q206 347 186 240L192 238Q222 301 248 344T299 418T350
471Q405 471 438 428T471 313Q471 256 452 200T399 97T326 23T246 -5L150 10L131 -126Q127 -154 136 -164T173 -175H215L216 -181L207 -229Q174 -229 133 -230T50 -232T-25 -236L-16 -185ZM331 370Q317 370 292 335T236 238T175 99Q199 87 228 79T278 71Q300 71
320 100T353 174T366 267Q366 294 361 317T348 355T331 370Z" />
<glyph unicode="q" horiz-adv-x="463" d="M275 50L302 201L294 202Q249 119 213 69T138 -12Q87 -12 57 30T26 141Q26 200 46 257T100 361T177 436T262 464L351 447L370 497L381 503L446 491L453 475Q448 466 440 434T420 355T398 251T375 137T355 25T341 -71T335
-136Q335 -157 341 -165T364 -174L396 -173L399 -179L390 -228Q323 -228 270 -231T186 -237T155 -240L165 -187Q193 -184 209 -178T233 -158T246 -115L275 50ZM162 93Q177 93 201 127T257 223T322 363Q310 370 294 377T262 388T231 393Q206 393 183 364T146 288T131
192Q131 151 140 122T162 93Z" />
<glyph unicode="r" horiz-adv-x="369" d="M53 5Q53 5 57 28T67 88T80 167T93 250T103 319T107 359Q107 380 98 389T67 399H30L39 451Q65 451 96 452T155 455T202 457T221 459L232 444Q232 444 224 417T205 348T186 262H191Q218 322 249 367T311 439T370 467Q379
462 386 447T395 416Q394 398 390 379T382 343T374 317T370 307L340 305Q339 320 334 326T320 333Q289 333 248 278T167 125L154 24Q153 18 138 10T103 -3T64 -8L53 5Z" />
<glyph unicode="s" horiz-adv-x="359" d="M64 151Q65 107 90 82T156 57Q182 57 199 72T216 109Q216 132 198 150T153 186Q131 203 109 221T73 263T58 317Q58 359 82 394T147 450T236 471Q274 471 305 460T355 430Q345 405 333 379T311 336H294Q283 365 262 381T215
398Q195 398 181 385T166 353Q166 339 174 326T196 302Q213 287 234 272T276 238T309 198T322 147Q322 105 296 69T228 10T133 -12Q83 -12 47 4T2 47Q6 63 13 83T30 122T46 152L64 151Z" />
<glyph unicode="t" horiz-adv-x="300" d="M274 148L289 116Q259 80 230 51T176 5T136 -12Q93 -12 71 11T53 77L105 389L99 395L34 397L31 402L37 443L114 455Q118 483 121 510T127 554T129 572L245 607L253 595Q253 595 248 575T234 523T216 453L330 454L335 449L325
398L215 399L203 392L151 123Q147 89 172 89Q185 89 204 103T258 150L274 148Z" />
<glyph unicode="u" horiz-adv-x="502" d="M150 -11Q102 -11 74 14T46 80Q46 97 53 126T70 191T90 260T107 322T114 364Q114 399 75 399H38L48 451Q70 451 100 452T165 455T230 459L241 444Q215 366 195 300T162 188T150 127Q150 111 155 104T175 96Q192 96 221
133T285 239T358 399L336 203L312 211Q271 130 232 75T150 -11ZM322 -12Q281 -12 281 23Q281 29 283 43T291 82T306 148T327 244L331 295L358 456L370 462L459 455L468 444Q453 395 438 335T409 213T388 101L391 97Q396 98 402 101T421 115T455 144L470 142L486
110Q440 64 410 38T359 0T322 -12Z" />
<glyph unicode="v" horiz-adv-x="441" d="M138 -11L122 3Q120 57 114 122T101 249T84 359Q80 380 73 387T48 395Q43 395 32 395T11 393T2 392L6 443Q32 446 61 449T115 457T157 463T174 465L185 455Q194 376 199 283T203 86H215Q269 175 298 241T327 344Q327 367
317 383T295 409T278 420L284 447L400 471Q416 459 424 437T432 387Q432 333 383 235T233 -7L138 -11Z" />
<glyph unicode="w" horiz-adv-x="670" d="M215 86Q253 150 279 203T320 300L301 436L309 449L396 471Q412 459 420 437T429 389Q429 373 426 358T413 317L435 86H446Q499 175 527 242T556 345Q556 368 543 388T507 420L513 447L629 471Q644 458 652 436T661 386Q661
334 612 236T465 -7L379 -11L363 3L345 181H337Q319 143 292 97T230 -7L138 -11L122 3Q120 58 114 122T101 249T84 359Q80 380 73 387T48 395Q42 395 28 394T2 392L6 443Q38 447 85 453T174 465L185 455Q194 373 199 280T203 86H215Z" />
<glyph unicode="x" horiz-adv-x="475" d="M423 471Q466 471 493 438Q483 411 472 385T448 336H430Q423 364 414 377T389 391Q366 391 344 360T288 250Q305 183 316 146T336 95T354 80Q360 80 367 84T389 99T430 131L442 130L459 96Q419 55 391 32T342 -2T301 -12Q284
-12 270 2T242 53T209 156Q169 66 132 27T46 -12Q22 -12 4 -2T-22 25Q-14 49 -1 79T24 130H42Q42 98 51 81T77 63Q100 63 126 101T185 217Q166 286 154 321T135 367T118 379Q111 379 97 369T50 327L38 328L21 363Q75 421 112 446T179 471Q196 471 208 458T234 410T265
312Q304 396 341 433T423 471Z" />
<glyph unicode="y" horiz-adv-x="451" d="M295 447L411 471Q426 459 434 437T443 387Q443 334 396 240T258 14Q166 -119 102 -178T-15 -237Q-47 -237 -71 -225T-102 -193Q-98 -172 -90 -148T-68 -104L-54 -103Q-26 -135 3 -140T67 -122T141 -47Q134 34 127 105T112
240T96 359Q92 380 84 387T58 395Q53 395 40 394T15 392L19 443L186 465L197 455Q205 384 209 293T212 76H224Q261 138 286 189T324 280T338 344Q338 392 289 420L295 447Z" />
<glyph unicode="z" horiz-adv-x="416" d="M46 295Q46 295 50 310T61 350T73 403T84 460L107 471Q107 471 123 468T166 462T220 454T274 447T312 444Q327 444 335 447T351 460L371 483L422 457L427 438Q374 380 321 319T220 202T138 104L165 109Q192 109 227 101T292
92Q318 92 337 111T362 164L384 163Q390 149 392 134T395 105Q395 72 381 46T344 4T292 -12Q262 -12 233 -1T175 22T111 33Q88 33 62 25T10 0L-7 26L272 366L190 367Q149 367 129 353T97 301L46 295Z" />
<glyph unicode="{" horiz-adv-x="306" d="M54 282Q91 293 117 314T144 368Q144 389 139 415T127 469T121 522Q121 558 140 587T193 634T275 652Q290 652 305 650T330 646T340 644L344 636L328 588Q328 588 314 590T287 593Q255 593 240 571T224 515Q224 489 228
452T232 387Q232 353 220 330T189 293T149 273L148 267Q174 257 190 237T207 181Q207 160 200 134T183 81T166 29T158 -14Q158 -37 170 -52T208 -68Q222 -68 236 -66T251 -63L256 -71L241 -117Q241 -117 221 -123T168 -130Q114 -130 84 -100T53 -26Q53 -1 63 25T87
78T110 128T120 169Q120 198 99 216T44 243L54 282Z" />
<glyph unicode="|" horiz-adv-x="331" d="M283 798Q283 798 280 772T271 703T258 607T243 496T228 386T216 291Q211 248 204 191T190 73T175 -48T162 -154T153 -230T149 -258L71 -269L61 -260Q61 -260 64 -233T73 -161T86 -60T100 57T115 174T128 276L192 796L270
807L283 798Z" />
<glyph unicode="}" horiz-adv-x="306" d="M263 244Q227 234 200 213T172 158Q172 138 178 112T189 57T195 4Q195 -33 176 -63T123 -111T41 -130Q27 -130 12 -128T-14 -124T-25 -122L-29 -113L-12 -66Q-12 -66 2 -68T28 -71Q61 -71 76 -48T92 9Q92 35 88 72T84
138Q84 173 96 196T127 232T167 253L168 258Q142 269 126 289T109 345Q109 366 116 391T132 444T149 495T157 536Q157 559 145 575T107 591Q94 591 79 588T64 585L60 593L75 639Q75 639 95 645T148 652Q202 652 232 622T262 548Q262 524 252 498T229 446T206 397T196
357Q196 327 217 309T271 283L263 244Z" />
<glyph unicode="~" horiz-adv-x="487" d="M55 185L29 218L30 226L126 324L144 328Q163 328 192 322T253 308T313 294T357 288Q367 288 380 296T405 315T426 335T434 344H443L469 311V303L372 205L354 201Q336 201 307 207T245 221T186 235T141 241Q132 241 119
233T94 214T73 194T65 185H55Z" />
<glyph unicode="&#xa0;" horiz-adv-x="155" />
<glyph unicode="&#xa1;" horiz-adv-x="274" d="M186 471Q217 471 231 454T246 411Q246 374 223 350T162 325Q133 325 118 342T102 386Q102 422 125 446T186 471ZM146 -207L133 -221L14 -242L2 -226L116 234L170 243L182 232L146 -207Z" />
<glyph unicode="&#xa2;" horiz-adv-x="377" d="M197 40L154 -151L97 -157L92 -151L135 37L197 40ZM135 37L220 422L283 425L197 40L135 37ZM220 422L272 651L329 658L334 649L283 425L220 422ZM232 391Q205 391 181 363T142 289T127 190Q127 136 144 105T189 73Q216
73 243 96T287 156L303 154L330 119Q312 82 283 53T221 6T154 -12Q93 -12 58 34T23 158Q23 219 43 275T97 375T175 444T267 470Q294 470 319 465T360 448L364 435L325 348L301 345Q272 391 232 391Z" />
<glyph unicode="&#xa3;" horiz-adv-x="506" d="M442 165Q447 153 450 137T453 105Q453 55 423 22T351 -12Q318 -12 282 0T207 24T134 36Q84 36 30 2L21 6L9 59Q108 119 119 203L124 246Q126 269 115 277T67 287L64 293L77 339L137 349L139 369Q145 419 167 460T222
532T295 580T380 598Q410 598 439 594T484 583L488 572L448 487L429 484Q398 503 375 511T330 520Q294 520 274 495T245 416L234 344Q271 344 305 345T360 346T381 347L385 343L366 280Q366 280 347 281T295 282T224 283L214 217Q208 182 192 151T151 99L206 111Q229
111 253 106T301 96T346 91Q375 91 394 110T420 166L442 165Z" />
<glyph unicode="&#xa4;" horiz-adv-x="469" d="M99 336Q99 363 107 386T130 432Q107 459 88 480T68 502L72 518L139 560Q143 554 159 534T194 489Q210 498 229 503T269 509Q289 509 306 504T339 489Q358 508 375 525T403 553T414 565L430 561L466 500L389 433Q402
406 402 370Q402 344 394 322T372 279Q396 254 415 233T434 212L429 197L362 152L308 221Q271 199 231 199Q210 199 192 205T157 222Q138 203 122 187T94 161T83 151L69 154L35 215Q43 220 64 238T110 278Q104 290 102 305T99 336ZM163 344Q163 310 184 287T239
263Q265 263 287 277T323 313T337 363Q337 398 316 421T261 445Q235 445 213 431T177 395T163 344Z" />
<glyph unicode="&#xa5;" horiz-adv-x="546" d="M237 430Q237 424 239 414T247 390L251 375L291 269L377 408Q383 416 386 423T390 439Q390 446 380 450T351 455L349 462L359 506Q368 506 386 505T426 503T467 502Q485 502 504 503T536 504T549 505L553 499L541
449Q517 443 502 435T475 413T447 375L413 326L510 328L515 319L505 271H373L340 222Q336 216 333 208T327 191Q360 192 390 192T446 194T492 195L497 185L488 137H312Q312 135 310 123T307 97T305 81Q305 66 313 60T339 54Q351 54 365 55T379 56L381 49L367 -3Q367
-3 353 -3T317 -2T275 -1T238 0Q221 0 200 -1T159 -4T126 -7T113 -9L125 45Q158 50 173 58T195 85T206 137Q173 137 142 137T85 137T39 136L33 144L46 191H206Q204 201 202 211T194 233L179 271Q142 271 110 271T56 270L51 277L63 324H154Q144 350 134 371T111
408T84 435T49 449Q50 454 50 458T52 468Q54 477 57 486T63 505Q63 505 79 505T119 503T160 502Q168 502 183 503T217 505T253 506T282 508T295 509L299 499L289 453Q256 451 247 445T237 430Z" />
<glyph unicode="&#xa6;" horiz-adv-x="331" d="M193 174L200 167Q193 110 186 50T172 -65T160 -163T152 -232T149 -258L70 -269L61 -260Q65 -223 71 -175T83 -72T97 43T113 161L193 174ZM146 364L139 370Q153 477 166 583T192 796L270 807L283 798Q283 798 280
771T270 700T256 600T241 486T226 375L146 364Z" />
<glyph unicode="&#xa7;" horiz-adv-x="483" d="M345 50Q343 24 326 -3T282 -52T221 -88T148 -102Q116 -102 89 -92T47 -65T31 -28Q31 -13 36 7T49 46T66 75H85Q88 28 113 -2T177 -32Q203 -32 222 -14T242 32Q242 61 222 84T171 129T111 176T60 232T40 306Q40 356
77 402T178 482L200 446Q164 424 149 403T134 353Q134 326 150 302T192 257T246 214T299 168T336 114T345 50ZM299 110Q361 149 361 204Q361 234 340 260T288 312T226 364T173 422T152 491Q152 535 177 571T243 630T333 652Q362 652 386 646T425 629T440 605Q440
596 436 582T426 552T414 525T401 508H384Q376 540 355 559T307 579Q286 579 271 563T256 522Q256 494 276 471T326 424T387 376T438 320T459 249Q459 215 442 181T393 118T322 71L299 110Z" />
<glyph unicode="&#xa8;" horiz-adv-x="383" d="M318 547Q295 547 281 561T267 599Q267 627 285 645T332 664Q355 664 368 650T382 612Q382 584 364 566T318 547ZM148 547Q126 547 112 561T98 599Q98 627 116 645T163 664Q186 664 199 650T212 612Q212 584 194
566T148 547Z" />
<glyph unicode="&#xa9;" horiz-adv-x="669" d="M47 261Q47 330 74 390T148 498T254 571T380 598Q455 598 513 562T605 463T639 325Q639 256 612 196T538 88T431 15T305 -12Q230 -12 172 24T81 123T47 261ZM95 266Q95 201 123 149T199 65T311 34Q366 34 416 56T506
118T568 210T591 320Q591 385 563 437T486 521T375 552Q320 552 270 530T180 468T118 376T95 266ZM326 128Q261 128 223 164T185 265Q185 326 209 370T277 440T382 465Q403 465 427 462T468 455T485 452L488 445Q488 445 479 418T463 351L413 347Q413 347 415 360T418
381Q418 417 363 417Q318 417 292 381T265 276Q265 226 284 200T339 173Q367 173 384 189T414 244L463 247Q463 247 459 233T450 197T441 154L436 148Q436 148 422 143T383 133T326 128Z" />
<glyph unicode="&#xaa;" horiz-adv-x="345" d="M270 416Q274 416 282 422T312 447L324 446L335 422Q303 389 282 370T246 343T217 335Q188 335 188 361Q188 366 190 378T196 406T203 437T209 463L204 464Q175 413 151 383T102 335Q65 335 44 360T23 431Q23 469
36 507T73 576T124 625T182 643L237 632L241 646L250 651L308 642L313 630Q313 630 308 611T296 561T282 493T268 418L270 416ZM124 414Q133 414 149 436T184 495T218 571Q204 581 189 585T162 590Q149 590 137 572T118 526T110 468Q110 445 114 430T124 414Z"
/>
<glyph unicode="&#xab;" horiz-adv-x="428" d="M405 386L406 371Q403 367 392 352T366 316T336 275T311 239T299 221Q300 218 307 205T324 172T343 134T361 100T370 81L365 67L328 45Q322 53 307 72T271 116T232 162T201 199T188 214L191 233Q191 233 202 244T232
272T272 310T314 350T350 385T372 407L405 386ZM231 386L232 371Q229 367 218 352T192 316T162 275T137 239T125 221Q126 218 133 205T150 172T169 134T187 100T196 81L191 67L154 45Q148 53 133 72T97 116T58 162T27 199T14 214L17 233Q17 233 28 244T58 272T98
310T140 350T176 385T198 407L231 386Z" />
<glyph unicode="&#xac;" horiz-adv-x="488" d="M452 306Q452 306 448 287T437 237T426 173Q422 138 418 107T412 57T410 37L331 24L322 31Q322 31 324 48T330 95T338 158T347 227L243 226Q210 226 172 226T100 226T45 225T23 225L17 235L40 312Q40 312 63 312T121
312T196 311T267 311Q294 311 325 312T384 314T429 316T447 317L452 306Z" />
<glyph unicode="&#xad;" horiz-adv-x="312" d="M287 297L271 225L39 199L32 210L48 280L210 299Q249 303 264 305T280 308L287 297Z" />
<glyph unicode="&#xae;" horiz-adv-x="451" d="M62 485Q62 547 93 598T176 680T285 711Q335 711 374 687T436 621T458 529Q458 467 427 416T345 334T235 303Q185 303 146 327T85 393T62 485ZM99 489Q99 448 117 414T167 360T239 340Q287 340 328 365T395 433T421
525Q421 566 403 599T353 653T281 674Q233 674 192 649T125 582T99 489ZM161 435Q175 437 180 443T187 469L200 578Q202 589 201 592T193 596Q189 596 187 596T182 595L180 599L185 618Q190 618 203 618T227 618H237Q246 618 257 618T271 620Q307 620 326 607T346
570Q346 545 332 529T296 502L316 463Q322 449 330 441T347 432L350 429Q349 420 346 416T335 411T309 409Q296 409 288 415T274 439L257 491H235Q234 483 232 470T229 451Q229 442 233 440T250 436Q251 435 251 435T252 433L247 413Q247 413 234 413T211 414H199Q186
414 171 413T156 412L161 435ZM249 583Q247 567 245 552T240 521Q244 521 251 521T265 519Q274 522 285 531T296 562Q296 577 286 584T256 591Q250 591 249 583Z" />
<glyph unicode="&#xaf;" horiz-adv-x="383" d="M392 640L373 573L237 572Q209 572 177 572T124 572T102 571L94 582L114 648Q114 648 139 648T200 648T263 647Q287 647 316 648T365 651T386 653L392 640Z" />
<glyph unicode="&#xb0;" horiz-adv-x="291" d="M56 510Q56 549 76 581T128 633T198 652Q246 652 276 619T307 537Q307 498 288 466T236 414T166 394Q119 394 88 428T56 510ZM109 515Q109 486 128 467T175 447Q208 447 231 472T255 532Q255 560 236 580T188 600Q156
600 133 575T109 515Z" />
<glyph unicode="&#xb1;" horiz-adv-x="488" d="M323 501Q323 501 320 484T313 439T303 379T294 317Q323 318 354 319T414 321T459 322T477 323L481 312L462 233Q418 233 373 233T284 232Q279 192 274 153T267 88T264 62L186 49L177 56Q177 56 180 83T189 150T200
232Q159 232 119 232T51 232T24 231L18 241L41 318Q41 318 66 318T131 318T210 317Q216 362 222 407T234 497L312 507L323 501ZM435 -20L417 -89Q372 -89 323 -89T225 -89T130 -90T49 -91T-10 -91L-15 -79L3 -11Q13 -11 38 -11T95 -11T163 -12T228 -12Q256 -12
289 -12T351 -10Q388 -9 408 -9T429 -7L435 -20Z" />
<glyph unicode="&#xb2;" horiz-adv-x="335" d="M8 378L94 461Q141 513 166 552T191 616Q191 650 152 650Q130 650 107 636T62 594H52L47 649Q74 684 112 706T186 728Q233 728 262 706T291 646Q291 619 277 589T228 517T132 413L135 408H195Q223 408 236 420T260
466L315 470Q315 470 311 459T302 428T291 387T281 345L271 337Q271 337 247 338T188 340T118 342T60 343L10 337L8 378Z" />
<glyph unicode="&#xb3;" horiz-adv-x="296" d="M25 415Q37 410 50 408T79 405Q116 405 141 422T167 466Q167 509 84 509L78 516V559L121 568Q144 579 159 596T174 632Q174 646 166 654T141 662Q126 662 107 655T69 635H61L52 684Q64 691 85 701T131 720T177 728Q216
728 241 709T267 659Q267 629 245 603T185 563V557Q225 544 243 524T262 474Q262 448 244 424T197 379T132 347T59 335Q31 335 22 351T14 405L25 415Z" />
<glyph unicode="&#xb4;" horiz-adv-x="383" d="M358 655Q358 655 332 637T263 588T176 522L163 526L136 559Q166 588 194 618T246 674T284 714T298 730L310 728L359 668L358 655Z" />
<glyph unicode="&#xb5;" horiz-adv-x="531" d="M201 -6Q184 2 173 17T149 60L92 33L151 196Q166 120 200 120Q220 120 245 143T297 209T352 311Q358 351 364 385T379 447L407 468Q433 457 453 447T491 424Q446 326 415 262T354 152L339 157Q315 103 292 67T246
13T201 -6ZM26 -239L11 -228L117 272L103 143Q99 223 102 301T117 455L140 468H151L234 441L144 107Q137 34 135 -46T135 -223Q111 -229 82 -233T26 -239ZM427 -9Q376 -9 357 22T345 124L357 249L407 278L394 200Q382 132 410 113T503 128L512 117Q487 38 427 -9Z"
/>
<glyph unicode="&#xb6;" horiz-adv-x="545" d="M363 567Q364 577 360 579T338 582Q304 582 282 557T248 488T236 387Q236 341 246 303T278 229L275 207Q211 210 161 234T81 302T52 411Q52 476 83 529T169 613T293 645Q330 645 367 643T429 640Q442 640 464 640T509
641T547 642T563 643L550 588L548 584Q510 583 497 574T478 538Q474 522 468 487T455 408T442 317T430 230T421 166Q414 107 396 58T347 -27T275 -82T176 -101Q144 -101 116 -91T71 -61T54 -14Q54 3 61 22T81 62T107 97H122Q117 33 138 -1T199 -35Q235 -35 256
-19T289 32T308 125L363 567Z" />
<glyph unicode="&#xb7;" horiz-adv-x="230" d="M104 163Q74 163 60 180T45 223Q45 260 68 284T128 308Q157 308 172 292T188 248Q188 212 165 188T104 163Z" />
<glyph unicode="&#xb8;" horiz-adv-x="386" d="M145 27H194L164 -46Q180 -56 198 -70T230 -100T244 -136Q244 -163 223 -186T170 -222T105 -236Q82 -236 59 -226T36 -197Q36 -189 43 -178T60 -155T78 -134H86Q84 -162 96 -176T130 -190Q148 -190 161 -180T174
-155Q174 -139 150 -120T100 -86L145 27Z" />
<glyph unicode="&#xb9;" horiz-adv-x="252" d="M198 658Q195 644 191 618T182 560T173 500T166 448T163 417Q163 387 186 387Q197 387 207 388T217 389L218 386L205 341Q205 341 189 341T151 342T112 343Q92 343 68 342T26 338T8 336L19 379Q49 381 63 391T81
427L106 628Q108 651 103 657T79 664Q69 664 58 663T47 662L43 666L52 705Q65 706 87 709T130 715Q162 719 182 722T213 726T224 728L230 707Q218 698 211 688T198 658Z" />
<glyph unicode="&#xba;" horiz-adv-x="314" d="M125 335Q80 335 54 366T27 453Q27 509 48 553T107 623T191 649Q239 649 264 620T290 538Q290 480 269 434T210 362T125 335ZM150 390Q175 390 188 421T202 511Q202 551 193 570T165 589Q142 589 128 557T113 472Q113
432 123 411T150 390Z" />
<glyph unicode="&#xbb;" horiz-adv-x="428" d="M196 66V80Q199 85 210 100T235 136T265 177T290 213T302 231Q301 234 294 247T278 279T258 318T241 352T231 371L236 385L273 407Q279 399 294 379T330 336T369 290T400 253T413 238L411 219Q411 219 400 208T370
180T330 142T288 102T252 67T229 45L196 66ZM22 66V80Q25 85 36 100T61 136T91 177T116 213T128 231Q127 234 120 247T104 279T84 318T67 352T57 371L62 385L99 407Q105 399 120 379T156 336T195 290T226 253T239 238L237 219Q237 219 226 208T196 180T156 142T114
102T78 67T55 45L22 66Z" />
<glyph unicode="&#xbc;" horiz-adv-x="716" d="M198 577Q195 563 191 537T182 480T173 419T166 367T163 337Q163 307 186 307Q197 307 207 308T217 309L218 305L205 260Q205 260 189 260T151 262T112 263Q92 263 68 262T26 258T8 256L19 298Q49 301 63 311T81
347L106 548Q108 571 103 577T79 584Q69 584 58 583T47 581L43 586L52 625Q65 626 87 628T130 635Q162 639 182 642T213 646T224 648L230 627Q218 618 211 607T198 577ZM570 638Q570 638 551 610T502 536T437 436T366 328T305 233Q278 190 250 144T194 56T145 -20T111
-74T98 -94L43 -69L37 -56Q37 -56 50 -36T86 19T136 95T193 181T249 268L508 678L563 655L570 638ZM398 146L591 383L595 385L656 378L630 158H680L684 150L671 94L623 95Q619 61 618 34T616 7L610 0L528 -7L523 -1Q523 -1 526 14T532 52T539 97L391 100L398 146ZM468
158H547L561 268H554L468 158Z" />
<glyph unicode="&#xbd;" horiz-adv-x="731" d="M198 577Q195 563 191 537T182 480T173 419T166 367T163 337Q163 307 186 307Q197 307 207 308T217 309L218 305L205 260Q205 260 189 260T151 262T112 263Q92 263 68 262T26 258T8 256L19 298Q49 301 63 311T81
347L106 548Q108 571 103 577T79 584Q69 584 58 583T47 581L43 586L52 625Q65 626 87 628T130 635Q162 639 182 642T213 646T224 648L230 627Q218 618 211 607T198 577ZM570 638Q570 638 551 610T502 536T437 436T366 328T305 233Q278 190 250 144T194 56T145 -20T111
-74T98 -94L43 -69L37 -56Q37 -56 50 -36T86 19T136 95T193 181T249 268L508 678L563 655L570 638ZM395 35L481 118Q528 170 553 209T578 273Q578 307 539 307Q517 307 494 293T449 250H439L434 306Q461 341 499 363T573 385Q620 385 649 363T678 303Q678 276 664
246T615 173T519 70L522 64H581Q610 64 623 76T647 123L701 127Q701 127 698 115T689 84T678 44T668 2L658 -6Q658 -6 634 -5T575 -3T505 -1T447 0L397 -6L395 35Z" />
<glyph unicode="&#xbe;" horiz-adv-x="761" d="M25 334Q37 330 50 328T79 325Q116 325 141 342T167 385Q167 429 84 429L78 436V479L121 488Q144 498 159 515T174 552Q174 566 166 574T141 582Q126 582 107 575T69 554H61L52 603Q64 611 85 621T131 639T177 648Q216
648 241 629T267 578Q267 549 245 523T185 482V476Q225 464 243 444T262 394Q262 368 244 343T197 298T132 267T59 255Q31 255 22 270T14 324L25 334ZM614 638Q614 638 595 610T546 536T481 436T410 328T349 233Q322 190 294 144T238 56T189 -20T155 -74T142 -94L87
-69L81 -56Q81 -56 94 -36T130 19T180 95T237 181T293 268L552 678L607 655L614 638ZM443 146L636 383L640 385L701 378L675 158H725L729 150L716 94L668 95Q664 61 663 34T661 7L655 0L573 -7L568 -1Q568 -1 571 14T577 52T584 97L436 100L443 146ZM513 158H592L606
268H599L513 158Z" />
<glyph unicode="&#xbf;" horiz-adv-x="354" d="M266 120L261 106L146 39Q120 24 102 3T84 -47Q84 -95 130 -119T253 -149L257 -162L214 -236L198 -242Q135 -240 85 -219T6 -162T-23 -84Q-23 -45 -9 -17T30 35T88 80T162 127L165 135L161 222L167 232L247 250L258
244L266 120ZM240 471Q271 471 285 454T300 411Q300 374 277 350T216 325Q186 325 171 342T156 386Q156 422 179 446T240 471Z" />
<glyph unicode="&#xc0;" horiz-adv-x="590" d="M502 125Q509 88 524 74T574 54L577 49L564 -3Q564 -3 544 -2T497 -1T451 0Q412 0 376 -2T316 -6T293 -9L290 -1L300 51Q352 55 368 63T384 95Q384 102 383 110T381 127L369 216Q361 216 343 216T307 217T278 217Q262
217 243 216T206 213T180 210L143 123Q132 97 132 83Q132 54 175 54H222L224 49L211 -6Q211 -6 190 -5T137 -2T73 0Q49 0 23 0T-22 -2T-40 -3L-25 56Q-1 60 16 75T50 127L286 635L411 651L421 647Q421 647 424 622T434 555T448 458T465 345T483 230T502 125ZM211
281H284Q301 281 323 282T362 285L329 523H317L211 281ZM236 770L259 838L270 843Q270 843 289 834T339 809T408 774T485 737L475 698L463 690Q422 704 382 716T311 738T260 752T241 758L236 770Z" />
<glyph unicode="&#xc1;" horiz-adv-x="590" d="M502 125Q509 88 524 74T574 54L577 49L564 -3Q564 -3 544 -2T497 -1T451 0Q412 0 376 -2T316 -6T293 -9L290 -1L300 51Q352 55 368 63T384 95Q384 102 383 110T381 127L369 216Q361 216 343 216T307 217T278 217Q262
217 243 216T206 213T180 210L143 123Q132 97 132 83Q132 54 175 54H222L224 49L211 -6Q211 -6 190 -5T137 -2T73 0Q49 0 23 0T-22 -2T-40 -3L-25 56Q-1 60 16 75T50 127L286 635L411 651L421 647Q421 647 424 622T434 555T448 458T465 345T483 230T502 125ZM211
281H284Q301 281 323 282T362 285L329 523H317L211 281ZM481 759Q481 759 462 754T412 739T341 717T259 691L248 698L237 738Q275 755 313 774T383 808T433 834T452 844L463 838L486 770L481 759Z" />
<glyph unicode="&#xc2;" horiz-adv-x="590" d="M502 125Q509 88 524 74T574 54L577 49L564 -3Q564 -3 544 -2T497 -1T451 0Q412 0 376 -2T316 -6T293 -9L290 -1L300 51Q352 55 368 63T384 95Q384 102 383 110T381 127L369 216Q361 216 343 216T307 217T278 217Q262
217 243 216T206 213T180 210L143 123Q132 97 132 83Q132 54 175 54H222L224 49L211 -6Q211 -6 190 -5T137 -2T73 0Q49 0 23 0T-22 -2T-40 -3L-25 56Q-1 60 16 75T50 127L286 635L411 651L421 647Q421 647 424 622T434 555T448 458T465 345T483 230T502 125ZM211
281H284Q301 281 323 282T362 285L329 523H317L211 281ZM208 746Q216 752 235 766T276 797T320 830T355 856T369 866H387Q387 867 398 857T426 831T462 798T496 767T519 746L493 711L479 708Q474 711 458 720T421 739T385 759T365 769Q362 768 350 762T321 748T287
732T256 717T237 708L224 711L208 746Z" />
<glyph unicode="&#xc3;" horiz-adv-x="590" d="M502 125Q509 88 524 74T574 54L577 49L564 -3Q564 -3 544 -2T497 -1T451 0Q412 0 376 -2T316 -6T293 -9L290 -1L300 51Q352 55 368 63T384 95Q384 102 383 110T381 127L369 216Q361 216 343 216T307 217T278 217Q262
217 243 216T206 213T180 210L143 123Q132 97 132 83Q132 54 175 54H222L224 49L211 -6Q211 -6 190 -5T137 -2T73 0Q49 0 23 0T-22 -2T-40 -3L-25 56Q-1 60 16 75T50 127L286 635L411 651L421 647Q421 647 424 622T434 555T448 458T465 345T483 230T502 125ZM211
281H284Q301 281 323 282T362 285L329 523H317L211 281ZM217 691L187 723L188 732L274 822L290 826Q306 826 334 818T389 802T429 793Q438 793 449 800T472 817T490 834T498 842H507L537 810L536 802L450 711L433 707Q417 707 390 715T336 732T295 740Q286 740
275 733T252 716T234 699T226 691H217Z" />
<glyph unicode="&#xc4;" horiz-adv-x="590" d="M502 125Q509 88 524 74T574 54L577 49L564 -3Q564 -3 544 -2T497 -1T451 0Q412 0 376 -2T316 -6T293 -9L290 -1L300 51Q352 55 368 63T384 95Q384 102 383 110T381 127L369 216Q361 216 343 216T307 217T278 217Q262
217 243 216T206 213T180 210L143 123Q132 97 132 83Q132 54 175 54H222L224 49L211 -6Q211 -6 190 -5T137 -2T73 0Q49 0 23 0T-22 -2T-40 -3L-25 56Q-1 60 16 75T50 127L286 635L411 651L421 647Q421 647 424 622T434 555T448 458T465 345T483 230T502 125ZM211
281H284Q301 281 323 282T362 285L329 523H317L211 281ZM435 712Q411 712 400 726T388 759Q388 789 408 809T457 829Q480 829 492 816T504 781Q504 752 484 732T435 712ZM265 712Q242 712 231 726T219 759Q219 789 238 809T288 829Q311 829 322 816T334 781Q334
752 315 732T265 712Z" />
<glyph unicode="&#xc5;" horiz-adv-x="590" d="M502 125Q509 88 524 74T574 54L577 49L564 -3Q564 -3 544 -2T497 -1T451 0Q412 0 376 -2T316 -6T293 -9L290 -1L300 51Q352 55 368 63T384 95Q384 102 383 110T381 127L369 216Q361 216 343 216T307 217T278 217Q262
217 243 216T206 213T180 210L143 123Q132 97 132 83Q132 54 175 54H222L224 49L211 -6Q211 -6 190 -5T137 -2T73 0Q49 0 23 0T-22 -2T-40 -3L-25 56Q-1 60 16 75T50 127L286 635L411 651L421 647Q421 647 424 622T434 555T448 458T465 345T483 230T502 125ZM211
281H284Q301 281 323 282T362 285L329 523H317L211 281ZM345 677Q309 677 291 697T272 751Q272 796 301 826T375 856Q415 856 431 834T448 783Q448 756 436 732T400 692T345 677ZM357 725Q366 725 376 728T394 740T402 768Q402 785 392 795T361 806Q340 806 329
794T318 763Q318 743 331 734T357 725Z" />
<glyph unicode="&#xc6;" horiz-adv-x="823" d="M281 52Q326 56 348 73T372 121Q372 129 372 138T373 156L372 258L284 249L199 235L136 123Q126 106 123 97T119 79Q119 65 130 60T169 55L206 52L193 -6Q193 -6 178 -5T138 -3T88 -1T41 0Q27 0 11 -1T-17 -2T-29
-3L-27 48Q-21 50 -1 70T41 127L302 563Q301 574 296 578T280 583Q272 583 261 582T250 581L245 589L260 643Q260 643 278 643T326 642T394 641T471 640Q527 640 574 641T660 643T728 647T775 652L780 643Q780 643 773 619T755 554T736 467L659 461Q659 461 661
471T665 495T668 520Q668 540 659 550T622 564T541 568Q506 568 495 562T484 539L487 342L588 353L682 371L689 362L668 289L581 284L488 274L492 134Q493 98 508 83T557 67Q600 67 627 71T670 86T697 121T718 184L789 190L795 182Q795 182 787 156T767 89T746
2L737 -7Q738 -6 718 -6T666 -4T592 -2T508 -1T425 0Q387 0 353 -2T296 -6T274 -9L272 -1L281 52ZM310 319L373 326L374 520H361L243 315L310 319Z" />
<glyph unicode="&#xc7;" horiz-adv-x="595" d="M298 -12Q218 -12 160 20T69 112T36 255Q36 344 62 416T138 541T256 623T407 652Q437 652 470 648T531 640T578 632T596 628L600 617Q600 617 592 593T573 528T552 437L472 431Q472 431 474 443T479 470T482 495Q482
570 372 570Q311 570 265 536T195 436T170 277Q170 177 209 121T320 65Q358 65 386 80T436 127T474 210L553 216Q553 216 549 200T537 157T523 99T510 39L501 28Q501 28 475 18T404 -2T298 -12ZM294 27H343L313 -46Q329 -56 347 -70T379 -100T393 -136Q393 -163
372 -186T319 -222T254 -236Q231 -236 208 -226T185 -197Q185 -189 192 -178T209 -155T227 -134H235Q233 -162 245 -176T279 -190Q297 -190 310 -180T323 -155Q323 -139 299 -120T249 -86L294 27Z" />
<glyph unicode="&#xc8;" horiz-adv-x="574" d="M212 103Q212 78 225 72T274 65Q323 65 353 69T400 84T429 119T450 183L520 189L524 181Q524 181 516 155T497 89T475 2L467 -7Q467 -7 447 -7T395 -5T323 -2T244 -1T170 0Q130 0 94 -2T36 -7T13 -10L27 49Q69 55
86 73T108 134L158 530Q162 562 157 573T132 584Q124 584 113 583T101 582L97 589L111 643Q111 643 126 643T167 642T220 641T274 640Q346 640 400 641T496 645T567 652L572 643Q572 643 565 619T547 554T529 468L454 462Q454 462 456 472T460 496T462 522Q462
543 452 553T416 566T338 570Q313 570 301 568T285 559T278 534L250 363Q266 363 294 363T343 362Q355 362 374 363T412 367T444 370T457 372L463 365L440 289Q440 289 419 290T367 291T311 292Q290 292 270 290T238 286Q228 221 220 174T212 103ZM238 770L261
838L272 843Q272 843 291 834T341 809T410 774T487 737L477 698L465 690Q424 704 384 716T313 738T262 752T243 758L238 770Z" />
<glyph unicode="&#xc9;" horiz-adv-x="574" d="M212 103Q212 78 225 72T274 65Q323 65 353 69T400 84T429 119T450 183L520 189L524 181Q524 181 516 155T497 89T475 2L467 -7Q467 -7 447 -7T395 -5T323 -2T244 -1T170 0Q130 0 94 -2T36 -7T13 -10L27 49Q69 55
86 73T108 134L158 530Q162 562 157 573T132 584Q124 584 113 583T101 582L97 589L111 643Q111 643 126 643T167 642T220 641T274 640Q346 640 400 641T496 645T567 652L572 643Q572 643 565 619T547 554T529 468L454 462Q454 462 456 472T460 496T462 522Q462
543 452 553T416 566T338 570Q313 570 301 568T285 559T278 534L250 363Q266 363 294 363T343 362Q355 362 374 363T412 367T444 370T457 372L463 365L440 289Q440 289 419 290T367 291T311 292Q290 292 270 290T238 286Q228 221 220 174T212 103ZM482 759Q482
759 463 754T413 739T342 717T260 691L249 698L238 738Q276 755 314 774T384 808T434 834T453 844L464 838L487 770L482 759Z" />
<glyph unicode="&#xca;" horiz-adv-x="574" d="M212 103Q212 78 225 72T274 65Q323 65 353 69T400 84T429 119T450 183L520 189L524 181Q524 181 516 155T497 89T475 2L467 -7Q467 -7 447 -7T395 -5T323 -2T244 -1T170 0Q130 0 94 -2T36 -7T13 -10L27 49Q69 55
86 73T108 134L158 530Q162 562 157 573T132 584Q124 584 113 583T101 582L97 589L111 643Q111 643 126 643T167 642T220 641T274 640Q346 640 400 641T496 645T567 652L572 643Q572 643 565 619T547 554T529 468L454 462Q454 462 456 472T460 496T462 522Q462
543 452 553T416 566T338 570Q313 570 301 568T285 559T278 534L250 363Q266 363 294 363T343 362Q355 362 374 363T412 367T444 370T457 372L463 365L440 289Q440 289 419 290T367 291T311 292Q290 292 270 290T238 286Q228 221 220 174T212 103ZM210 746Q218
752 237 766T278 797T322 830T357 856T371 866H389Q389 867 400 857T428 831T464 798T498 767T521 746L495 711L481 708Q476 711 460 720T423 739T387 759T367 769Q364 768 352 762T323 748T289 732T258 717T239 708L226 711L210 746Z" />
<glyph unicode="&#xcb;" horiz-adv-x="573" d="M212 103Q212 78 225 72T274 65Q323 65 353 69T400 84T429 119T450 183L520 189L524 181Q524 181 516 155T497 89T475 2L467 -7Q467 -7 447 -7T395 -5T323 -2T244 -1T170 0Q130 0 94 -2T36 -7T13 -10L27 49Q69 55
86 73T108 134L158 530Q162 562 157 573T132 584Q124 584 113 583T101 582L97 589L111 643Q111 643 126 643T167 642T220 641T274 640Q346 640 400 641T496 645T567 652L572 643Q572 643 565 619T547 554T529 468L454 462Q454 462 456 472T460 496T462 522Q462
543 452 553T416 566T338 570Q313 570 301 568T285 559T278 534L250 363Q266 363 294 363T343 362Q355 362 374 363T412 367T444 370T457 372L463 365L440 289Q440 289 419 290T367 291T311 292Q290 292 270 290T238 286Q228 221 220 174T212 103ZM437 712Q413
712 402 726T390 759Q390 789 410 809T459 829Q482 829 494 816T506 781Q506 752 486 732T437 712ZM267 712Q244 712 233 726T221 759Q221 789 240 809T290 829Q313 829 324 816T336 781Q336 752 317 732T267 712Z" />
<glyph unicode="&#xcc;" horiz-adv-x="351" d="M278 534Q270 489 261 436T244 328T228 226T216 145T212 98Q212 74 220 66T245 57Q262 57 276 58T290 60L293 54L278 -3Q278 -3 263 -3T226 -2T180 -1T140 0Q121 0 99 -1T57 -4T25 -8T12 -10L26 47Q70 56 87 73T109
132L158 531Q162 563 157 573T129 584Q120 584 107 583T94 582Q93 584 92 585T90 589L104 642Q112 642 134 642T184 641T232 640Q248 640 270 641T313 643T348 646T362 648L349 590Q311 585 297 574T278 534ZM124 770L147 838L158 843Q158 843 177 834T227 809T296
774T373 737L363 698L351 690Q310 704 270 716T199 738T148 752T129 758L124 770Z" />
<glyph unicode="&#xcd;" horiz-adv-x="351" d="M278 534Q270 489 261 436T244 328T228 226T216 145T212 98Q212 74 220 66T245 57Q262 57 276 58T290 60L293 54L278 -3Q278 -3 263 -3T226 -2T180 -1T140 0Q121 0 99 -1T57 -4T25 -8T12 -10L26 47Q70 56 87 73T109
132L158 531Q162 563 157 573T129 584Q120 584 107 583T94 582Q93 584 92 585T90 589L104 642Q112 642 134 642T184 641T232 640Q248 640 270 641T313 643T348 646T362 648L349 590Q311 585 297 574T278 534ZM369 759Q369 759 350 754T300 739T229 717T147 691L136
698L125 738Q163 755 201 774T271 808T321 834T340 844L351 838L374 770L369 759Z" />
<glyph unicode="&#xce;" horiz-adv-x="350" d="M278 534Q270 489 261 436T244 328T228 226T216 145T212 98Q212 74 220 66T245 57Q262 57 276 58T290 60L293 54L278 -3Q278 -3 263 -3T226 -2T180 -1T140 0Q121 0 99 -1T57 -4T25 -8T12 -10L26 47Q70 56 87 73T109
132L158 531Q162 563 157 573T129 584Q120 584 107 583T94 582Q93 584 92 585T90 589L104 642Q112 642 134 642T184 641T232 640Q248 640 270 641T313 643T348 646T362 648L349 590Q311 585 297 574T278 534ZM352 746Q360 752 379 766T420 797T464 830T499 856T513
866H531Q531 867 542 857T570 831T606 798T640 767T663 746L637 711L623 708Q618 711 602 720T565 739T529 759T509 769Q506 768 494 762T465 748T431 732T400 717T381 708L368 711L352 746Z" />
<glyph unicode="&#xcf;" horiz-adv-x="350" d="M278 534Q270 489 261 436T244 328T228 226T216 145T212 98Q212 74 220 66T245 57Q262 57 276 58T290 60L293 54L278 -3Q278 -3 263 -3T226 -2T180 -1T140 0Q121 0 99 -1T57 -4T25 -8T12 -10L26 47Q70 56 87 73T109
132L158 531Q162 563 157 573T129 584Q120 584 107 583T94 582Q93 584 92 585T90 589L104 642Q112 642 134 642T184 641T232 640Q248 640 270 641T313 643T348 646T362 648L349 590Q311 585 297 574T278 534ZM579 712Q555 712 544 726T532 759Q532 789 552 809T601
829Q624 829 636 816T648 781Q648 752 628 732T579 712ZM409 712Q386 712 375 726T363 759Q363 789 382 809T432 829Q455 829 466 816T478 781Q478 752 459 732T409 712Z" />
<glyph unicode="&#xd0;" horiz-adv-x="683" d="M168 292H24L17 299L32 350H175L168 292ZM245 350L393 351L398 343L386 292H236L245 350ZM297 -12Q297 -12 282 -10T243 -6T194 -2T149 0Q124 0 96 -2T47 -8T27 -11L41 49Q84 57 100 74T123 134L171 529Q175 561
171 572T147 583Q138 583 126 582T114 581L111 589L124 643Q124 643 136 643T168 642T206 641T240 640Q257 640 280 640T327 642T366 643T382 644Q469 644 534 613T634 523T670 384Q670 301 642 229T563 103T444 18T297 -12ZM326 573Q310 573 303 569T294 550Q286
500 278 452T263 357T250 271T239 200T232 147T229 119Q229 84 248 72T314 60Q383 60 433 98T510 206T537 370Q537 470 484 521T326 573Z" />
<glyph unicode="&#xd1;" horiz-adv-x="698" d="M515 199L556 540Q558 564 552 573T529 583Q518 583 508 583T495 583L492 589L507 644Q507 644 518 644T548 642T586 641T620 640Q643 640 668 641T711 645T729 647L717 588Q684 584 668 569T646 525L567 -19L488
-32Q440 69 396 157T316 312T261 417T241 455H234L187 99Q184 75 190 66T215 56Q220 56 230 56T249 57T258 58L262 53L246 -4Q246 -4 234 -4T204 -2T165 -1T129 0Q106 0 80 -2T37 -6T19 -8L33 50Q63 54 79 68T99 113L162 526Q166 557 151 569T89 587Q88 590 87
591T85 595L97 645Q97 645 114 644T155 642T200 640Q219 640 238 641T270 643T283 644Q324 557 363 478T435 335T487 236T507 199H515ZM271 691L241 723L242 732L328 822L344 826Q360 826 388 818T443 802T483 793Q492 793 503 800T526 817T544 834T552 842H561L591
810L590 802L504 711L487 707Q471 707 444 715T390 732T349 740Q340 740 329 733T306 716T288 699T280 691H271Z" />
<glyph unicode="&#xd2;" horiz-adv-x="653" d="M292 -12Q217 -12 159 21T69 114T36 255Q36 341 61 413T133 539T242 622T382 652Q460 652 518 619T609 527T642 387Q642 301 617 228T544 101T433 18T292 -12ZM311 61Q370 61 414 97T483 202T508 362Q508 427 490
473T439 545T360 570Q303 570 259 533T191 429T166 268Q166 204 184 158T234 86T311 61ZM268 770L291 838L302 843Q302 843 321 834T371 809T440 774T517 737L507 698L495 690Q454 704 414 716T343 738T292 752T273 758L268 770Z" />
<glyph unicode="&#xd3;" horiz-adv-x="653" d="M292 -12Q217 -12 159 21T69 114T36 255Q36 341 61 413T133 539T242 622T382 652Q460 652 518 619T609 527T642 387Q642 301 617 228T544 101T433 18T292 -12ZM311 61Q370 61 414 97T483 202T508 362Q508 427 490
473T439 545T360 570Q303 570 259 533T191 429T166 268Q166 204 184 158T234 86T311 61ZM513 759Q513 759 494 754T444 739T373 717T291 691L280 698L269 738Q307 755 345 774T415 808T465 834T484 844L495 838L518 770L513 759Z" />
<glyph unicode="&#xd4;" horiz-adv-x="653" d="M292 -12Q217 -12 159 21T69 114T36 255Q36 341 61 413T133 539T242 622T382 652Q460 652 518 619T609 527T642 387Q642 301 617 228T544 101T433 18T292 -12ZM311 61Q370 61 414 97T483 202T508 362Q508 427 490
473T439 545T360 570Q303 570 259 533T191 429T166 268Q166 204 184 158T234 86T311 61ZM241 746Q249 752 268 766T309 797T353 830T388 856T402 866H420Q420 867 431 857T459 831T495 798T529 767T552 746L526 711L512 708Q507 711 491 720T454 739T418 759T398
769Q395 768 383 762T354 748T320 732T289 717T270 708L257 711L241 746Z" />
<glyph unicode="&#xd5;" horiz-adv-x="653" d="M292 -12Q217 -12 159 21T69 114T36 255Q36 341 61 413T133 539T242 622T382 652Q460 652 518 619T609 527T642 387Q642 301 617 228T544 101T433 18T292 -12ZM311 61Q370 61 414 97T483 202T508 362Q508 427 490
473T439 545T360 570Q303 570 259 533T191 429T166 268Q166 204 184 158T234 86T311 61ZM249 691L219 723L220 732L306 822L322 826Q338 826 366 818T421 802T461 793Q470 793 481 800T504 817T522 834T530 842H539L569 810L568 802L482 711L465 707Q449 707 422
715T368 732T327 740Q318 740 307 733T284 716T266 699T258 691H249Z" />
<glyph unicode="&#xd6;" horiz-adv-x="655" d="M292 -12Q217 -12 159 21T69 114T36 255Q36 341 61 413T133 539T242 622T382 652Q460 652 518 619T609 527T642 387Q642 301 617 228T544 101T433 18T292 -12ZM311 61Q370 61 414 97T483 202T508 362Q508 427 490
473T439 545T360 570Q303 570 259 533T191 429T166 268Q166 204 184 158T234 86T311 61ZM467 712Q443 712 432 726T420 759Q420 789 440 809T489 829Q512 829 524 816T536 781Q536 752 516 732T467 712ZM297 712Q274 712 263 726T251 759Q251 789 270 809T320 829Q343
829 354 816T366 781Q366 752 347 732T297 712Z" />
<glyph unicode="&#xd7;" horiz-adv-x="488" d="M407 447L448 385L306 253Q324 233 344 211T381 170T409 139T420 127L414 114L346 65L238 193Q214 170 190 148T145 106T112 74T99 62L88 65L52 128Q52 128 64 139T95 168T139 208T186 252Q167 274 148 297T111 341T84
373T74 385L77 398L147 443Q147 443 163 423T205 372T254 312Q277 334 301 358T347 403T382 437T396 451L407 447Z" />
<glyph unicode="&#xd8;" horiz-adv-x="653" d="M502 549L448 582L528 722L579 700L582 688L502 549ZM219 50L167 82L448 582L502 549L219 50ZM167 82L219 50L128 -104L78 -82L76 -72L167 82ZM292 -12Q217 -12 159 21T69 114T36 255Q36 341 61 413T133 539T242
622T382 652Q460 652 518 619T609 527T642 387Q642 301 617 228T544 101T433 18T292 -12ZM311 61Q370 61 414 97T483 202T508 362Q508 427 490 473T439 545T360 570Q303 570 259 533T191 429T166 268Q166 204 184 158T234 86T311 61Z" />
<glyph unicode="&#xd9;" horiz-adv-x="637" d="M202 242Q201 231 200 220T199 199Q199 134 227 100T313 65Q378 65 415 101T462 211Q465 231 469 269T478 352T487 437T495 504T498 530Q500 564 496 574T472 584Q464 584 450 583T436 582L435 586L450 643Q450 643
470 642T516 641T560 640Q584 640 609 641T652 645T670 647L657 589Q618 582 606 573T591 536L551 215Q537 105 468 47T282 -12Q183 -12 133 33T83 166Q83 185 86 206L126 530Q130 563 126 573T100 584Q91 584 80 583T68 582L67 586L82 643Q82 643 103 642T155
641T210 640Q225 640 244 641T280 643T309 646T321 648L308 588Q275 584 262 573T245 534L202 242ZM264 770L287 838L298 843Q298 843 317 834T367 809T436 774T513 737L503 698L491 690Q450 704 410 716T339 738T288 752T269 758L264 770Z" />
<glyph unicode="&#xda;" horiz-adv-x="637" d="M202 242Q201 231 200 220T199 199Q199 134 227 100T313 65Q378 65 415 101T462 211Q465 231 469 269T478 352T487 437T495 504T498 530Q500 564 496 574T472 584Q464 584 450 583T436 582L435 586L450 643Q450 643
470 642T516 641T560 640Q584 640 609 641T652 645T670 647L657 589Q618 582 606 573T591 536L551 215Q537 105 468 47T282 -12Q183 -12 133 33T83 166Q83 185 86 206L126 530Q130 563 126 573T100 584Q91 584 80 583T68 582L67 586L82 643Q82 643 103 642T155
641T210 640Q225 640 244 641T280 643T309 646T321 648L308 588Q275 584 262 573T245 534L202 242ZM509 759Q509 759 490 754T440 739T369 717T287 691L276 698L265 738Q303 755 341 774T411 808T461 834T480 844L491 838L514 770L509 759Z" />
<glyph unicode="&#xdb;" horiz-adv-x="639" d="M202 242Q201 231 200 220T199 199Q199 134 227 100T313 65Q378 65 415 101T462 211Q465 231 469 269T478 352T487 437T495 504T498 530Q500 564 496 574T472 584Q464 584 450 583T436 582L435 586L450 643Q450 643
470 642T516 641T560 640Q584 640 609 641T652 645T670 647L657 589Q618 582 606 573T591 536L551 215Q537 105 468 47T282 -12Q183 -12 133 33T83 166Q83 185 86 206L126 530Q130 563 126 573T100 584Q91 584 80 583T68 582L67 586L82 643Q82 643 103 642T155
641T210 640Q225 640 244 641T280 643T309 646T321 648L308 588Q275 584 262 573T245 534L202 242ZM237 746Q245 752 264 766T305 797T349 830T384 856T398 866H416Q416 867 427 857T455 831T491 798T525 767T548 746L522 711L508 708Q503 711 487 720T450 739T414
759T394 769Q391 768 379 762T350 748T316 732T285 717T266 708L253 711L237 746Z" />
<glyph unicode="&#xdc;" horiz-adv-x="639" d="M202 242Q201 231 200 220T199 199Q199 134 227 100T313 65Q378 65 415 101T462 211Q465 231 469 269T478 352T487 437T495 504T498 530Q500 564 496 574T472 584Q464 584 450 583T436 582L435 586L450 643Q450 643
470 642T516 641T560 640Q584 640 609 641T652 645T670 647L657 589Q618 582 606 573T591 536L551 215Q537 105 468 47T282 -12Q183 -12 133 33T83 166Q83 185 86 206L126 530Q130 563 126 573T100 584Q91 584 80 583T68 582L67 586L82 643Q82 643 103 642T155
641T210 640Q225 640 244 641T280 643T309 646T321 648L308 588Q275 584 262 573T245 534L202 242ZM463 712Q439 712 428 726T416 759Q416 789 436 809T485 829Q508 829 520 816T532 781Q532 752 512 732T463 712ZM293 712Q270 712 259 726T247 759Q247 789 266
809T316 829Q339 829 350 816T362 781Q362 752 343 732T293 712Z" />
<glyph unicode="&#xdd;" horiz-adv-x="562" d="M236 556Q236 547 242 523T257 468T275 408T291 357T299 331H306L416 515Q436 547 436 566Q436 577 426 582T390 589L388 594L401 645Q410 645 431 644T477 641T522 639Q543 639 565 640T602 642T618 643L621 637L608
585Q586 579 569 570T538 546T508 509T472 456L358 279Q346 261 340 242T329 196T319 124Q315 87 321 72T355 57Q371 57 387 58T403 60L406 56L390 -4Q390 -4 374 -4T334 -2T285 -1T243 0Q223 0 200 -2T154 -5T118 -9T104 -11L118 48Q155 54 174 64T202 93T213
148L217 183Q220 211 218 233T203 290L134 478Q122 512 112 533T84 567T35 584L32 589L46 643Q46 643 58 643T90 641T129 640T164 639Q183 639 208 640T258 643T298 646T314 648L317 639L306 590Q266 588 251 581T236 556ZM481 759Q481 759 462 754T412 739T341
717T259 691L248 698L237 738Q275 755 313 774T383 808T433 834T452 844L463 838L486 770L481 759Z" />
<glyph unicode="&#xde;" horiz-adv-x="545" d="M275 511H350Q447 511 496 473T546 362Q546 317 526 278T469 209T387 163T288 147H220L216 113Q213 80 219 69T248 58Q266 58 281 59T296 61L299 55L283 -3Q283 -3 268 -3T229 -2T182 -1T141 0Q121 0 99 -1T56 -4T24
-8T11 -10L25 49Q68 58 85 75T107 134L156 530Q160 561 154 572T127 583Q118 583 105 582T92 581L88 588L103 642Q112 642 134 642T183 641T232 640Q248 640 270 641T314 644T350 646T364 648L351 588Q312 583 299 574T281 538L275 511ZM261 428Q255 385 250 348T239
280T231 226Q248 221 273 217T314 212Q367 220 393 254T420 344Q420 394 388 417T286 441Q272 441 268 438T261 428Z" />
<glyph unicode="&#xdf;" horiz-adv-x="590" d="M25 402L30 443L112 455L120 524Q125 570 146 609T201 678T276 725T362 742Q411 742 450 726T511 683T534 619Q534 584 520 558T486 511T446 472T412 435T398 393Q398 370 416 352T461 317T514 280T559 233T578 167Q578
118 550 78T477 13T375 -12Q325 -12 289 5T251 45Q254 58 262 77T282 117T304 147H323Q318 105 337 81T395 56Q414 56 429 67T455 95T465 131Q465 157 447 176T403 212T351 249T306 295T288 358Q288 390 302 414T337 459T378 499T412 538T426 584Q426 619 400 641T323
664Q282 664 258 639T225 560L157 -53Q153 -93 137 -127T95 -187T39 -227T-26 -242Q-63 -242 -93 -227T-130 -191Q-126 -176 -118 -157T-101 -120T-85 -91H-69Q-68 -130 -50 -151T2 -173Q29 -173 49 -151T72 -93Q71 -98 70 -107T67 -124T66 -132T67 -116T71 -63T80
41L107 388L99 395L28 397L25 402Z" />
<glyph unicode="&#xe0;" horiz-adv-x="483" d="M370 91Q375 91 381 94T402 110T441 144L456 142L471 110Q424 62 394 36T344 -1T305 -12Q288 -12 278 -3T267 22Q267 33 277 79T304 203L297 205Q251 121 211 70T128 -12Q80 -12 53 25T25 129Q25 191 45 250T99 358T176
435T262 464L353 447L360 470L370 475L434 461L442 445Q427 390 413 327T386 204T367 94L370 91ZM157 93Q168 93 187 115T230 175T277 261T323 363Q301 376 276 384T233 393Q207 393 184 363T146 285T131 183Q131 145 138 119T157 93ZM160 669L209 730L222 731Q222
731 236 716T273 676T325 621T384 561L357 528L344 524Q299 560 257 590T189 638T162 656L160 669Z" />
<glyph unicode="&#xe1;" horiz-adv-x="491" d="M378 91Q383 91 389 94T410 110T449 144L464 142L479 110Q432 62 402 36T352 -1T313 -12Q296 -12 286 -3T275 22Q275 33 285 79T312 203L305 205Q259 121 219 70T136 -12Q88 -12 61 25T33 129Q33 191 53 250T107
358T184 435T270 464L361 447L368 470L378 475L442 461L450 445Q435 390 421 327T394 204T375 94L378 91ZM165 93Q176 93 195 115T238 175T285 261T331 363Q309 376 284 384T241 393Q215 393 192 363T154 285T139 183Q139 145 146 119T165 93ZM407 670Q407 670
381 652T312 603T225 537L212 541L185 574Q215 603 243 633T295 689T333 729T347 745L359 743L408 683L407 670Z" />
<glyph unicode="&#xe2;" horiz-adv-x="483" d="M370 91Q375 91 381 94T402 110T441 144L456 142L471 110Q424 62 394 36T344 -1T305 -12Q288 -12 278 -3T267 22Q267 33 277 79T304 203L297 205Q251 121 211 70T128 -12Q80 -12 53 25T25 129Q25 191 45 250T99 358T176
435T262 464L353 447L360 470L370 475L434 461L442 445Q427 390 413 327T386 204T367 94L370 91ZM157 93Q168 93 187 115T230 175T277 261T323 363Q301 376 276 384T233 393Q207 393 184 363T146 285T131 183Q131 145 138 119T157 93ZM142 569Q151 576 170 593T211
633T255 675T290 709T304 723H322Q322 723 332 710T359 676T393 633T425 594T447 569L418 534L404 531Q401 534 390 543T365 564T337 588T313 609T301 619Q298 618 286 609T258 589T224 565T193 543T176 531L163 534L142 569Z" />
<glyph unicode="&#xe3;" horiz-adv-x="483" d="M370 91Q375 91 381 94T402 110T441 144L456 142L471 110Q424 62 394 36T344 -1T305 -12Q288 -12 278 -3T267 22Q267 33 277 79T304 203L297 205Q251 121 211 70T128 -12Q80 -12 53 25T25 129Q25 191 45 250T99 358T176
435T262 464L353 447L360 470L370 475L434 461L442 445Q427 390 413 327T386 204T367 94L370 91ZM157 93Q168 93 187 115T230 175T277 261T323 363Q301 376 276 384T233 393Q207 393 184 363T146 285T131 183Q131 145 138 119T157 93ZM171 545L141 576L142 585L229
682L245 686Q261 686 289 678T344 662T385 653Q393 653 404 661T427 681T446 700T453 709H463L493 677L492 669L405 571L389 567Q372 567 345 575T291 592T250 601Q241 601 230 592T207 573T188 554T181 545H171Z" />
<glyph unicode="&#xe4;" horiz-adv-x="483" d="M370 91Q375 91 381 94T402 110T441 144L456 142L471 110Q424 62 394 36T344 -1T305 -12Q288 -12 278 -3T267 22Q267 33 277 79T304 203L297 205Q251 121 211 70T128 -12Q80 -12 53 25T25 129Q25 191 45 250T99 358T176
435T262 464L353 447L360 470L370 475L434 461L442 445Q427 390 413 327T386 204T367 94L370 91ZM157 93Q168 93 187 115T230 175T277 261T323 363Q301 376 276 384T233 393Q207 393 184 363T146 285T131 183Q131 145 138 119T157 93ZM372 562Q349 562 335 576T321
614Q321 642 339 660T386 679Q409 679 422 665T436 627Q436 599 418 581T372 562ZM202 562Q180 562 166 576T152 614Q152 642 170 660T217 679Q240 679 253 665T266 627Q266 599 248 581T202 562Z" />
<glyph unicode="&#xe5;" horiz-adv-x="483" d="M370 91Q375 91 381 94T402 110T441 144L456 142L471 110Q424 62 394 36T344 -1T305 -12Q288 -12 278 -3T267 22Q267 33 277 79T304 203L297 205Q251 121 211 70T128 -12Q80 -12 53 25T25 129Q25 191 45 250T99 358T176
435T262 464L353 447L360 470L370 475L434 461L442 445Q427 390 413 327T386 204T367 94L370 91ZM157 93Q168 93 187 115T230 175T277 261T323 363Q301 376 276 384T233 393Q207 393 184 363T146 285T131 183Q131 145 138 119T157 93ZM309 545Q273 545 255 566T237
620Q237 664 266 694T339 724Q379 724 395 703T412 652Q412 625 400 601T364 561T309 545ZM321 594Q330 594 340 597T358 609T366 636Q366 654 356 664T326 675Q305 675 294 663T282 632Q282 611 295 603T321 594Z" />
<glyph unicode="&#xe6;" horiz-adv-x="619" d="M312 249L297 205Q251 121 211 70T128 -12Q79 -12 52 26T25 131Q25 192 45 251T99 358T176 435T262 464L433 440L312 249ZM155 93Q167 93 186 115T229 177T277 266T323 373Q300 383 275 388T231 393Q206 393 183
363T146 285T131 185Q131 146 138 120T155 93ZM608 381Q608 338 584 304T507 242T366 185Q365 134 382 104T432 73Q460 73 487 94T535 154L552 153L579 118Q561 81 531 52T466 5T397 -12Q336 -12 301 34T265 160Q265 219 285 275T340 375T419 444T510 470Q556 470
582 447T608 381ZM476 392Q453 392 431 372T393 318T370 240Q444 264 477 291T511 353Q511 392 476 392Z" />
<glyph unicode="&#xe7;" horiz-adv-x="360" d="M237 391Q210 391 186 363T146 289T131 190Q131 136 148 105T193 73Q220 73 247 96T291 156L308 154L335 119Q317 82 288 53T225 6T158 -12Q98 -12 63 34T27 158Q27 219 47 275T101 375T179 444T271 470Q298 470
323 465T364 448L369 435L329 348L306 345Q277 391 237 391ZM169 27H218L188 -46Q204 -56 222 -70T254 -100T268 -136Q268 -163 247 -186T194 -222T129 -236Q106 -236 83 -226T60 -197Q60 -189 67 -178T84 -155T102 -134H110Q108 -162 120 -176T154 -190Q172 -190
185 -180T198 -155Q198 -139 174 -120T124 -86L169 27Z" />
<glyph unicode="&#xe8;" horiz-adv-x="382" d="M371 381Q371 338 347 304T269 242T129 185Q128 134 145 104T194 73Q223 73 250 94T298 154L315 153L342 118Q323 81 293 52T229 5T159 -12Q99 -12 63 34T27 160Q27 219 47 275T102 375T181 444T272 470Q319 470
345 447T371 381ZM239 392Q215 392 194 372T156 318T133 240Q207 264 240 291T274 353Q274 392 239 392ZM134 910L183 971L196 972Q196 972 210 957T247 917T299 862T358 802L331 769L318 765Q273 801 231 831T163 879T136 897L134 910Z" />
<glyph unicode="&#xe9;" horiz-adv-x="382" d="M371 381Q371 338 347 304T269 242T129 185Q128 134 145 104T194 73Q223 73 250 94T298 154L315 153L342 118Q323 81 293 52T229 5T159 -12Q99 -12 63 34T27 160Q27 219 47 275T102 375T181 444T272 470Q319 470
345 447T371 381ZM239 392Q215 392 194 372T156 318T133 240Q207 264 240 291T274 353Q274 392 239 392ZM373 655Q373 655 347 637T278 588T191 522L178 526L151 559Q181 588 209 618T261 674T299 714T313 730L325 728L374 668L373 655Z" />
<glyph unicode="&#xea;" horiz-adv-x="359" d="M371 381Q371 338 347 304T269 242T129 185Q128 134 145 104T194 73Q223 73 250 94T298 154L315 153L342 118Q323 81 293 52T229 5T159 -12Q99 -12 63 34T27 160Q27 219 47 275T102 375T181 444T272 470Q319 470
345 447T371 381ZM239 392Q215 392 194 372T156 318T133 240Q207 264 240 291T274 353Q274 392 239 392ZM116 554Q125 561 144 578T185 618T229 660T264 694T278 708H296Q296 708 306 695T333 661T367 618T399 579T421 554L392 519L378 516Q375 519 364 528T339
549T311 573T287 594T275 604Q272 603 260 594T232 574T198 550T167 528T150 516L137 519L116 554Z" />
<glyph unicode="&#xeb;" horiz-adv-x="382" d="M371 381Q371 338 347 304T269 242T129 185Q128 134 145 104T194 73Q223 73 250 94T298 154L315 153L342 118Q323 81 293 52T229 5T159 -12Q99 -12 63 34T27 160Q27 219 47 275T102 375T181 444T272 470Q319 470
345 447T371 381ZM239 392Q215 392 194 372T156 318T133 240Q207 264 240 291T274 353Q274 392 239 392ZM346 547Q323 547 309 561T295 599Q295 627 313 645T360 664Q383 664 396 650T410 612Q410 584 392 566T346 547ZM176 547Q154 547 140 561T126 599Q126 627
144 645T191 664Q214 664 227 650T240 612Q240 584 222 566T176 547Z" />
<glyph unicode="&#xec;" horiz-adv-x="313" d="M337 667L386 728L399 729Q399 729 413 714T450 674T502 619T561 559L534 526L521 522Q476 558 434 588T366 636T339 654L337 667ZM196 91Q203 91 215 100T266 144L282 142L297 110Q257 67 227 40T174 1T134 -12Q93
-12 93 33Q108 121 119 191T136 305T142 359Q142 381 133 390T103 399H66L74 451Q97 451 128 452T193 455T256 459L268 444Q253 395 239 333T212 209T193 94L196 91Z" />
<glyph unicode="&#xed;" horiz-adv-x="277" d="M160 91Q167 91 179 100T230 144L246 142L261 110Q221 67 191 40T138 1T98 -12Q57 -12 57 33Q72 121 83 191T100 305T106 359Q106 381 97 390T67 399H30L38 451Q61 451 92 452T157 455T220 459L232 444Q217 395 203
333T176 209T157 94L160 91ZM542 909Q542 909 516 891T447 842T360 776L347 780L320 813Q350 842 378 872T430 928T468 968T482 984L494 982L543 922L542 909Z" />
<glyph unicode="&#xee;" horiz-adv-x="277" d="M160 91Q167 91 179 100T230 144L246 142L261 110Q221 67 191 40T138 1T98 -12Q57 -12 57 33Q72 121 83 191T100 305T106 359Q106 381 97 390T67 399H30L38 451Q61 451 92 452T157 455T220 459L232 444Q217 395 203
333T176 209T157 94L160 91ZM285 808Q294 815 313 832T354 872T398 914T433 948T447 962H465Q465 962 475 949T502 915T536 872T568 833T590 808L561 773L547 770Q544 773 533 782T508 803T480 827T456 848T444 858Q441 857 429 848T401 828T367 804T336 782T319
770L306 773L285 808Z" />
<glyph unicode="&#xef;" horiz-adv-x="277" d="M160 91Q167 91 179 100T230 144L246 142L261 110Q221 67 191 40T138 1T98 -12Q57 -12 57 33Q72 121 83 191T100 305T106 359Q106 381 97 390T67 399H30L38 451Q61 451 92 452T157 455T220 459L232 444Q217 395 203
333T176 209T157 94L160 91ZM511 802Q489 802 475 816T461 853Q461 881 479 899T525 917Q548 917 561 903T574 866Q574 838 556 820T511 802ZM348 802Q326 802 312 816T298 853Q298 881 316 899T362 917Q385 917 398 903T411 866Q411 838 393 820T348 802Z" />
<glyph unicode="&#xf0;" horiz-adv-x="443" d="M166 -12Q105 -12 69 34T32 160Q32 223 51 278T102 375T179 440T273 464Q337 464 373 422T409 305Q409 238 391 181T339 80T262 12T166 -12ZM206 59Q234 59 255 83T287 153T299 259Q299 320 282 353T232 386Q205
386 184 362T151 295T139 197Q139 133 157 96T206 59ZM304 305Q297 365 286 409T256 489T210 557L81 493L73 496L65 547L166 599Q143 624 116 646T55 687L87 736L99 741Q141 721 178 696T250 639L388 708L395 704L404 654L295 599Q349 538 379 461T409 305H304Z"
/>
<glyph unicode="&#xf1;" horiz-adv-x="512" d="M328 -11Q286 -11 286 28Q286 44 293 73T310 136T331 206T349 270T356 317Q356 334 349 344T328 354Q310 354 282 319T222 220T158 74L169 239L190 233Q234 324 279 385T363 471Q407 471 434 443T462 371Q462 349
453 313T430 237T405 160T387 95L390 92Q394 92 400 95T420 110T459 145L475 143L490 111Q449 67 419 41T367 2T328 -11ZM68 -8L57 5Q66 59 75 116T92 224T105 311T111 358Q112 379 103 389T72 399H35L44 451Q73 451 123 453T225 459L235 444Q224 412 214 372T195
291T182 219L171 128L158 24Q157 18 142 10T107 -3T68 -8ZM183 786L153 817L154 826L241 923L257 927Q273 927 301 919T356 903T397 894Q405 894 416 902T439 922T458 941T465 950H475L505 918L504 910L417 812L401 808Q384 808 357 816T303 833T262 842Q253 842
242 833T219 814T200 795T193 786H183Z" />
<glyph unicode="&#xf2;" horiz-adv-x="434" d="M165 -12Q104 -12 68 34T31 162Q31 226 49 282T101 380T178 446T272 471Q336 471 371 429T407 308Q407 242 389 184T338 81T261 13T165 -12ZM205 60Q233 60 254 83T286 152T298 260Q298 323 281 357T231 391Q203
391 182 369T150 305T138 206Q138 137 156 99T205 60ZM130 910L179 971L192 972Q192 972 206 957T243 917T295 862T354 802L327 769L314 765Q269 801 227 831T159 879T132 897L130 910Z" />
<glyph unicode="&#xf3;" horiz-adv-x="432" d="M163 -12Q102 -12 66 34T29 162Q29 226 47 282T99 380T176 446T270 471Q334 471 369 429T405 308Q405 242 387 184T336 81T259 13T163 -12ZM203 60Q231 60 252 83T284 152T296 260Q296 323 279 357T229 391Q201 391
180 369T148 305T136 206Q136 137 154 99T203 60ZM368 655Q368 655 342 637T273 588T186 522L173 526L146 559Q176 588 204 618T256 674T294 714T308 730L320 728L369 668L368 655Z" />
<glyph unicode="&#xf4;" horiz-adv-x="435" d="M166 -12Q105 -12 69 34T32 162Q32 226 50 282T102 380T179 446T273 471Q337 471 372 429T408 308Q408 242 390 184T339 81T262 13T166 -12ZM206 60Q234 60 255 83T287 152T299 260Q299 323 282 357T232 391Q204
391 183 369T151 305T139 206Q139 137 157 99T206 60ZM113 554Q122 561 141 578T182 618T226 660T261 694T275 708H293Q293 708 303 695T330 661T364 618T396 579T418 554L389 519L375 516Q372 519 361 528T336 549T308 573T284 594T272 604Q269 603 257 594T229
574T195 550T164 528T147 516L134 519L113 554Z" />
<glyph unicode="&#xf5;" horiz-adv-x="431" d="M163 -12Q102 -12 66 34T29 162Q29 226 47 282T99 380T176 446T270 471Q334 471 369 429T405 308Q405 242 387 184T336 81T259 13T163 -12ZM203 60Q231 60 252 83T284 152T296 260Q296 323 279 357T229 391Q201 391
180 369T148 305T136 206Q136 137 154 99T203 60ZM139 786L109 817L110 826L197 923L213 927Q229 927 257 919T312 903T353 894Q361 894 372 902T395 922T414 941T421 950H431L461 918L460 910L373 812L357 808Q340 808 313 816T259 833T218 842Q209 842 198 833T175
814T156 795T149 786H139Z" />
<glyph unicode="&#xf6;" horiz-adv-x="432" d="M163 -12Q102 -12 66 34T29 162Q29 226 47 282T99 380T176 446T270 471Q334 471 369 429T405 308Q405 242 387 184T336 81T259 13T163 -12ZM203 60Q231 60 252 83T284 152T296 260Q296 323 279 357T229 391Q201 391
180 369T148 305T136 206Q136 137 154 99T203 60ZM341 547Q318 547 304 561T290 599Q290 627 308 645T355 664Q378 664 391 650T405 612Q405 584 387 566T341 547ZM171 547Q149 547 135 561T121 599Q121 627 139 645T186 664Q209 664 222 650T235 612Q235 584 217
566T171 547Z" />
<glyph unicode="&#xf7;" horiz-adv-x="488" d="M480 296L460 217L242 216Q209 216 171 216T99 216T44 215T22 215L16 225L39 302Q39 302 61 302T119 302T194 301T265 301Q294 301 330 302T399 304T453 306T475 307L480 296ZM210 14Q182 14 169 30T155 70Q155 104
176 127T233 150Q261 150 274 134T288 94Q288 60 267 37T210 14ZM254 367Q226 367 213 383T199 423Q199 457 220 480T277 503Q304 503 318 487T332 447Q332 413 311 390T254 367Z" />
<glyph unicode="&#xf8;" horiz-adv-x="432" d="M340 383L287 416L371 561L422 539L425 527L340 383ZM158 60L106 92L287 416L340 383L158 60ZM106 92L158 60L57 -111L8 -89L5 -79L106 92ZM163 -12Q102 -12 66 34T29 162Q29 226 47 282T99 380T176 446T270 471Q334
471 369 429T405 308Q405 242 387 184T336 81T259 13T163 -12ZM203 60Q231 60 252 83T284 152T296 260Q296 323 279 357T229 391Q201 391 180 369T148 305T136 206Q136 137 154 99T203 60Z" />
<glyph unicode="&#xf9;" horiz-adv-x="501" d="M150 -11Q102 -11 74 14T46 80Q46 97 53 126T70 191T90 260T107 322T114 364Q114 399 75 399H38L48 451Q70 451 100 452T165 455T230 459L241 444Q215 366 195 300T162 188T150 127Q150 111 155 104T175 96Q192 96
221 133T285 239T358 399L336 203L312 211Q271 130 232 75T150 -11ZM322 -12Q281 -12 281 23Q281 29 283 43T291 82T306 148T327 244L331 295L358 456L370 462L459 455L468 444Q453 395 438 335T409 213T388 101L391 97Q396 98 402 101T421 115T455 144L470 142L486
110Q440 64 410 38T359 0T322 -12ZM163 910L212 971L225 972Q225 972 239 957T276 917T328 862T387 802L360 769L347 765Q302 801 260 831T192 879T165 897L163 910Z" />
<glyph unicode="&#xfa;" horiz-adv-x="501" d="M150 -11Q102 -11 74 14T46 80Q46 97 53 126T70 191T90 260T107 322T114 364Q114 399 75 399H38L48 451Q70 451 100 452T165 455T230 459L241 444Q215 366 195 300T162 188T150 127Q150 111 155 104T175 96Q192 96
221 133T285 239T358 399L336 203L312 211Q271 130 232 75T150 -11ZM322 -12Q281 -12 281 23Q281 29 283 43T291 82T306 148T327 244L331 295L358 456L370 462L459 455L468 444Q453 395 438 335T409 213T388 101L391 97Q396 98 402 101T421 115T455 144L470 142L486
110Q440 64 410 38T359 0T322 -12ZM402 655Q402 655 376 637T307 588T220 522L207 526L180 559Q210 588 238 618T290 674T328 714T342 730L354 728L403 668L402 655Z" />
<glyph unicode="&#xfb;" horiz-adv-x="502" d="M150 -11Q102 -11 74 14T46 80Q46 97 53 126T70 191T90 260T107 322T114 364Q114 399 75 399H38L48 451Q70 451 100 452T165 455T230 459L241 444Q215 366 195 300T162 188T150 127Q150 111 155 104T175 96Q192 96
221 133T285 239T358 399L336 203L312 211Q271 130 232 75T150 -11ZM322 -12Q281 -12 281 23Q281 29 283 43T291 82T306 148T327 244L331 295L358 456L370 462L459 455L468 444Q453 395 438 335T409 213T388 101L391 97Q396 98 402 101T421 115T455 144L470 142L486
110Q440 64 410 38T359 0T322 -12ZM145 554Q154 561 173 578T214 618T258 660T293 694T307 708H325Q325 708 335 695T362 661T396 618T428 579T450 554L421 519L407 516Q404 519 393 528T368 549T340 573T316 594T304 604Q301 603 289 594T261 574T227 550T196
528T179 516L166 519L145 554Z" />
<glyph unicode="&#xfc;" horiz-adv-x="502" d="M150 -11Q102 -11 74 14T46 80Q46 97 53 126T70 191T90 260T107 322T114 364Q114 399 75 399H38L48 451Q70 451 100 452T165 455T230 459L241 444Q215 366 195 300T162 188T150 127Q150 111 155 104T175 96Q192 96
221 133T285 239T358 399L336 203L312 211Q271 130 232 75T150 -11ZM322 -12Q281 -12 281 23Q281 29 283 43T291 82T306 148T327 244L331 295L358 456L370 462L459 455L468 444Q453 395 438 335T409 213T388 101L391 97Q396 98 402 101T421 115T455 144L470 142L486
110Q440 64 410 38T359 0T322 -12ZM375 547Q352 547 338 561T324 599Q324 627 342 645T389 664Q412 664 425 650T439 612Q439 584 421 566T375 547ZM205 547Q183 547 169 561T155 599Q155 627 173 645T220 664Q243 664 256 650T269 612Q269 584 251 566T205 547Z"
/>
<glyph unicode="&#xfd;" horiz-adv-x="454" d="M295 447L411 471Q426 459 434 437T443 387Q443 334 396 240T258 14Q166 -119 102 -178T-15 -237Q-47 -237 -71 -225T-102 -193Q-98 -172 -90 -148T-68 -104L-54 -103Q-26 -135 3 -140T67 -122T141 -47Q134 34 127
105T112 240T96 359Q92 380 84 387T58 395Q53 395 40 394T15 392L19 443L186 465L197 455Q205 384 209 293T212 76H224Q261 138 286 189T324 280T338 344Q338 392 289 420L295 447ZM378 655Q378 655 352 637T283 588T196 522L183 526L156 559Q186 588 214 618T266
674T304 714T318 730L330 728L379 668L378 655Z" />
<glyph unicode="&#xfe;" horiz-adv-x="476" d="M18 -119Q18 -119 23 -88T36 -5T55 112T76 248T97 386T115 508T128 598T133 639Q133 676 94 676H58L65 728Q92 728 123 729T183 732T230 734T248 736L259 721Q259 721 253 693T236 616T214 504T188 372T165 235L170
233Q216 327 252 380T330 467Q385 467 417 424T450 307Q450 245 431 188T377 87T300 17T209 -9Q186 -9 165 -7T126 0L109 -126Q105 -154 114 -164T151 -175H193Q193 -176 193 -177T194 -181L185 -229Q141 -229 100 -230T25 -232T-28 -235T-48 -236L-38 -185Q-14
-182 -1 -169T18 -119ZM310 366Q299 366 282 346T245 288T201 201T153 91Q164 87 181 82T216 72T247 67Q272 67 294 94T331 166T345 261Q345 289 340 312T327 351T310 366Z" />
<glyph unicode="&#xff;" horiz-adv-x="451" d="M295 447L411 471Q426 459 434 437T443 387Q443 334 396 240T258 14Q166 -119 102 -178T-15 -237Q-47 -237 -71 -225T-102 -193Q-98 -172 -90 -148T-68 -104L-54 -103Q-26 -135 3 -140T67 -122T141 -47Q134 34 127
105T112 240T96 359Q92 380 84 387T58 395Q53 395 40 394T15 392L19 443L186 465L197 455Q205 384 209 293T212 76H224Q261 138 286 189T324 280T338 344Q338 392 289 420L295 447ZM351 547Q328 547 314 561T300 599Q300 627 318 645T365 664Q388 664 401 650T415
612Q415 584 397 566T351 547ZM181 547Q159 547 145 561T131 599Q131 627 149 645T196 664Q219 664 232 650T245 612Q245 584 227 566T181 547Z" />
<glyph unicode="&#x2013;" horiz-adv-x="437" d="M453 286L435 217Q390 217 340 217T239 217T142 217T59 216T-2 216L-7 228L11 295Q21 295 46 295T106 295T176 294T243 294Q263 294 290 294T346 294T403 296T448 299L453 286Z" />
<glyph unicode="&#x2014;" horiz-adv-x="854" d="M869 286L851 217Q777 217 696 217T532 217T370 217T220 216T92 216T-2 216L-7 228L11 295Q25 295 59 295T139 295T237 295T343 294T441 294Q485 294 538 294T646 295T748 297T826 298T863 299L869 286Z" />
<glyph unicode="&#x2018;" horiz-adv-x="215" d="M209 432Q168 395 133 395Q105 395 87 418T69 477Q69 522 102 568T197 654L230 631L231 616Q202 594 186 566T169 514Q169 495 179 477T210 446L209 432Z" />
<glyph unicode="&#x2019;" horiz-adv-x="215" d="M79 617Q120 654 154 654Q182 654 200 631T219 572Q219 527 186 481T90 395L58 418L56 433Q85 455 102 482T119 534Q119 554 108 572T78 602L79 617Z" />
<glyph unicode="&#x201a;" horiz-adv-x="229" d="M279 96Q294 109 314 118T351 128Q378 128 395 106T413 43Q413 6 392 -29T336 -94T265 -146L233 -121V-106Q266 -83 287 -52T308 10Q308 31 299 50T277 82L279 96Z" />
<glyph unicode="&#x201c;" horiz-adv-x="385" d="M379 432Q338 395 303 395Q275 395 257 418T239 477Q239 522 272 568T367 654L400 631L401 616Q372 594 356 566T339 514Q339 495 349 477T380 446L379 432ZM209 432Q168 395 133 395Q105 395 87 418T69 477Q69
522 102 568T197 654L230 631L231 616Q202 594 186 566T169 514Q169 495 179 477T210 446L209 432Z" />
<glyph unicode="&#x201d;" horiz-adv-x="386" d="M249 617Q290 654 324 654Q352 654 370 631T389 572Q389 527 356 481T260 395L228 418L226 433Q255 455 272 482T289 534Q289 554 278 572T248 602L249 617ZM79 617Q120 654 154 654Q182 654 200 631T219 572Q219
527 186 481T90 395L58 418L56 433Q85 455 102 482T119 534Q119 554 108 572T78 602L79 617Z" />
<glyph unicode="&#x201e;" horiz-adv-x="400" d="M22 96Q37 109 56 118T94 128Q122 128 140 107T158 48Q158 12 138 -20T85 -78T17 -125L-14 -100V-85Q16 -66 36 -38T56 16Q56 36 46 53T19 82L22 96ZM194 96Q210 109 229 118T266 128Q294 128 312 107T331 48Q331
12 311 -20T258 -78T190 -125L159 -100V-85Q189 -66 208 -38T228 16Q228 36 218 53T192 82L194 96Z" />
<glyph unicode="&#x2022;" horiz-adv-x="327" d="M147 114Q100 114 75 142T50 214Q50 253 67 283T114 331T182 350Q228 350 253 321T279 249Q279 212 263 181T216 132T147 114Z" />
<glyph unicode="&#x2039;" horiz-adv-x="255" d="M231 386L232 371Q229 367 218 352T192 316T162 275T137 239T125 221Q126 218 133 205T150 172T169 134T187 100T196 81L191 67L154 45Q148 53 133 72T97 116T58 162T27 199T14 214L17 233Q17 233 28 244T58 272T98
310T140 350T176 385T198 407L231 386Z" />
<glyph unicode="&#x203a;" horiz-adv-x="255" d="M22 66V80Q25 85 36 100T61 136T91 177T116 213T128 231Q127 234 120 247T104 279T84 318T67 352T57 371L62 385L99 407Q105 399 120 379T156 336T195 290T226 253T239 238L237 219Q237 219 226 208T196 180T156
142T114 102T78 67T55 45L22 66Z" />
</font>
</defs>
</svg>
