<?xml version="1.0" encoding="UTF-8"?>
<svg version="1.1" xmlns="http://www.w3.org/2000/svg" width="56" height="56">
<path d="M0 0 C1.62711914 -0.0309375 1.62711914 -0.0309375 3.28710938 -0.0625 C4.33576172 -0.06765625 5.38441406 -0.0728125 6.46484375 -0.078125 C7.41866943 -0.0874707 8.37249512 -0.09681641 9.35522461 -0.10644531 C12.6278794 0.32443899 14.44189548 1.25790188 17.0625 3.25 C22.00744356 10.48980867 19.93592451 24.97469659 18.48046875 33.23828125 C16.17085738 42.04433372 11.32952427 48.40217392 4.00390625 53.75390625 C-2.62539708 57.35052261 -10.61564275 56.9830381 -17.9375 56.25 C-20.38671875 55.2265625 -20.38671875 55.2265625 -21.9375 54.25 C-21.63851978 47.08942364 -20.2075492 41.60842901 -16.9375 35.25 C-16.36 34.074375 -15.7825 32.89875 -15.1875 31.6875 C-14.775 30.883125 -14.3625 30.07875 -13.9375 29.25 C-20.07383067 34.66440941 -24.0664925 41.63026445 -26.9375 49.25 C-30.75481623 48.70466911 -32.49441189 47.18170573 -34.9375 44.25 C-37.40622501 39.60350685 -37.30450839 35.07211174 -37.3125 29.9375 C-37.33699219 29.12087891 -37.36148438 28.30425781 -37.38671875 27.46289062 C-37.42005535 20.48998605 -35.60777782 15.42917445 -31.11328125 10.078125 C-21.34380455 1.80376738 -12.49860959 0.05920005 0 0 Z " fill="#24312B" transform="translate(36.9375,-0.25)"/>
</svg>
