<svg width="170" height="48" viewBox="0 0 170 48" fill="none" xmlns="http://www.w3.org/2000/svg">
<path d="M17.5528 38C16.6493 38 15.7389 37.8973 14.8217 37.692C13.9045 37.4866 12.9668 37.1923 12.0085 36.809C12.337 33.4961 13.2953 30.4022 14.8833 27.5274C16.4713 24.6525 18.5111 22.1199 21.0026 19.9296C17.9909 21.4628 15.383 23.4889 13.1789 26.0078C10.9749 28.5267 9.43481 31.4016 8.55867 34.6323C8.44915 34.5502 8.34648 34.4612 8.25065 34.3654L7.94263 34.0574C6.6558 32.7705 5.67699 31.3331 5.00619 29.7451C4.3354 28.1571 4 26.5007 4 24.7758C4 22.914 4.36962 21.1343 5.10887 19.4368C5.84811 17.7392 6.87484 16.2334 8.18905 14.9192C10.1056 13.0026 12.4808 11.661 15.3145 10.8944C18.1483 10.1278 21.9746 9.85398 26.7934 10.073C27.5052 10.1004 28.1623 10.2578 28.7647 10.5453C29.367 10.8328 29.9009 11.2093 30.3664 11.6747C30.8318 12.1402 31.2014 12.6809 31.4752 13.2969C31.749 13.913 31.9133 14.5769 31.9681 15.2888C32.1323 20.2171 31.8449 24.0639 31.1056 26.8292C30.3664 29.5945 29.0522 31.9218 27.163 33.811C25.8214 35.1525 24.3224 36.1861 22.6659 36.9117C21.0095 37.6372 19.3051 38 17.5528 38Z" fill="#25322C"/>
<path d="M48.9927 32.216C48.3687 32.176 47.7647 32.052 47.1807 31.844C46.6047 31.628 46.0927 31.336 45.6447 30.968C45.1967 30.6 44.8527 30.16 44.6127 29.648L47.0847 28.592C47.1807 28.752 47.3367 28.924 47.5527 29.108C47.7687 29.284 48.0247 29.432 48.3207 29.552C48.6247 29.672 48.9567 29.732 49.3167 29.732C49.6207 29.732 49.9087 29.692 50.1807 29.612C50.4607 29.524 50.6847 29.392 50.8527 29.216C51.0287 29.04 51.1167 28.812 51.1167 28.532C51.1167 28.236 51.0127 28.008 50.8047 27.848C50.6047 27.68 50.3487 27.556 50.0367 27.476C49.7327 27.388 49.4367 27.308 49.1487 27.236C48.3887 27.084 47.6807 26.848 47.0247 26.528C46.3767 26.208 45.8527 25.796 45.4527 25.292C45.0607 24.78 44.8647 24.164 44.8647 23.444C44.8647 22.652 45.0727 21.968 45.4887 21.392C45.9127 20.816 46.4607 20.372 47.1327 20.06C47.8127 19.748 48.5447 19.592 49.3287 19.592C50.2807 19.592 51.1527 19.792 51.9447 20.192C52.7447 20.584 53.3767 21.14 53.8407 21.86L51.5247 23.228C51.4127 23.036 51.2567 22.86 51.0567 22.7C50.8567 22.532 50.6287 22.396 50.3727 22.292C50.1167 22.18 49.8487 22.116 49.5687 22.1C49.2087 22.084 48.8807 22.116 48.5847 22.196C48.2887 22.276 48.0487 22.412 47.8647 22.604C47.6887 22.796 47.6007 23.052 47.6007 23.372C47.6007 23.676 47.7207 23.904 47.9607 24.056C48.2007 24.2 48.4887 24.312 48.8247 24.392C49.1687 24.472 49.4967 24.56 49.8087 24.656C50.5127 24.888 51.1727 25.172 51.7887 25.508C52.4127 25.844 52.9127 26.256 53.2887 26.744C53.6647 27.232 53.8447 27.816 53.8287 28.496C53.8287 29.272 53.5967 29.952 53.1327 30.536C52.6687 31.112 52.0687 31.552 51.3327 31.856C50.6047 32.16 49.8247 32.28 48.9927 32.216ZM67.5944 24.416V32H64.6664V25.184C64.6664 24.712 64.5504 24.284 64.3184 23.9C64.0864 23.508 63.7744 23.2 63.3824 22.976C62.9984 22.744 62.5704 22.628 62.0984 22.628C61.6264 22.628 61.1944 22.744 60.8024 22.976C60.4184 23.2 60.1104 23.508 59.8784 23.9C59.6544 24.284 59.5424 24.712 59.5424 25.184V32H56.6144L56.6024 14H59.5304L59.5424 21.068C59.9504 20.636 60.4384 20.296 61.0064 20.048C61.5744 19.792 62.1864 19.664 62.8424 19.664C63.7144 19.664 64.5104 19.88 65.2304 20.312C65.9504 20.736 66.5224 21.308 66.9464 22.028C67.3784 22.74 67.5944 23.536 67.5944 24.416ZM79.5188 20H82.4468V32H79.5188L79.3868 30.512C79.0588 31.048 78.6228 31.484 78.0788 31.82C77.5428 32.148 76.9068 32.312 76.1708 32.312C75.2828 32.312 74.4508 32.144 73.6748 31.808C72.8988 31.472 72.2148 31.008 71.6228 30.416C71.0388 29.824 70.5788 29.14 70.2428 28.364C69.9148 27.588 69.7508 26.756 69.7508 25.868C69.7508 25.012 69.9068 24.208 70.2188 23.456C70.5388 22.704 70.9828 22.044 71.5508 21.476C72.1188 20.908 72.7748 20.464 73.5188 20.144C74.2628 19.824 75.0628 19.664 75.9188 19.664C76.7108 19.664 77.4188 19.84 78.0428 20.192C78.6748 20.544 79.2108 20.992 79.6508 21.536L79.5188 20ZM76.0988 29.492C76.7228 29.492 77.2748 29.336 77.7548 29.024C78.2348 28.712 78.6108 28.292 78.8828 27.764C79.1548 27.228 79.2908 26.64 79.2908 26C79.2908 25.352 79.1548 24.764 78.8828 24.236C78.6108 23.7 78.2308 23.276 77.7428 22.964C77.2628 22.652 76.7148 22.496 76.0988 22.496C75.4828 22.496 74.9188 22.656 74.4068 22.976C73.9028 23.288 73.4988 23.708 73.1948 24.236C72.8988 24.764 72.7508 25.352 72.7508 26C72.7508 26.648 72.9028 27.236 73.2068 27.764C73.5108 28.292 73.9148 28.712 74.4188 29.024C74.9308 29.336 75.4908 29.492 76.0988 29.492ZM85.57 32L85.558 20H88.486L88.498 21.068C88.906 20.636 89.394 20.296 89.962 20.048C90.53 19.792 91.142 19.664 91.798 19.664C92.238 19.664 92.678 19.728 93.118 19.856L91.966 22.808C91.662 22.688 91.358 22.628 91.054 22.628C90.582 22.628 90.15 22.744 89.758 22.976C89.374 23.2 89.066 23.508 88.834 23.9C88.61 24.284 88.498 24.712 88.498 25.184V32H85.57ZM99.9018 32.312C98.7978 32.312 97.7898 32.028 96.8778 31.46C95.9738 30.892 95.2498 30.128 94.7058 29.168C94.1698 28.208 93.9018 27.148 93.9018 25.988C93.9018 25.116 94.0578 24.3 94.3698 23.54C94.6818 22.772 95.1098 22.1 95.6538 21.524C96.2058 20.94 96.8458 20.484 97.5738 20.156C98.3018 19.828 99.0778 19.664 99.9018 19.664C100.838 19.664 101.694 19.864 102.47 20.264C103.254 20.656 103.918 21.196 104.462 21.884C105.006 22.572 105.402 23.356 105.65 24.236C105.898 25.116 105.954 26.036 105.818 26.996H97.0458C97.1578 27.444 97.3418 27.848 97.5978 28.208C97.8538 28.56 98.1778 28.844 98.5698 29.06C98.9618 29.268 99.4058 29.376 99.9018 29.384C100.414 29.392 100.878 29.272 101.294 29.024C101.718 28.768 102.07 28.424 102.35 27.992L105.338 28.688C104.85 29.752 104.122 30.624 103.154 31.304C102.186 31.976 101.102 32.312 99.9018 32.312ZM96.9498 24.8H102.854C102.766 24.32 102.578 23.888 102.29 23.504C102.01 23.112 101.662 22.8 101.246 22.568C100.83 22.336 100.382 22.22 99.9018 22.22C99.4218 22.22 98.9778 22.336 98.5698 22.568C98.1618 22.792 97.8138 23.1 97.5258 23.492C97.2458 23.876 97.0538 24.312 96.9498 24.8ZM114.922 22.928H112.594V32H109.666V22.928H107.89V20H109.666V16.232H112.594V20H114.922V22.928ZM128.804 24.416V32H125.876V25.184C125.876 24.712 125.76 24.284 125.528 23.9C125.296 23.508 124.984 23.2 124.592 22.976C124.208 22.744 123.78 22.628 123.308 22.628C122.836 22.628 122.404 22.744 122.012 22.976C121.628 23.2 121.32 23.508 121.088 23.9C120.864 24.284 120.752 24.712 120.752 25.184V32H117.824L117.812 14H120.74L120.752 21.068C121.16 20.636 121.648 20.296 122.216 20.048C122.784 19.792 123.396 19.664 124.052 19.664C124.924 19.664 125.72 19.88 126.44 20.312C127.16 20.736 127.732 21.308 128.156 22.028C128.588 22.74 128.804 23.536 128.804 24.416ZM131.927 32L131.915 20H134.843L134.855 21.068C135.263 20.636 135.751 20.296 136.319 20.048C136.887 19.792 137.499 19.664 138.155 19.664C138.595 19.664 139.035 19.728 139.475 19.856L138.323 22.808C138.019 22.688 137.715 22.628 137.411 22.628C136.939 22.628 136.507 22.744 136.115 22.976C135.731 23.2 135.423 23.508 135.191 23.9C134.967 24.284 134.855 24.712 134.855 25.184V32H131.927ZM141.494 20H144.422V32H141.494V20ZM142.982 18.452C142.55 18.452 142.186 18.312 141.89 18.032C141.594 17.744 141.446 17.384 141.446 16.952C141.446 16.528 141.594 16.172 141.89 15.884C142.186 15.596 142.546 15.452 142.97 15.452C143.394 15.452 143.75 15.596 144.038 15.884C144.334 16.172 144.482 16.528 144.482 16.952C144.482 17.384 144.338 17.744 144.05 18.032C143.762 18.312 143.406 18.452 142.982 18.452ZM151.422 17.48V20H154.698V22.928H151.422V32H148.494V22.928H147.186V20H148.494V17.48C148.494 16.792 148.662 16.164 148.998 15.596C149.342 15.02 149.802 14.564 150.378 14.228C150.954 13.884 151.59 13.712 152.286 13.712C152.79 13.712 153.29 13.816 153.786 14.024C154.282 14.232 154.722 14.552 155.106 14.984L152.994 17.048C152.922 16.912 152.818 16.812 152.682 16.748C152.554 16.676 152.422 16.64 152.286 16.64C152.054 16.64 151.85 16.724 151.674 16.892C151.506 17.052 151.422 17.248 151.422 17.48ZM164.225 22.928H161.897V32H158.969V22.928H157.193V20H158.969V16.232H161.897V20H164.225V22.928Z" fill="#25322C"/>
</svg>
